OpenSans-CondensedThinItalic.ufo
<glyph name="dollar" format="2">
  <advance width="698"/>
  <unicode hex="0024"/>
  <outline>
    <contour>
      <point x="164" y="-119" type="line"/>
      <point x="213" y="-119" type="line"/>
      <point x="256" y="78" type="line"/>
      <point x="459" y="90"/>
      <point x="575" y="213"/>
      <point x="575" y="422" type="curve" smooth="yes"/>
      <point x="575" y="541"/>
      <point x="498" y="633"/>
      <point x="395" y="741" type="curve"/>
      <point x="522" y="1337" type="line"/>
      <point x="616" y="1333"/>
      <point x="680" y="1303"/>
      <point x="719" y="1278" type="curve"/>
      <point x="743" y="1325" type="line"/>
      <point x="707" y="1348"/>
      <point x="633" y="1380"/>
      <point x="532" y="1386" type="curve"/>
      <point x="569" y="1556" type="line"/>
      <point x="520" y="1556" type="line"/>
      <point x="483" y="1386" type="line"/>
      <point x="291" y="1378"/>
      <point x="168" y="1270"/>
      <point x="168" y="1059" type="curve" smooth="yes"/>
      <point x="168" y="915"/>
      <point x="250" y="829"/>
      <point x="344" y="725" type="curve"/>
      <point x="217" y="127" type="line"/>
      <point x="106" y="129"/>
      <point x="31" y="152"/>
      <point x="-20" y="182" type="curve"/>
      <point x="-20" y="127" type="line"/>
      <point x="25" y="106"/>
      <point x="98" y="80"/>
      <point x="205" y="78" type="curve"/>
    </contour>
    <contour>
      <point x="266" y="129" type="curve"/>
      <point x="383" y="680" type="line"/>
      <point x="469" y="586"/>
      <point x="522" y="520"/>
      <point x="522" y="422" type="curve" smooth="yes"/>
      <point x="522" y="242"/>
      <point x="436" y="141"/>
    </contour>
    <contour>
      <point x="356" y="784" type="line"/>
      <point x="274" y="874"/>
      <point x="221" y="948"/>
      <point x="221" y="1063" type="curve" smooth="yes"/>
      <point x="221" y="1235"/>
      <point x="311" y="1327"/>
      <point x="473" y="1337" type="curve"/>
    </contour>
  </outline>
</glyph>
<glyph name="percent" format="2">
  <advance width="1065"/>
  <unicode hex="0025"/>
  <outline>
    <contour>
      <point x="152" y="0" type="line"/>
      <point x="209" y="0" type="line"/>
      <point x="928" y="1462" type="line"/>
      <point x="874" y="1462" type="line"/>
    </contour>
    <contour>
      <point x="223" y="565" type="curve" smooth="yes"/>
      <point x="436" y="565"/>
      <point x="535" y="1059"/>
      <point x="535" y="1286" type="curve" smooth="yes"/>
      <point x="535" y="1427"/>
      <point x="489" y="1483"/>
      <point x="410" y="1483" type="curve" smooth="yes"/>
      <point x="201" y="1483"/>
      <point x="96" y="1036"/>
      <point x="96" y="778" type="curve" smooth="yes"/>
      <point x="96" y="618"/>
      <point x="147" y="565"/>
    </contour>
    <contour>
      <point x="229" y="616" type="curve" smooth="yes"/>
      <point x="182" y="616"/>
      <point x="150" y="653"/>
      <point x="150" y="786" type="curve" smooth="yes"/>
      <point x="150" y="1012"/>
      <point x="252" y="1432"/>
      <point x="403" y="1432" type="curve" smooth="yes"/>
      <point x="453" y="1432"/>
      <point x="481" y="1397"/>
      <point x="481" y="1282" type="curve" smooth="yes"/>
      <point x="481" y="1102"/>
      <point x="389" y="616"/>
    </contour>
    <contour>
      <point x="672" y="-25" type="curve" smooth="yes"/>
      <point x="885" y="-25"/>
      <point x="983" y="469"/>
      <point x="983" y="696" type="curve" smooth="yes"/>
      <point x="983" y="838"/>
      <point x="938" y="893"/>
      <point x="858" y="893" type="curve" smooth="yes"/>
      <point x="649" y="893"/>
      <point x="545" y="446"/>
      <point x="545" y="188" type="curve" smooth="yes"/>
      <point x="545" y="29"/>
      <point x="596" y="-25"/>
    </contour>
    <contour>
      <point x="678" y="27" type="curve" smooth="yes"/>
      <point x="631" y="27"/>
      <point x="598" y="63"/>
      <point x="598" y="197" type="curve" smooth="yes"/>
      <point x="598" y="422"/>
      <point x="700" y="842"/>
      <point x="852" y="842" type="curve" smooth="yes"/>
      <point x="901" y="842"/>
      <point x="930" y="807"/>
      <point x="930" y="692" type="curve" smooth="yes"/>
      <point x="930" y="512"/>
      <point x="838" y="27"/>
    </contour>
  </outline>
</glyph>
<glyph name="ampersand" format="2">
  <advance width="662"/>
  <unicode hex="0026"/>
  <outline>
    <contour>
      <point x="174" y="-20" type="curve" smooth="yes"/>
      <point x="309" y="-20"/>
      <point x="383" y="78"/>
      <point x="438" y="174" type="curve"/>
      <point x="481" y="0" type="line"/>
      <point x="528" y="0" type="line"/>
      <point x="477" y="223" type="line"/>
      <point x="543" y="350"/>
      <point x="594" y="489"/>
      <point x="621" y="612" type="curve"/>
      <point x="569" y="612" type="line"/>
      <point x="543" y="496"/>
      <point x="500" y="381"/>
      <point x="459" y="295" type="curve"/>
      <point x="338" y="778" type="line"/>
      <point x="485" y="915"/>
      <point x="588" y="1094"/>
      <point x="588" y="1307" type="curve" smooth="yes"/>
      <point x="588" y="1421"/>
      <point x="537" y="1483"/>
      <point x="455" y="1483" type="curve" smooth="yes"/>
      <point x="313" y="1483"/>
      <point x="236" y="1325"/>
      <point x="236" y="1100" type="curve" smooth="yes"/>
      <point x="236" y="997"/>
      <point x="250" y="885"/>
      <point x="274" y="793" type="curve"/>
      <point x="94" y="629"/>
      <point x="-25" y="455"/>
      <point x="-25" y="225" type="curve" smooth="yes"/>
      <point x="-25" y="63"/>
      <point x="51" y="-20"/>
    </contour>
    <contour>
      <point x="178" y="31" type="curve" smooth="yes"/>
      <point x="88" y="31"/>
      <point x="31" y="100"/>
      <point x="31" y="233" type="curve" smooth="yes"/>
      <point x="31" y="432"/>
      <point x="133" y="586"/>
      <point x="293" y="741" type="curve"/>
      <point x="422" y="233" type="line"/>
      <point x="365" y="131"/>
      <point x="301" y="31"/>
    </contour>
    <contour>
      <point x="324" y="834" type="curve"/>
      <point x="301" y="909"/>
      <point x="291" y="995"/>
      <point x="291" y="1102" type="curve" smooth="yes"/>
      <point x="291" y="1272"/>
      <point x="348" y="1432"/>
      <point x="449" y="1432" type="curve" smooth="yes"/>
      <point x="500" y="1432"/>
      <point x="530" y="1384"/>
      <point x="530" y="1305" type="curve" smooth="yes"/>
      <point x="530" y="1118"/>
      <point x="442" y="950"/>
    </contour>
  </outline>
</glyph>
<glyph name="parenright" format="2">
  <advance width="496"/>
  <unicode hex="0029"/>
  <outline>
    <contour>
      <point x="-141" y="-324" type="curve"/>
      <point x="-92" y="-324" type="line"/>
      <point x="233" y="29"/>
      <point x="412" y="387"/>
      <point x="412" y="856" type="curve" smooth="yes"/>
      <point x="412" y="1071"/>
      <point x="360" y="1296"/>
      <point x="285" y="1454" type="curve"/>
      <point x="236" y="1454" type="line"/>
      <point x="313" y="1294"/>
      <point x="356" y="1073"/>
      <point x="356" y="858" type="curve" smooth="yes"/>
      <point x="356" y="401"/>
      <point x="188" y="59"/>
    </contour>
  </outline>
</glyph>
<glyph name="zero" format="2">
  <advance width="702"/>
  <unicode hex="0030"/>
  <outline>
    <contour>
      <point x="227" y="-20" type="curve" smooth="yes"/>
      <point x="532" y="-20"/>
      <point x="696" y="799"/>
      <point x="696" y="1178" type="curve" smooth="yes"/>
      <point x="696" y="1384"/>
      <point x="637" y="1483"/>
      <point x="518" y="1483" type="curve" smooth="yes"/>
      <point x="197" y="1483"/>
      <point x="39" y="637"/>
      <point x="39" y="324" type="curve" smooth="yes"/>
      <point x="39" y="82"/>
      <point x="115" y="-20"/>
    </contour>
    <contour>
      <point x="227" y="31" type="curve" smooth="yes"/>
      <point x="147" y="31"/>
      <point x="94" y="102"/>
      <point x="94" y="324" type="curve" smooth="yes"/>
      <point x="94" y="627"/>
      <point x="252" y="1432"/>
      <point x="514" y="1432" type="curve" smooth="yes"/>
      <point x="602" y="1432"/>
      <point x="641" y="1362"/>
      <point x="641" y="1176" type="curve" smooth="yes"/>
      <point x="641" y="850"/>
      <point x="489" y="31"/>
    </contour>
  </outline>
</glyph>
<glyph name="five" format="2">
  <advance width="702"/>
  <unicode hex="0035"/>
  <outline>
    <contour>
      <point x="145" y="-20" type="curve" smooth="yes"/>
      <point x="459" y="-20"/>
      <point x="594" y="264"/>
      <point x="594" y="530" type="curve" smooth="yes"/>
      <point x="594" y="735"/>
      <point x="487" y="864"/>
      <point x="301" y="864" type="curve" smooth="yes"/>
      <point x="242" y="864"/>
      <point x="201" y="852"/>
      <point x="174" y="844" type="curve"/>
      <point x="332" y="1411" type="line"/>
      <point x="702" y="1411" type="line"/>
      <point x="715" y="1462" type="line"/>
      <point x="293" y="1462" type="line"/>
      <point x="117" y="831" type="line"/>
      <point x="147" y="784" type="line"/>
      <point x="188" y="801"/>
      <point x="236" y="813"/>
      <point x="297" y="813" type="curve" smooth="yes"/>
      <point x="457" y="813"/>
      <point x="539" y="721"/>
      <point x="539" y="526" type="curve" smooth="yes"/>
      <point x="539" y="287"/>
      <point x="426" y="31"/>
      <point x="147" y="31" type="curve" smooth="yes"/>
      <point x="55" y="31"/>
      <point x="-14" y="63"/>
      <point x="-55" y="90" type="curve"/>
      <point x="-55" y="29" type="line"/>
      <point x="-18" y="8"/>
      <point x="55" y="-20"/>
    </contour>
  </outline>
</glyph>
<glyph name="seven" format="2">
  <advance width="702"/>
  <unicode hex="0037"/>
  <outline>
    <contour>
      <point x="76" y="0" type="line"/>
      <point x="135" y="0" type="line"/>
      <point x="776" y="1411" type="line"/>
      <point x="778" y="1462" type="line"/>
      <point x="203" y="1462" type="line"/>
      <point x="193" y="1411" type="line"/>
      <point x="719" y="1411" type="line"/>
    </contour>
  </outline>
</glyph>
<glyph name="colon" format="2">
  <advance width="313"/>
  <unicode hex="003A"/>
  <outline>
    <contour>
      <point x="242" y="942" type="curve" smooth="yes"/>
      <point x="283" y="942"/>
      <point x="301" y="997"/>
      <point x="301" y="1032" type="curve" smooth="yes"/>
      <point x="301" y="1067"/>
      <point x="287" y="1083"/>
      <point x="264" y="1083" type="curve" smooth="yes"/>
      <point x="223" y="1083"/>
      <point x="205" y="1030"/>
      <point x="205" y="991" type="curve" smooth="yes"/>
      <point x="205" y="961"/>
      <point x="219" y="942"/>
    </contour>
    <contour>
      <point x="41" y="-2" type="curve" smooth="yes"/>
      <point x="82" y="-2"/>
      <point x="100" y="53"/>
      <point x="100" y="88" type="curve" smooth="yes"/>
      <point x="100" y="123"/>
      <point x="86" y="139"/>
      <point x="63" y="139" type="curve" smooth="yes"/>
      <point x="23" y="139"/>
      <point x="4" y="86"/>
      <point x="4" y="47" type="curve" smooth="yes"/>
      <point x="4" y="16"/>
      <point x="18" y="-2"/>
    </contour>
  </outline>
</glyph>
<glyph name="less" format="2">
  <advance width="817"/>
  <unicode hex="003C"/>
  <outline>
    <contour>
      <point x="756" y="303" type="line"/>
      <point x="756" y="360" type="line"/>
      <point x="119" y="750" type="line"/>
      <point x="756" y="1085" type="line"/>
      <point x="756" y="1143" type="line"/>
      <point x="59" y="772" type="line"/>
      <point x="59" y="727" type="line"/>
    </contour>
  </outline>
</glyph>
<glyph name="at" format="2">
  <advance width="1042"/>
  <unicode hex="0040"/>
  <outline>
    <contour>
      <point x="356" y="-184" type="curve" smooth="yes"/>
      <point x="434" y="-184"/>
      <point x="492" y="-164"/>
      <point x="530" y="-143" type="curve"/>
      <point x="530" y="-90" type="line"/>
      <point x="500" y="-111"/>
      <point x="432" y="-133"/>
      <point x="360" y="-133" type="curve" smooth="yes"/>
      <point x="176" y="-133"/>
      <point x="106" y="29"/>
      <point x="106" y="272" type="curve" smooth="yes"/>
      <point x="106" y="776"/>
      <point x="315" y="1419"/>
      <point x="698" y="1419" type="curve" smooth="yes"/>
      <point x="866" y="1419"/>
      <point x="952" y="1311"/>
      <point x="952" y="1032" type="curve" smooth="yes"/>
      <point x="952" y="741"/>
      <point x="834" y="287"/>
      <point x="692" y="287" type="curve" smooth="yes"/>
      <point x="645" y="287"/>
      <point x="631" y="319"/>
      <point x="631" y="391" type="curve" smooth="yes"/>
      <point x="631" y="430"/>
      <point x="641" y="504"/>
      <point x="670" y="616" type="curve" smooth="yes"/>
      <point x="774" y="1028" type="line"/>
      <point x="739" y="1042"/>
      <point x="690" y="1051"/>
      <point x="651" y="1051" type="curve" smooth="yes"/>
      <point x="428" y="1051"/>
      <point x="303" y="645"/>
      <point x="303" y="426" type="curve" smooth="yes"/>
      <point x="303" y="289"/>
      <point x="350" y="231"/>
      <point x="418" y="231" type="curve" smooth="yes"/>
      <point x="498" y="231"/>
      <point x="555" y="311"/>
      <point x="586" y="420" type="curve"/>
      <point x="586" y="420" type="line"/>
      <point x="584" y="305"/>
      <point x="604" y="236"/>
      <point x="686" y="236" type="curve" smooth="yes"/>
      <point x="885" y="236"/>
      <point x="1008" y="739"/>
      <point x="1008" y="1036" type="curve" smooth="yes"/>
      <point x="1008" y="1333"/>
      <point x="905" y="1470"/>
      <point x="702" y="1470" type="curve" smooth="yes"/>
      <point x="276" y="1470"/>
      <point x="51" y="797"/>
      <point x="51" y="270" type="curve" smooth="yes"/>
      <point x="51" y="-16"/>
      <point x="143" y="-184"/>
    </contour>
    <contour>
      <point x="430" y="283" type="curve" smooth="yes"/>
      <point x="383" y="283"/>
      <point x="358" y="326"/>
      <point x="358" y="430" type="curve" smooth="yes"/>
      <point x="358" y="625"/>
      <point x="467" y="999"/>
      <point x="645" y="999" type="curve" smooth="yes"/>
      <point x="672" y="999"/>
      <point x="694" y="997"/>
      <point x="711" y="991" type="curve"/>
      <point x="627" y="668" type="line" smooth="yes"/>
      <point x="561" y="412"/>
      <point x="489" y="283"/>
    </contour>
  </outline>
</glyph>
<glyph name="C" format="2">
  <advance width="690"/>
  <unicode hex="0043"/>
  <anchor x="231" y="0" name="bottom"/>
  <anchor x="543" y="1462" name="top"/>
  <anchor x="846" y="1462" name="topright"/>
  <outline>
    <contour>
      <point x="375" y="-20" type="curve" smooth="yes"/>
      <point x="426" y="-20"/>
      <point x="473" y="-10"/>
      <point x="528" y="8" type="curve"/>
      <point x="528" y="63" type="line"/>
      <point x="469" y="41"/>
      <point x="422" y="31"/>
      <point x="379" y="31" type="curve" smooth="yes"/>
      <point x="211" y="31"/>
      <point x="131" y="156"/>
      <point x="131" y="459" type="curve" smooth="yes"/>
      <point x="131" y="809"/>
      <point x="311" y="1434"/>
      <point x="680" y="1434" type="curve" smooth="yes"/>
      <point x="741" y="1434"/>
      <point x="791" y="1417"/>
      <point x="819" y="1389" type="curve"/>
      <point x="852" y="1434" type="line"/>
      <point x="813" y="1464"/>
      <point x="764" y="1485"/>
      <point x="684" y="1485" type="curve" smooth="yes"/>
      <point x="256" y="1485"/>
      <point x="76" y="813"/>
      <point x="76" y="459" type="curve" smooth="yes"/>
      <point x="76" y="119"/>
      <point x="178" y="-20"/>
    </contour>
  </outline>
</glyph>
<glyph name="D" format="2">
  <advance width="842"/>
  <unicode hex="0044"/>
  <anchor x="307" y="0" name="bottom"/>
  <anchor x="463" y="731" name="center"/>
  <anchor x="618" y="1462" name="top"/>
  <anchor x="997" y="1462" name="topright"/>
  <outline>
    <contour>
      <point x="6" y="0" type="line"/>
      <point x="174" y="0" type="line" smooth="yes"/>
      <point x="647" y="0"/>
      <point x="803" y="653"/>
      <point x="803" y="1042" type="curve" smooth="yes"/>
      <point x="803" y="1341"/>
      <point x="682" y="1462"/>
      <point x="469" y="1462" type="curve" smooth="yes"/>
      <point x="315" y="1462" type="line"/>
    </contour>
    <contour>
      <point x="70" y="51" type="line"/>
      <point x="360" y="1411" type="line"/>
      <point x="459" y="1411" type="line" smooth="yes"/>
      <point x="647" y="1411"/>
      <point x="745" y="1321"/>
      <point x="745" y="1042" type="curve" smooth="yes"/>
      <point x="745" y="662"/>
      <point x="594" y="51"/>
      <point x="172" y="51" type="curve" smooth="yes"/>
    </contour>
  </outline>
</glyph>
<glyph name="J" format="2">
  <advance width="315"/>
  <unicode hex="004A"/>
  <anchor x="-188" y="-352" name="bottom"/>
  <anchor x="354" y="1462" name="top"/>
  <anchor x="471" y="1462" name="topright"/>
  <outline>
    <contour>
      <point x="-188" y="-352" type="curve" smooth="yes"/>
      <point x="-57" y="-352"/>
      <point x="4" y="-264"/>
      <point x="43" y="-76" type="curve" smooth="yes"/>
      <point x="369" y="1462" type="line"/>
      <point x="315" y="1462" type="line"/>
      <point x="-6" y="-59" type="line" smooth="yes"/>
      <point x="-47" y="-242"/>
      <point x="-92" y="-301"/>
      <point x="-184" y="-301" type="curve" smooth="yes"/>
      <point x="-217" y="-301"/>
      <point x="-250" y="-293"/>
      <point x="-274" y="-281" type="curve"/>
      <point x="-291" y="-328" type="line"/>
      <point x="-266" y="-342"/>
      <point x="-229" y="-352"/>
    </contour>
  </outline>
</glyph>
<glyph name="M" format="2">
  <advance width="1202"/>
  <unicode hex="004D"/>
  <anchor x="487" y="0" name="bottom"/>
  <anchor x="799" y="1462" name="top"/>
  <anchor x="1358" y="1462" name="topright"/>
  <outline>
    <contour>
      <point x="4" y="0" type="line"/>
      <point x="57" y="0" type="line"/>
      <point x="309" y="1184" type="line" smooth="yes"/>
      <point x="322" y="1245"/>
      <point x="330" y="1284"/>
      <point x="344" y="1366" type="curve"/>
      <point x="348" y="1366" type="line"/>
      <point x="418" y="0" type="line"/>
      <point x="502" y="0" type="line"/>
      <point x="1155" y="1364" type="line"/>
      <point x="1159" y="1364" type="line"/>
      <point x="1141" y="1284"/>
      <point x="1128" y="1231"/>
      <point x="1116" y="1176" type="curve" smooth="yes"/>
      <point x="866" y="0" type="line"/>
      <point x="920" y="0" type="line"/>
      <point x="1231" y="1462" type="line"/>
      <point x="1145" y="1462" type="line"/>
      <point x="475" y="66" type="line"/>
      <point x="469" y="66" type="line"/>
      <point x="393" y="1462" type="line"/>
      <point x="315" y="1462" type="line"/>
    </contour>
  </outline>
</glyph>
<glyph name="N" format="2">
  <advance width="944"/>
  <unicode hex="004E"/>
  <anchor x="358" y="0" name="bottom"/>
  <anchor x="670" y="1462" name="top"/>
  <anchor x="1100" y="1462" name="topright"/>
  <outline>
    <contour>
      <point x="4" y="0" type="line"/>
      <point x="59" y="0" type="line"/>
      <point x="297" y="1120" type="line"/>
      <point x="322" y="1235"/>
      <point x="336" y="1303"/>
      <point x="346" y="1358" type="curve"/>
      <point x="350" y="1358" type="line"/>
      <point x="596" y="0" type="line"/>
      <point x="662" y="0" type="line"/>
      <point x="973" y="1462" type="line"/>
      <point x="918" y="1462" type="line"/>
      <point x="686" y="373" type="line"/>
      <point x="674" y="313"/>
      <point x="653" y="213"/>
      <point x="635" y="121" type="curve"/>
      <point x="631" y="121" type="line"/>
      <point x="383" y="1462" type="line"/>
      <point x="315" y="1462" type="line"/>
    </contour>
  </outline>
</glyph>
<glyph name="Q" format="2">
  <advance width="909"/>
  <unicode hex="0051"/>
  <anchor x="266" y="-350" name="bottom"/>
  <anchor x="651" y="1462" name="top"/>
  <anchor x="1065" y="1462" name="topright"/>
  <outline>
    <contour>
      <point x="471" y="-350" type="line"/>
      <point x="524" y="-348" type="line"/>
      <point x="424" y="-4" type="line"/>
      <point x="743" y="109"/>
      <point x="868" y="772"/>
      <point x="868" y="1110" type="curve" smooth="yes"/>
      <point x="868" y="1374"/>
      <point x="778" y="1483"/>
      <point x="614" y="1483" type="curve" smooth="yes"/>
      <point x="233" y="1483"/>
      <point x="70" y="758"/>
      <point x="70" y="381" type="curve" smooth="yes"/>
      <point x="70" y="106"/>
      <point x="160" y="-20"/>
      <point x="328" y="-20" type="curve" smooth="yes"/>
      <point x="344" y="-20"/>
      <point x="360" y="-18"/>
      <point x="375" y="-16" type="curve"/>
    </contour>
    <contour>
      <point x="334" y="31" type="curve" smooth="yes"/>
      <point x="199" y="31"/>
      <point x="125" y="135"/>
      <point x="125" y="385" type="curve" smooth="yes"/>
      <point x="125" y="711"/>
      <point x="276" y="1432"/>
      <point x="610" y="1432" type="curve" smooth="yes"/>
      <point x="750" y="1432"/>
      <point x="813" y="1337"/>
      <point x="813" y="1106" type="curve" smooth="yes"/>
      <point x="813" y="756"/>
      <point x="666" y="31"/>
    </contour>
  </outline>
</glyph>
<glyph name="W" format="2">
  <advance width="1225"/>
  <unicode hex="0057"/>
  <anchor x="498" y="0" name="bottom"/>
  <anchor x="809" y="1462" name="top"/>
  <anchor x="1380" y="1462" name="topright"/>
  <outline>
    <contour>
      <point x="152" y="0" type="line"/>
      <point x="229" y="0" type="line"/>
      <point x="686" y="1169" type="line" smooth="yes"/>
      <point x="707" y="1221"/>
      <point x="729" y="1282"/>
      <point x="748" y="1337" type="curve"/>
      <point x="752" y="1337" type="line"/>
      <point x="748" y="1270"/>
      <point x="745" y="1214"/>
      <point x="743" y="1149" type="curve" smooth="yes"/>
      <point x="705" y="0" type="line"/>
      <point x="782" y="0" type="line"/>
      <point x="1372" y="1462" type="line"/>
      <point x="1313" y="1462" type="line"/>
      <point x="877" y="369" type="line" smooth="yes"/>
      <point x="821" y="229"/>
      <point x="791" y="150"/>
      <point x="758" y="59" type="curve"/>
      <point x="754" y="59" type="line"/>
      <point x="760" y="162"/>
      <point x="762" y="246"/>
      <point x="766" y="350" type="curve" smooth="yes"/>
      <point x="803" y="1462" type="line"/>
      <point x="750" y="1462" type="line"/>
      <point x="295" y="311" type="line" smooth="yes"/>
      <point x="270" y="248"/>
      <point x="236" y="156"/>
      <point x="205" y="70" type="curve"/>
      <point x="201" y="70" type="line"/>
      <point x="203" y="119"/>
      <point x="205" y="188"/>
      <point x="207" y="289" type="curve" smooth="yes"/>
      <point x="225" y="1462" type="line"/>
      <point x="172" y="1462" type="line"/>
    </contour>
  </outline>
</glyph>
<glyph name="bracketleft" format="2">
  <advance width="561"/>
  <unicode hex="005B"/>
  <outline>
    <contour>
      <point x="-35" y="-324" type="line"/>
      <point x="305" y="-324" type="line"/>
      <point x="315" y="-274" type="line"/>
      <point x="27" y="-274" type="line"/>
      <point x="387" y="1413" type="line"/>
      <point x="676" y="1413" type="line"/>
      <point x="686" y="1462" type="line"/>
      <point x="346" y="1462" type="line"/>
    </contour>
  </outline>
</glyph>
<glyph name="c" format="2">
  <advance width="551"/>
  <unicode hex="0063"/>
  <anchor x="162" y="0" name="bottom"/>
  <anchor x="391" y="1077" name="top"/>
  <anchor x="625" y="1077" name="topright"/>
  <outline>
    <contour>
      <point x="285" y="-20" type="curve" smooth="yes"/>
      <point x="342" y="-20"/>
      <point x="387" y="-6"/>
      <point x="420" y="8" type="curve"/>
      <point x="420" y="61" type="line"/>
      <point x="381" y="43"/>
      <point x="336" y="31"/>
      <point x="289" y="31" type="curve" smooth="yes"/>
      <point x="172" y="31"/>
      <point x="115" y="102"/>
      <point x="115" y="305" type="curve" smooth="yes"/>
      <point x="115" y="616"/>
      <point x="250" y="1047"/>
      <point x="487" y="1047" type="curve" smooth="yes"/>
      <point x="524" y="1047"/>
      <point x="559" y="1040"/>
      <point x="592" y="1024" type="curve"/>
      <point x="610" y="1075" type="line"/>
      <point x="580" y="1090"/>
      <point x="535" y="1098"/>
      <point x="487" y="1098" type="curve" smooth="yes"/>
      <point x="199" y="1098"/>
      <point x="61" y="621"/>
      <point x="61" y="301" type="curve" smooth="yes"/>
      <point x="61" y="66"/>
      <point x="135" y="-20"/>
    </contour>
  </outline>
</glyph>
<glyph name="g" format="2">
  <advance width="656"/>
  <unicode hex="0067"/>
  <note>
g
</note>
  <anchor x="123" y="-492" name="bottom"/>
  <anchor x="457" y="1077" name="top"/>
  <anchor x="759" y="1077" name="topright"/>
  <outline>
    <contour>
      <point x="142" y="-492" type="curve" smooth="yes"/>
      <point x="236" y="-490"/>
      <point x="332" y="-454"/>
      <point x="402" y="-386" type="curve" smooth="yes"/>
      <point x="477" y="-315"/>
      <point x="528" y="-203"/>
      <point x="528" y="-92" type="curve" smooth="yes"/>
      <point x="528" y="31"/>
      <point x="488" y="128"/>
      <point x="322" y="129" type="curve"/>
      <point x="202" y="129" type="line"/>
      <point x="180" y="130"/>
      <point x="162" y="136"/>
      <point x="148" y="145" type="curve" smooth="yes"/>
      <point x="125" y="159"/>
      <point x="114" y="185"/>
      <point x="114" y="217" type="curve" smooth="yes"/>
      <point x="114" y="266"/>
      <point x="152" y="337"/>
      <point x="247" y="384" type="curve" smooth="yes"/>
      <point x="260" y="391"/>
      <point x="289" y="389"/>
      <point x="298" y="389" type="curve" smooth="yes"/>
      <point x="385" y="389"/>
      <point x="461" y="444"/>
      <point x="517" y="524" type="curve" smooth="yes"/>
      <point x="582" y="618"/>
      <point x="621" y="746"/>
      <point x="621" y="864" type="curve" smooth="yes"/>
      <point x="621" y="926"/>
      <point x="610" y="984"/>
      <point x="586" y="1019" type="curve"/>
      <point x="710" y="1032" type="line"/>
      <point x="718" y="1077" type="line"/>
      <point x="542" y="1077" type="line"/>
      <point x="524" y="1090"/>
      <point x="497" y="1100"/>
      <point x="456" y="1100" type="curve" smooth="yes"/>
      <point x="383" y="1100"/>
      <point x="318" y="1065"/>
      <point x="266" y="1009" type="curve" smooth="yes"/>
      <point x="173" y="912"/>
      <point x="118" y="752"/>
      <point x="118" y="615" type="curve" smooth="yes"/>
      <point x="118" y="508"/>
      <point x="154" y="442"/>
      <point x="208" y="412" type="curve"/>
      <point x="97" y="340"/>
      <point x="60" y="266"/>
      <point x="60" y="208" type="curve" smooth="yes"/>
      <point x="60" y="162"/>
      <point x="78" y="119"/>
      <point x="118" y="98" type="curve"/>
      <point x="-37" y="25"/>
      <point x="-125" y="-103"/>
      <point x="-128" y="-242" type="curve" smooth="yes"/>
      <point x="-132" y="-421"/>
      <point x="-24" y="-496"/>
    </contour>
    <contour>
      <point x="144" y="-441" type="curve" smooth="yes"/>
      <point x="9" y="-445"/>
      <point x="-73" y="-394"/>
      <point x="-73" y="-239" type="curve" smooth="yes"/>
      <point x="-73" y="-76"/>
      <point x="89" y="78"/>
      <point x="208" y="78" type="curve"/>
      <point x="322" y="78" type="line"/>
      <point x="374" y="76"/>
      <point x="413" y="61"/>
      <point x="434" y="36" type="curve" smooth="yes"/>
      <point x="464" y="2"/>
      <point x="472" y="-44"/>
      <point x="472" y="-96" type="curve" smooth="yes"/>
      <point x="472" y="-188"/>
      <point x="430" y="-285"/>
      <point x="371" y="-344" type="curve" smooth="yes"/>
      <point x="311" y="-405"/>
      <point x="228" y="-439"/>
    </contour>
    <contour>
      <point x="302" y="440" type="curve" smooth="yes"/>
      <point x="258" y="440"/>
      <point x="226" y="459"/>
      <point x="204" y="490" type="curve" smooth="yes"/>
      <point x="183" y="521"/>
      <point x="173" y="565"/>
      <point x="173" y="616" type="curve" smooth="yes"/>
      <point x="173" y="799"/>
      <point x="300" y="1048"/>
      <point x="440" y="1048" type="curve" smooth="yes"/>
      <point x="486" y="1048"/>
      <point x="517" y="1030"/>
      <point x="537" y="1001" type="curve" smooth="yes"/>
      <point x="557" y="971"/>
      <point x="565" y="930"/>
      <point x="565" y="882" type="curve" smooth="yes"/>
      <point x="565" y="660"/>
      <point x="448" y="440"/>
    </contour>
  </outline>
</glyph>
<glyph name="i" format="2">
  <advance width="317"/>
  <unicode hex="0069"/>
  <anchor x="45" y="0" name="bottom"/>
  <anchor x="356" y="1458" name="top"/>
  <anchor x="473" y="1458" name="topright"/>
  <outline>
    <contour>
      <point x="12" y="0" type="line"/>
      <point x="66" y="0" type="line"/>
      <point x="295" y="1077" type="line"/>
      <point x="242" y="1077" type="line"/>
    </contour>
    <contour>
      <point x="324" y="1317" type="curve" smooth="yes"/>
      <point x="365" y="1317"/>
      <point x="383" y="1372"/>
      <point x="383" y="1407" type="curve" smooth="yes"/>
      <point x="383" y="1442"/>
      <point x="369" y="1458"/>
      <point x="346" y="1458" type="curve" smooth="yes"/>
      <point x="305" y="1458"/>
      <point x="287" y="1405"/>
      <point x="287" y="1366" type="curve" smooth="yes"/>
      <point x="287" y="1335"/>
      <point x="301" y="1317"/>
    </contour>
  </outline>
</glyph>
<glyph name="j" format="2">
  <advance width="330"/>
  <unicode hex="006A"/>
  <anchor x="-203" y="-492" name="bottom"/>
  <anchor x="362" y="1458" name="top"/>
  <anchor x="485" y="1458" name="topright"/>
  <outline>
    <contour>
      <point x="-203" y="-492" type="curve" smooth="yes"/>
      <point x="-47" y="-492"/>
      <point x="-4" y="-385"/>
      <point x="55" y="-109" type="curve" smooth="yes"/>
      <point x="307" y="1077" type="line"/>
      <point x="254" y="1077" type="line"/>
      <point x="2" y="-106" type="line" smooth="yes"/>
      <point x="-49" y="-367"/>
      <point x="-92" y="-440"/>
      <point x="-203" y="-440" type="curve" smooth="yes"/>
      <point x="-233" y="-440"/>
      <point x="-252" y="-436"/>
      <point x="-272" y="-428" type="curve"/>
      <point x="-272" y="-483" type="line"/>
      <point x="-258" y="-487"/>
      <point x="-233" y="-492"/>
    </contour>
    <contour>
      <point x="336" y="1317" type="curve" smooth="yes"/>
      <point x="377" y="1317"/>
      <point x="395" y="1372"/>
      <point x="395" y="1407" type="curve" smooth="yes"/>
      <point x="395" y="1442"/>
      <point x="381" y="1458"/>
      <point x="358" y="1458" type="curve" smooth="yes"/>
      <point x="317" y="1458"/>
      <point x="299" y="1405"/>
      <point x="299" y="1366" type="curve" smooth="yes"/>
      <point x="299" y="1335"/>
      <point x="313" y="1317"/>
    </contour>
  </outline>
</glyph>
<glyph name="l" format="2">
  <advance width="303"/>
  <unicode hex="006C"/>
  <anchor x="37" y="0" name="bottom"/>
  <anchor x="152" y="539" name="center"/>
  <anchor x="369" y="1556" name="top"/>
  <anchor x="479" y="1556" name="topright"/>
  <outline>
    <contour>
      <point x="10" y="0" type="line"/>
      <point x="63" y="0" type="line"/>
      <point x="395" y="1556" type="line"/>
      <point x="342" y="1556" type="line"/>
    </contour>
  </outline>
</glyph>
<glyph name="m" format="2">
  <advance width="1116"/>
  <unicode hex="006D"/>
  <anchor x="444" y="0" name="bottom"/>
  <anchor x="674" y="1077" name="top"/>
  <anchor x="1190" y="1077" name="topright"/>
  <outline>
    <contour>
      <point x="12" y="0" type="line"/>
      <point x="66" y="0" type="line"/>
      <point x="193" y="596" type="line" smooth="yes"/>
      <point x="246" y="846"/>
      <point x="309" y="1047"/>
      <point x="481" y="1047" type="curve" smooth="yes"/>
      <point x="561" y="1047"/>
      <point x="604" y="1001"/>
      <point x="604" y="924" type="curve" smooth="yes"/>
      <point x="604" y="899"/>
      <point x="602" y="864"/>
      <point x="594" y="829" type="curve" smooth="yes"/>
      <point x="414" y="0" type="line"/>
      <point x="467" y="0" type="line"/>
      <point x="637" y="776" type="line" smooth="yes"/>
      <point x="670" y="922"/>
      <point x="731" y="1047"/>
      <point x="868" y="1047" type="curve" smooth="yes"/>
      <point x="946" y="1047"/>
      <point x="1001" y="1006"/>
      <point x="1001" y="922" type="curve" smooth="yes"/>
      <point x="1001" y="889"/>
      <point x="995" y="848"/>
      <point x="983" y="791" type="curve" smooth="yes"/>
      <point x="815" y="0" type="line"/>
      <point x="868" y="0" type="line"/>
      <point x="1036" y="788" type="line" smooth="yes"/>
      <point x="1044" y="827"/>
      <point x="1055" y="891"/>
      <point x="1055" y="928" type="curve" smooth="yes"/>
      <point x="1055" y="1044"/>
      <point x="973" y="1098"/>
      <point x="877" y="1098" type="curve" smooth="yes"/>
      <point x="772" y="1098"/>
      <point x="696" y="1042"/>
      <point x="653" y="952" type="curve"/>
      <point x="649" y="952" type="line"/>
      <point x="643" y="1044"/>
      <point x="586" y="1098"/>
      <point x="485" y="1098" type="curve" smooth="yes"/>
      <point x="389" y="1098"/>
      <point x="311" y="1038"/>
      <point x="262" y="932" type="curve"/>
      <point x="258" y="932" type="line"/>
      <point x="285" y="1077" type="line"/>
      <point x="240" y="1077" type="line"/>
    </contour>
  </outline>
</glyph>
<glyph name="q" format="2">
  <advance width="778"/>
  <unicode hex="0071"/>
  <anchor x="172" y="-479" name="bottom"/>
  <anchor x="504" y="1077" name="top"/>
  <anchor x="852" y="1077" name="topright"/>
  <outline>
    <contour>
      <point x="375" y="-479" type="line"/>
      <point x="428" y="-479" type="line"/>
      <point x="756" y="1077" type="line"/>
      <point x="713" y="1077" type="line"/>
      <point x="672" y="901" type="line"/>
      <point x="668" y="901" type="line"/>
      <point x="662" y="1010"/>
      <point x="602" y="1098"/>
      <point x="479" y="1098" type="curve" smooth="yes"/>
      <point x="190" y="1098"/>
      <point x="59" y="559"/>
      <point x="59" y="283" type="curve" smooth="yes"/>
      <point x="59" y="78"/>
      <point x="131" y="-20"/>
      <point x="258" y="-20" type="curve" smooth="yes"/>
      <point x="377" y="-20"/>
      <point x="461" y="72"/>
      <point x="514" y="184" type="curve"/>
      <point x="518" y="184" type="line"/>
      <point x="512" y="160"/>
      <point x="506" y="135"/>
      <point x="494" y="82" type="curve" smooth="yes"/>
    </contour>
    <contour>
      <point x="264" y="31" type="curve" smooth="yes"/>
      <point x="176" y="31"/>
      <point x="115" y="96"/>
      <point x="115" y="287" type="curve" smooth="yes"/>
      <point x="115" y="530"/>
      <point x="233" y="1047"/>
      <point x="477" y="1047" type="curve" smooth="yes"/>
      <point x="578" y="1047"/>
      <point x="631" y="963"/>
      <point x="631" y="819" type="curve" smooth="yes"/>
      <point x="631" y="678"/>
      <point x="532" y="31"/>
    </contour>
  </outline>
</glyph>
<glyph name="w" format="2">
  <advance width="942"/>
  <unicode hex="0077"/>
  <anchor x="356" y="0" name="bottom"/>
  <anchor x="586" y="1077" name="top"/>
  <anchor x="1016" y="1077" name="topright"/>
  <outline>
    <contour>
      <point x="121" y="-2" type="line"/>
      <point x="178" y="-2" type="line"/>
      <point x="506" y="801" type="line" smooth="yes"/>
      <point x="532" y="866"/>
      <point x="555" y="924"/>
      <point x="575" y="985" type="curve"/>
      <point x="578" y="985" type="line"/>
      <point x="571" y="922"/>
      <point x="571" y="852"/>
      <point x="571" y="799" type="curve" smooth="yes"/>
      <point x="557" y="-2" type="line"/>
      <point x="610" y="-2" type="line"/>
      <point x="1034" y="1077" type="line"/>
      <point x="981" y="1077" type="line"/>
      <point x="684" y="309" type="line" smooth="yes"/>
      <point x="653" y="229"/>
      <point x="627" y="160"/>
      <point x="604" y="96" type="curve"/>
      <point x="600" y="96" type="line"/>
      <point x="606" y="166"/>
      <point x="610" y="266"/>
      <point x="610" y="319" type="curve" smooth="yes"/>
      <point x="623" y="1077" type="line"/>
      <point x="569" y="1077" type="line"/>
      <point x="262" y="332" type="line" smooth="yes"/>
      <point x="231" y="256"/>
      <point x="190" y="160"/>
      <point x="172" y="98" type="curve"/>
      <point x="168" y="98" type="line"/>
      <point x="170" y="170"/>
      <point x="172" y="242"/>
      <point x="172" y="322" type="curve" smooth="yes"/>
      <point x="178" y="1077" type="line"/>
      <point x="129" y="1077" type="line"/>
    </contour>
  </outline>
</glyph>
<glyph name="x" format="2">
  <advance width="582"/>
  <unicode hex="0078"/>
  <anchor x="176" y="0" name="bottom"/>
  <anchor x="406" y="1077" name="top"/>
  <anchor x="655" y="1077" name="topright"/>
  <outline>
    <contour>
      <point x="-88" y="0" type="line"/>
      <point x="-29" y="0" type="line"/>
      <point x="283" y="506" type="line"/>
      <point x="377" y="0" type="line"/>
      <point x="430" y="0" type="line"/>
      <point x="324" y="549" type="line"/>
      <point x="649" y="1077" type="line"/>
      <point x="590" y="1077" type="line"/>
      <point x="303" y="604" type="line"/>
      <point x="217" y="1077" type="line"/>
      <point x="164" y="1077" type="line"/>
      <point x="262" y="563" type="line"/>
    </contour>
  </outline>
</glyph>
<glyph name="y" format="2">
  <advance width="602"/>
  <unicode hex="0079"/>
  <anchor x="80" y="-498" name="bottom"/>
  <anchor x="416" y="1077" name="top"/>
  <anchor x="676" y="1077" name="topright"/>
  <outline>
    <contour>
      <point x="-150" y="-498" type="curve" smooth="yes"/>
      <point x="-29" y="-498"/>
      <point x="37" y="-430"/>
      <point x="113" y="-258" type="curve" smooth="yes"/>
      <point x="705" y="1077" type="line"/>
      <point x="649" y="1077" type="line"/>
      <point x="303" y="295" type="line" smooth="yes"/>
      <point x="283" y="250"/>
      <point x="252" y="178"/>
      <point x="227" y="117" type="curve"/>
      <point x="223" y="117" type="line"/>
      <point x="225" y="174"/>
      <point x="225" y="244"/>
      <point x="225" y="289" type="curve" smooth="yes"/>
      <point x="219" y="1077" type="line"/>
      <point x="166" y="1077" type="line"/>
      <point x="178" y="27" type="line"/>
      <point x="61" y="-242" type="line" smooth="yes"/>
      <point x="-4" y="-393"/>
      <point x="-59" y="-446"/>
      <point x="-145" y="-446" type="curve" smooth="yes"/>
      <point x="-180" y="-446"/>
      <point x="-205" y="-438"/>
      <point x="-223" y="-426" type="curve"/>
      <point x="-236" y="-477" type="line"/>
      <point x="-221" y="-487"/>
      <point x="-190" y="-498"/>
    </contour>
  </outline>
</glyph>
<glyph name="z" format="2">
  <advance width="471"/>
  <unicode hex="007A"/>
  <anchor x="121" y="0" name="bottom"/>
  <anchor x="350" y="1077" name="top"/>
  <anchor x="545" y="1077" name="topright"/>
  <outline>
    <contour>
      <point x="-68" y="0" type="line"/>
      <point x="313" y="0" type="line"/>
      <point x="324" y="51" type="line"/>
      <point x="-2" y="51" type="line"/>
      <point x="526" y="1028" type="line"/>
      <point x="537" y="1077" type="line"/>
      <point x="190" y="1077" type="line"/>
      <point x="180" y="1026" type="line"/>
      <point x="471" y="1026" type="line"/>
      <point x="-57" y="49" type="line"/>
    </contour>
  </outline>
</glyph>
<glyph name="braceleft" format="2">
  <advance width="635"/>
  <unicode hex="007B"/>
  <outline>
    <contour>
      <point x="360" y="-324" type="curve" smooth="yes"/>
      <point x="379" y="-324" type="line"/>
      <point x="391" y="-272" type="line"/>
      <point x="250" y="-272"/>
      <point x="190" y="-238"/>
      <point x="190" y="-129" type="curve" smooth="yes"/>
      <point x="190" y="-98"/>
      <point x="197" y="-66"/>
      <point x="205" y="-23" type="curve" smooth="yes"/>
      <point x="279" y="328" type="line" smooth="yes"/>
      <point x="287" y="365"/>
      <point x="291" y="397"/>
      <point x="291" y="426" type="curve" smooth="yes"/>
      <point x="291" y="514"/>
      <point x="250" y="551"/>
      <point x="188" y="565" type="curve"/>
      <point x="188" y="567" type="line"/>
      <point x="295" y="582"/>
      <point x="348" y="651"/>
      <point x="375" y="776" type="curve" smooth="yes"/>
      <point x="461" y="1186" type="line" smooth="yes"/>
      <point x="496" y="1348"/>
      <point x="567" y="1411"/>
      <point x="748" y="1411" type="curve"/>
      <point x="760" y="1462" type="line"/>
      <point x="745" y="1462" type="line" smooth="yes"/>
      <point x="547" y="1462"/>
      <point x="451" y="1391"/>
      <point x="410" y="1202" type="curve" smooth="yes"/>
      <point x="324" y="799" type="line" smooth="yes"/>
      <point x="289" y="635"/>
      <point x="231" y="594"/>
      <point x="78" y="594" type="curve"/>
      <point x="68" y="543" type="line"/>
      <point x="190" y="543"/>
      <point x="236" y="514"/>
      <point x="236" y="428" type="curve" smooth="yes"/>
      <point x="236" y="395"/>
      <point x="229" y="356"/>
      <point x="219" y="307" type="curve" smooth="yes"/>
      <point x="150" y="-20" type="line" smooth="yes"/>
      <point x="141" y="-61"/>
      <point x="135" y="-98"/>
      <point x="135" y="-131" type="curve" smooth="yes"/>
      <point x="135" y="-256"/>
      <point x="207" y="-324"/>
    </contour>
  </outline>
</glyph>
<glyph name="braceright" format="2">
  <advance width="631"/>
  <unicode hex="007D"/>
  <outline>
    <contour>
      <point x="-135" y="-324" type="line"/>
      <point x="-121" y="-324" type="line" smooth="yes"/>
      <point x="78" y="-324"/>
      <point x="174" y="-252"/>
      <point x="215" y="-63" type="curve" smooth="yes"/>
      <point x="301" y="338" type="line" smooth="yes"/>
      <point x="336" y="502"/>
      <point x="393" y="543"/>
      <point x="547" y="543" type="curve"/>
      <point x="557" y="594" type="line"/>
      <point x="434" y="594"/>
      <point x="389" y="623"/>
      <point x="389" y="709" type="curve" smooth="yes"/>
      <point x="389" y="741"/>
      <point x="395" y="780"/>
      <point x="406" y="829" type="curve" smooth="yes"/>
      <point x="475" y="1159" type="line" smooth="yes"/>
      <point x="483" y="1200"/>
      <point x="489" y="1237"/>
      <point x="489" y="1270" type="curve" smooth="yes"/>
      <point x="489" y="1395"/>
      <point x="418" y="1462"/>
      <point x="264" y="1462" type="curve" smooth="yes"/>
      <point x="246" y="1462" type="line"/>
      <point x="233" y="1411" type="line"/>
      <point x="375" y="1411"/>
      <point x="434" y="1376"/>
      <point x="434" y="1268" type="curve" smooth="yes"/>
      <point x="434" y="1237"/>
      <point x="428" y="1204"/>
      <point x="420" y="1161" type="curve" smooth="yes"/>
      <point x="346" y="809" type="line" smooth="yes"/>
      <point x="338" y="772"/>
      <point x="334" y="739"/>
      <point x="334" y="711" type="curve" smooth="yes"/>
      <point x="334" y="623"/>
      <point x="375" y="586"/>
      <point x="436" y="571" type="curve"/>
      <point x="436" y="569" type="line"/>
      <point x="330" y="555"/>
      <point x="276" y="485"/>
      <point x="250" y="360" type="curve" smooth="yes"/>
      <point x="164" y="-47" type="line" smooth="yes"/>
      <point x="129" y="-209"/>
      <point x="57" y="-272"/>
      <point x="-123" y="-272" type="curve"/>
    </contour>
  </outline>
</glyph>
<glyph name="yen" format="2">
  <advance width="664"/>
  <unicode hex="00A5"/>
  <outline>
    <contour>
      <point x="160" y="0" type="line"/>
      <point x="213" y="0" type="line"/>
      <point x="283" y="313" type="line"/>
      <point x="477" y="313" type="line"/>
      <point x="487" y="365" type="line"/>
      <point x="293" y="365" type="line"/>
      <point x="340" y="586" type="line"/>
      <point x="537" y="586" type="line"/>
      <point x="547" y="637" type="line"/>
      <point x="367" y="637" type="line"/>
      <point x="748" y="1462" type="line"/>
      <point x="690" y="1462" type="line"/>
      <point x="334" y="680" type="line"/>
      <point x="305" y="1462" type="line"/>
      <point x="254" y="1462" type="line"/>
      <point x="287" y="637" type="line"/>
      <point x="111" y="637" type="line"/>
      <point x="98" y="586" type="line"/>
      <point x="287" y="586" type="line"/>
      <point x="240" y="365" type="line"/>
      <point x="49" y="365" type="line"/>
      <point x="39" y="313" type="line"/>
      <point x="229" y="313" type="line"/>
    </contour>
  </outline>
</glyph>
<glyph name="brokenbar" format="2">
  <advance width="700"/>
  <unicode hex="00A6"/>
  <outline>
    <contour>
      <point x="317" y="772" type="line"/>
      <point x="373" y="772" type="line"/>
      <point x="373" y="1552" type="line"/>
      <point x="317" y="1552" type="line"/>
    </contour>
    <contour>
      <point x="317" y="-496" type="line"/>
      <point x="373" y="-496" type="line"/>
      <point x="373" y="285" type="line"/>
      <point x="317" y="285" type="line"/>
    </contour>
  </outline>
</glyph>
<glyph name="section" format="2">
  <advance width="592"/>
  <unicode hex="00A7"/>
  <outline>
    <contour>
      <point x="152" y="123" type="curve" smooth="yes"/>
      <point x="334" y="123"/>
      <point x="453" y="238"/>
      <point x="453" y="397" type="curve" smooth="yes"/>
      <point x="453" y="471"/>
      <point x="414" y="547"/>
      <point x="369" y="590" type="curve"/>
      <point x="473" y="653"/>
      <point x="547" y="743"/>
      <point x="547" y="858" type="curve" smooth="yes"/>
      <point x="547" y="961"/>
      <point x="481" y="1026"/>
      <point x="385" y="1094" type="curve" smooth="yes"/>
      <point x="313" y="1145"/>
      <point x="256" y="1196"/>
      <point x="256" y="1303" type="curve" smooth="yes"/>
      <point x="256" y="1427"/>
      <point x="336" y="1503"/>
      <point x="459" y="1503" type="curve" smooth="yes"/>
      <point x="528" y="1503"/>
      <point x="586" y="1481"/>
      <point x="633" y="1448" type="curve"/>
      <point x="664" y="1491" type="line"/>
      <point x="614" y="1526"/>
      <point x="547" y="1556"/>
      <point x="457" y="1554" type="curve" smooth="yes"/>
      <point x="293" y="1550"/>
      <point x="199" y="1442"/>
      <point x="199" y="1292" type="curve" smooth="yes"/>
      <point x="199" y="1227"/>
      <point x="223" y="1163"/>
      <point x="289" y="1104" type="curve"/>
      <point x="156" y="1044"/>
      <point x="94" y="967"/>
      <point x="94" y="852" type="curve" smooth="yes"/>
      <point x="94" y="739"/>
      <point x="172" y="680"/>
      <point x="250" y="621" type="curve" smooth="yes"/>
      <point x="338" y="555"/>
      <point x="397" y="494"/>
      <point x="397" y="395" type="curve" smooth="yes"/>
      <point x="397" y="264"/>
      <point x="303" y="174"/>
      <point x="154" y="174" type="curve" smooth="yes"/>
      <point x="63" y="174"/>
      <point x="0" y="203"/>
      <point x="-39" y="229" type="curve"/>
      <point x="-39" y="166" type="line"/>
      <point x="-2" y="145"/>
      <point x="59" y="123"/>
    </contour>
    <contour>
      <point x="332" y="627" type="curve"/>
      <point x="219" y="711"/>
      <point x="150" y="760"/>
      <point x="150" y="854" type="curve" smooth="yes"/>
      <point x="150" y="954"/>
      <point x="209" y="1022"/>
      <point x="328" y="1067" type="curve"/>
      <point x="426" y="1006"/>
      <point x="492" y="946"/>
      <point x="492" y="854" type="curve" smooth="yes"/>
      <point x="492" y="760"/>
      <point x="430" y="686"/>
    </contour>
  </outline>
</glyph>
<glyph name="ordfeminine" format="2">
  <advance width="477"/>
  <unicode hex="00AA"/>
  <anchor x="270" y="821" name="bottom"/>
  <anchor x="418" y="1473" name="top"/>
  <outline>
    <contour>
      <point x="291" y="821" type="curve" smooth="yes"/>
      <point x="358" y="821"/>
      <point x="406" y="860"/>
      <point x="442" y="930" type="curve"/>
      <point x="446" y="930" type="line"/>
      <point x="432" y="834" type="line"/>
      <point x="475" y="834" type="line"/>
      <point x="606" y="1466" type="line"/>
      <point x="563" y="1466" type="line"/>
      <point x="535" y="1372" type="line"/>
      <point x="530" y="1372" type="line"/>
      <point x="516" y="1425"/>
      <point x="483" y="1479"/>
      <point x="397" y="1479" type="curve" smooth="yes"/>
      <point x="215" y="1479"/>
      <point x="131" y="1241"/>
      <point x="131" y="1049" type="curve" smooth="yes"/>
      <point x="131" y="889"/>
      <point x="193" y="821"/>
    </contour>
    <contour>
      <point x="297" y="872" type="curve" smooth="yes"/>
      <point x="227" y="872"/>
      <point x="186" y="924"/>
      <point x="186" y="1053" type="curve" smooth="yes"/>
      <point x="186" y="1206"/>
      <point x="254" y="1427"/>
      <point x="393" y="1427" type="curve" smooth="yes"/>
      <point x="473" y="1427"/>
      <point x="502" y="1368"/>
      <point x="502" y="1268" type="curve" smooth="yes"/>
      <point x="502" y="1200"/>
      <point x="457" y="872"/>
    </contour>
  </outline>
</glyph>
<glyph name="twosuperior" format="2">
  <advance width="541"/>
  <unicode hex="00B2"/>
  <outline>
    <contour>
      <point x="106" y="850" type="line"/>
      <point x="500" y="850" type="line"/>
      <point x="512" y="901" type="line"/>
      <point x="182" y="901" type="line"/>
      <point x="391" y="1145" type="line" smooth="yes"/>
      <point x="518" y="1292"/>
      <point x="633" y="1421"/>
      <point x="633" y="1575" type="curve" smooth="yes"/>
      <point x="633" y="1690"/>
      <point x="563" y="1753"/>
      <point x="457" y="1753" type="curve" smooth="yes"/>
      <point x="375" y="1753"/>
      <point x="317" y="1720"/>
      <point x="276" y="1688" type="curve"/>
      <point x="303" y="1645" type="line"/>
      <point x="350" y="1679"/>
      <point x="391" y="1702"/>
      <point x="453" y="1702" type="curve" smooth="yes"/>
      <point x="532" y="1702"/>
      <point x="580" y="1655"/>
      <point x="580" y="1569" type="curve" smooth="yes"/>
      <point x="580" y="1423"/>
      <point x="453" y="1296"/>
      <point x="342" y="1165" type="curve" smooth="yes"/>
      <point x="113" y="893" type="line"/>
    </contour>
  </outline>
</glyph>
<glyph name="acute" format="2">
  <advance width="412"/>
  <unicode hex="00B4"/>
  <anchor x="287" y="1085" name="_top"/>
  <outline>
    <contour>
      <point x="238" y="1241" type="line"/>
      <point x="258" y="1241" type="line"/>
      <point x="354" y="1311"/>
      <point x="487" y="1464"/>
      <point x="545" y="1552" type="curve"/>
      <point x="545" y="1569" type="line"/>
      <point x="483" y="1569" type="line"/>
      <point x="438" y="1485"/>
      <point x="338" y="1356"/>
      <point x="236" y="1257" type="curve"/>
    </contour>
  </outline>
</glyph>
<glyph name="ordmasculine" format="2">
  <advance width="467"/>
  <unicode hex="00BA"/>
  <anchor x="293" y="809" name="bottom"/>
  <anchor x="434" y="1491" name="top"/>
  <outline>
    <contour>
      <point x="311" y="815" type="curve" smooth="yes"/>
      <point x="481" y="815"/>
      <point x="567" y="1090"/>
      <point x="567" y="1282" type="curve" smooth="yes"/>
      <point x="567" y="1417"/>
      <point x="516" y="1479"/>
      <point x="424" y="1479" type="curve" smooth="yes"/>
      <point x="227" y="1479"/>
      <point x="162" y="1174"/>
      <point x="162" y="1010" type="curve" smooth="yes"/>
      <point x="162" y="883"/>
      <point x="209" y="815"/>
    </contour>
    <contour>
      <point x="311" y="866" type="curve" smooth="yes"/>
      <point x="244" y="866"/>
      <point x="217" y="920"/>
      <point x="217" y="1012" type="curve" smooth="yes"/>
      <point x="217" y="1155"/>
      <point x="279" y="1427"/>
      <point x="420" y="1427" type="curve" smooth="yes"/>
      <point x="481" y="1427"/>
      <point x="512" y="1378"/>
      <point x="512" y="1280" type="curve" smooth="yes"/>
      <point x="512" y="1139"/>
      <point x="451" y="866"/>
    </contour>
  </outline>
</glyph>
<glyph name="guillemotright" format="2">
  <advance width="709"/>
  <unicode hex="00BB"/>
  <outline>
    <contour>
      <point x="299" y="164" type="line"/>
      <point x="618" y="487" type="line"/>
      <point x="623" y="516" type="line"/>
      <point x="461" y="877" type="line"/>
      <point x="424" y="862" type="line"/>
      <point x="559" y="510" type="line"/>
      <point x="270" y="190" type="line"/>
    </contour>
    <contour>
      <point x="10" y="164" type="line"/>
      <point x="330" y="487" type="line"/>
      <point x="334" y="516" type="line"/>
      <point x="172" y="877" type="line"/>
      <point x="135" y="862" type="line"/>
      <point x="270" y="510" type="line"/>
      <point x="-18" y="190" type="line"/>
    </contour>
  </outline>
</glyph>
<glyph name="Eth" format="2">
  <advance width="854"/>
  <unicode hex="00D0"/>
  <anchor x="313" y="0" name="bottom"/>
  <anchor x="625" y="1462" name="top"/>
  <outline>
    <contour>
      <point x="6" y="0" type="line"/>
      <point x="174" y="0" type="line" smooth="yes"/>
      <point x="647" y="0"/>
      <point x="803" y="653"/>
      <point x="803" y="1042" type="curve" smooth="yes"/>
      <point x="803" y="1341"/>
      <point x="682" y="1462"/>
      <point x="469" y="1462" type="curve" smooth="yes"/>
      <point x="315" y="1462" type="line"/>
      <point x="172" y="782" type="line"/>
      <point x="61" y="782" type="line"/>
      <point x="49" y="731" type="line"/>
      <point x="162" y="731" type="line"/>
    </contour>
    <contour>
      <point x="70" y="51" type="line"/>
      <point x="215" y="731" type="line"/>
      <point x="416" y="731" type="line"/>
      <point x="428" y="782" type="line"/>
      <point x="225" y="782" type="line"/>
      <point x="360" y="1411" type="line"/>
      <point x="459" y="1411" type="line" smooth="yes"/>
      <point x="647" y="1411"/>
      <point x="745" y="1321"/>
      <point x="745" y="1042" type="curve" smooth="yes"/>
      <point x="745" y="662"/>
      <point x="594" y="51"/>
      <point x="172" y="51" type="curve" smooth="yes"/>
    </contour>
  </outline>
</glyph>
<glyph name="Oslash" format="2">
  <advance width="918"/>
  <unicode hex="00D8"/>
  <anchor x="344" y="0" name="bottom"/>
  <anchor x="655" y="1462" name="top"/>
  <outline>
    <contour>
      <point x="-4" y="-84" type="line"/>
      <point x="117" y="111" type="line"/>
      <point x="160" y="23"/>
      <point x="231" y="-20"/>
      <point x="328" y="-20" type="curve" smooth="yes"/>
      <point x="719" y="-20"/>
      <point x="868" y="739"/>
      <point x="868" y="1110" type="curve" smooth="yes"/>
      <point x="868" y="1182"/>
      <point x="862" y="1243"/>
      <point x="848" y="1292" type="curve"/>
      <point x="989" y="1520" type="line"/>
      <point x="944" y="1546" type="line"/>
      <point x="825" y="1356" type="line"/>
      <point x="784" y="1444"/>
      <point x="713" y="1483"/>
      <point x="614" y="1483" type="curve" smooth="yes"/>
      <point x="233" y="1483"/>
      <point x="70" y="758"/>
      <point x="70" y="381" type="curve" smooth="yes"/>
      <point x="70" y="299"/>
      <point x="78" y="229"/>
      <point x="94" y="174" type="curve"/>
      <point x="-49" y="-57" type="line"/>
    </contour>
    <contour>
      <point x="334" y="31" type="curve" smooth="yes"/>
      <point x="248" y="31"/>
      <point x="186" y="74"/>
      <point x="154" y="170" type="curve"/>
      <point x="807" y="1225" type="line"/>
      <point x="811" y="1190"/>
      <point x="813" y="1151"/>
      <point x="813" y="1106" type="curve" smooth="yes"/>
      <point x="813" y="756"/>
      <point x="666" y="31"/>
    </contour>
    <contour>
      <point x="135" y="242" type="line"/>
      <point x="129" y="283"/>
      <point x="125" y="330"/>
      <point x="125" y="385" type="curve" smooth="yes"/>
      <point x="125" y="711"/>
      <point x="276" y="1432"/>
      <point x="610" y="1432" type="curve" smooth="yes"/>
      <point x="702" y="1432"/>
      <point x="760" y="1391"/>
      <point x="791" y="1298" type="curve"/>
    </contour>
  </outline>
</glyph>
<glyph name="dcroat" format="2">
  <advance width="776"/>
  <unicode hex="0111"/>
  <anchor x="279" y="0" name="bottom"/>
  <anchor x="610" y="1556" name="top"/>
  <outline>
    <contour>
      <point x="258" y="-20" type="curve" smooth="yes"/>
      <point x="375" y="-20"/>
      <point x="451" y="61"/>
      <point x="514" y="190" type="curve"/>
      <point x="518" y="190" type="line"/>
      <point x="485" y="0" type="line"/>
      <point x="528" y="0" type="line"/>
      <point x="803" y="1303" type="line"/>
      <point x="930" y="1303" type="line"/>
      <point x="940" y="1354" type="line"/>
      <point x="813" y="1354" type="line"/>
      <point x="856" y="1556" type="line"/>
      <point x="803" y="1556" type="line"/>
      <point x="760" y="1354" type="line"/>
      <point x="541" y="1354" type="line"/>
      <point x="530" y="1303" type="line"/>
      <point x="750" y="1303" type="line"/>
      <point x="715" y="1143" type="line" smooth="yes"/>
      <point x="698" y="1069"/>
      <point x="684" y="989"/>
      <point x="672" y="924" type="curve"/>
      <point x="666" y="924" type="line"/>
      <point x="651" y="1022"/>
      <point x="596" y="1098"/>
      <point x="489" y="1098" type="curve" smooth="yes"/>
      <point x="205" y="1098"/>
      <point x="59" y="602"/>
      <point x="59" y="283" type="curve" smooth="yes"/>
      <point x="59" y="86"/>
      <point x="131" y="-20"/>
    </contour>
    <contour>
      <point x="264" y="31" type="curve" smooth="yes"/>
      <point x="176" y="31"/>
      <point x="115" y="104"/>
      <point x="115" y="287" type="curve" smooth="yes"/>
      <point x="115" y="573"/>
      <point x="248" y="1047"/>
      <point x="487" y="1047" type="curve" smooth="yes"/>
      <point x="578" y="1047"/>
      <point x="631" y="969"/>
      <point x="631" y="852" type="curve" smooth="yes"/>
      <point x="631" y="705"/>
      <point x="535" y="31"/>
    </contour>
  </outline>
</glyph>
<glyph name="eogonek" format="2">
  <advance width="668"/>
  <unicode hex="0119"/>
  <anchor x="135" y="-399" name="bottom"/>
  <anchor x="449" y="1077" name="top"/>
  <outline>
    <contour>
      <point x="354" y="-399" type="curve" smooth="yes"/>
      <point x="389" y="-399"/>
      <point x="416" y="-393"/>
      <point x="434" y="-383" type="curve"/>
      <point x="446" y="-340" type="line"/>
      <point x="424" y="-344"/>
      <point x="403" y="-348"/>
      <point x="383" y="-348" type="curve" smooth="yes"/>
      <point x="330" y="-348"/>
      <point x="303" y="-319"/>
      <point x="303" y="-260" type="curve" smooth="yes"/>
      <point x="303" y="-164"/>
      <point x="362" y="-68"/>
      <point x="465" y="33" type="curve"/>
      <point x="432" y="39" type="line"/>
      <point x="274" y="-80"/>
      <point x="238" y="-164"/>
      <point x="238" y="-262" type="curve" smooth="yes"/>
      <point x="238" y="-342"/>
      <point x="279" y="-399"/>
    </contour>
    <component base="e"/>
  </outline>
</glyph>
<glyph name="idotless" format="2">
  <advance width="317"/>
  <unicode hex="0131"/>
  <anchor x="45" y="0" name="bottom"/>
  <anchor x="274" y="1077" name="top"/>
  <outline>
    <contour>
      <point x="12" y="0" type="line"/>
      <point x="63" y="0" type="line"/>
      <point x="293" y="1077" type="line"/>
      <point x="242" y="1077" type="line"/>
    </contour>
  </outline>
</glyph>
<glyph name="Lslash" format="2">
  <advance width="598"/>
  <unicode hex="0141"/>
  <anchor x="184" y="0" name="bottom"/>
  <anchor x="496" y="1462" name="top"/>
  <outline>
    <contour>
      <point x="4" y="0" type="line"/>
      <point x="442" y="0" type="line"/>
      <point x="453" y="51" type="line"/>
      <point x="68" y="51" type="line"/>
      <point x="207" y="707" type="line"/>
      <point x="455" y="838" type="line"/>
      <point x="436" y="885" type="line"/>
      <point x="221" y="770" type="line"/>
      <point x="369" y="1462" type="line"/>
      <point x="315" y="1462" type="line"/>
      <point x="162" y="739" type="line"/>
      <point x="-41" y="631" type="line"/>
      <point x="-23" y="584" type="line"/>
      <point x="147" y="674" type="line"/>
    </contour>
  </outline>
</glyph>
<glyph name="lslash" format="2">
  <advance width="303"/>
  <unicode hex="0142"/>
  <anchor x="37" y="0" name="bottom"/>
  <anchor x="369" y="1556" name="top"/>
  <outline>
    <contour>
      <point x="10" y="0" type="line"/>
      <point x="63" y="0" type="line"/>
      <point x="227" y="766" type="line"/>
      <point x="424" y="879" type="line"/>
      <point x="406" y="926" type="line"/>
      <point x="240" y="831" type="line"/>
      <point x="395" y="1556" type="line"/>
      <point x="342" y="1556" type="line"/>
      <point x="180" y="797" type="line"/>
      <point x="-14" y="684" type="line"/>
      <point x="4" y="637" type="line"/>
      <point x="166" y="729" type="line"/>
    </contour>
  </outline>
</glyph>
<glyph name="eng" format="2">
  <advance width="731"/>
  <unicode hex="014B"/>
  <anchor x="147" y="-492" name="bottom"/>
  <anchor x="481" y="1077" name="top"/>
  <anchor x="805" y="1077" name="topright"/>
  <outline>
    <contour>
      <point x="205" y="-492" type="curve" smooth="yes"/>
      <point x="360" y="-492"/>
      <point x="403" y="-387"/>
      <point x="463" y="-109" type="curve" smooth="yes"/>
      <point x="629" y="674" type="line" smooth="yes"/>
      <point x="647" y="758"/>
      <point x="670" y="868"/>
      <point x="670" y="932" type="curve" smooth="yes"/>
      <point x="670" y="1042"/>
      <point x="602" y="1098"/>
      <point x="502" y="1098" type="curve" smooth="yes"/>
      <point x="395" y="1098"/>
      <point x="305" y="1030"/>
      <point x="258" y="918" type="curve"/>
      <point x="254" y="918" type="line"/>
      <point x="283" y="1077" type="line"/>
      <point x="240" y="1077" type="line"/>
      <point x="12" y="0" type="line"/>
      <point x="66" y="0" type="line"/>
      <point x="190" y="588" type="line" smooth="yes"/>
      <point x="254" y="893"/>
      <point x="342" y="1047"/>
      <point x="496" y="1047" type="curve" smooth="yes"/>
      <point x="569" y="1047"/>
      <point x="616" y="1008"/>
      <point x="616" y="928" type="curve" smooth="yes"/>
      <point x="616" y="858"/>
      <point x="596" y="774"/>
      <point x="580" y="694" type="curve" smooth="yes"/>
      <point x="410" y="-106" type="line" smooth="yes"/>
      <point x="354" y="-369"/>
      <point x="315" y="-440"/>
      <point x="205" y="-440" type="curve" smooth="yes"/>
      <point x="174" y="-440"/>
      <point x="156" y="-436"/>
      <point x="135" y="-428" type="curve"/>
      <point x="135" y="-483" type="line"/>
      <point x="150" y="-487"/>
      <point x="174" y="-492"/>
    </contour>
  </outline>
</glyph>
<glyph name="OE" format="2">
  <advance width="1042"/>
  <unicode hex="0152"/>
  <anchor x="408" y="0" name="bottom"/>
  <anchor x="719" y="1462" name="top"/>
  <outline>
    <contour>
      <point x="352" y="-4" type="curve" smooth="yes"/>
      <point x="393" y="-4"/>
      <point x="408" y="0"/>
      <point x="418" y="0" type="curve" smooth="yes"/>
      <point x="844" y="0" type="line"/>
      <point x="854" y="51" type="line"/>
      <point x="446" y="51" type="line"/>
      <point x="594" y="743" type="line"/>
      <point x="975" y="743" type="line"/>
      <point x="987" y="795" type="line"/>
      <point x="606" y="795" type="line"/>
      <point x="737" y="1411" type="line"/>
      <point x="1145" y="1411" type="line"/>
      <point x="1155" y="1462" type="line"/>
      <point x="705" y="1462" type="line" smooth="yes"/>
      <point x="690" y="1462"/>
      <point x="651" y="1466"/>
      <point x="618" y="1466" type="curve" smooth="yes"/>
      <point x="213" y="1466"/>
      <point x="72" y="774"/>
      <point x="72" y="385" type="curve" smooth="yes"/>
      <point x="72" y="129"/>
      <point x="160" y="-4"/>
    </contour>
    <contour>
      <point x="354" y="47" type="curve" smooth="yes"/>
      <point x="201" y="47"/>
      <point x="127" y="158"/>
      <point x="127" y="385" type="curve" smooth="yes"/>
      <point x="127" y="774"/>
      <point x="274" y="1415"/>
      <point x="614" y="1415" type="curve" smooth="yes"/>
      <point x="643" y="1415"/>
      <point x="668" y="1413"/>
      <point x="684" y="1413" type="curve"/>
      <point x="393" y="51" type="line"/>
      <point x="385" y="49"/>
      <point x="371" y="47"/>
    </contour>
  </outline>
</glyph>
<glyph name="Tbar" format="2">
  <advance width="594"/>
  <unicode hex="0166"/>
  <anchor x="182" y="0" name="bottom"/>
  <anchor x="494" y="1462" name="top"/>
  <outline>
    <contour>
      <point x="133" y="0" type="line"/>
      <point x="186" y="0" type="line"/>
      <point x="344" y="743" type="line"/>
      <point x="557" y="743" type="line"/>
      <point x="567" y="795" type="line"/>
      <point x="356" y="795" type="line"/>
      <point x="487" y="1411" type="line"/>
      <point x="750" y="1411" type="line"/>
      <point x="760" y="1462" type="line"/>
      <point x="184" y="1462" type="line"/>
      <point x="174" y="1411" type="line"/>
      <point x="434" y="1411" type="line"/>
      <point x="303" y="795" type="line"/>
      <point x="94" y="795" type="line"/>
      <point x="86" y="743" type="line"/>
      <point x="291" y="743" type="line"/>
    </contour>
  </outline>
</glyph>
<glyph name="tbar" format="2">
  <advance width="348"/>
  <unicode hex="0167"/>
  <anchor x="59" y="0" name="bottom"/>
  <anchor x="344" y="1341" name="top"/>
  <outline>
    <contour>
      <point x="150" y="-20" type="curve" smooth="yes"/>
      <point x="184" y="-20"/>
      <point x="209" y="-14"/>
      <point x="231" y="-6" type="curve"/>
      <point x="231" y="43" type="line"/>
      <point x="213" y="37"/>
      <point x="190" y="31"/>
      <point x="158" y="31" type="curve" smooth="yes"/>
      <point x="106" y="31"/>
      <point x="84" y="61"/>
      <point x="84" y="115" type="curve" smooth="yes"/>
      <point x="84" y="152"/>
      <point x="94" y="207"/>
      <point x="109" y="279" type="curve" smooth="yes"/>
      <point x="174" y="584" type="line"/>
      <point x="342" y="584" type="line"/>
      <point x="352" y="635" type="line"/>
      <point x="184" y="635" type="line"/>
      <point x="268" y="1026" type="line"/>
      <point x="399" y="1026" type="line"/>
      <point x="410" y="1077" type="line"/>
      <point x="279" y="1077" type="line"/>
      <point x="334" y="1341" type="line"/>
      <point x="291" y="1341" type="line"/>
      <point x="223" y="1079" type="line"/>
      <point x="129" y="1073" type="line"/>
      <point x="119" y="1026" type="line"/>
      <point x="215" y="1026" type="line"/>
      <point x="131" y="635" type="line"/>
      <point x="23" y="635" type="line"/>
      <point x="12" y="584" type="line"/>
      <point x="121" y="584" type="line"/>
      <point x="55" y="283" type="line" smooth="yes"/>
      <point x="41" y="217"/>
      <point x="31" y="152"/>
      <point x="31" y="109" type="curve" smooth="yes"/>
      <point x="31" y="25"/>
      <point x="76" y="-20"/>
    </contour>
  </outline>
</glyph>
<glyph name="uni018A" format="2">
  <advance width="1001"/>
  <unicode hex="018A"/>
  <anchor x="387" y="0" name="bottom"/>
  <anchor x="698" y="1462" name="top"/>
  <outline>
    <contour>
      <point x="143" y="0" type="line"/>
      <point x="311" y="0" type="line" smooth="yes"/>
      <point x="784" y="0"/>
      <point x="940" y="653"/>
      <point x="940" y="1042" type="curve" smooth="yes"/>
      <point x="940" y="1341"/>
      <point x="819" y="1462"/>
      <point x="606" y="1462" type="curve" smooth="yes"/>
      <point x="420" y="1462" type="line" smooth="yes"/>
      <point x="240" y="1462"/>
      <point x="170" y="1348"/>
      <point x="170" y="1231" type="curve" smooth="yes"/>
      <point x="170" y="1192"/>
      <point x="176" y="1167"/>
      <point x="182" y="1147" type="curve"/>
      <point x="238" y="1147" type="line"/>
      <point x="231" y="1167"/>
      <point x="223" y="1194"/>
      <point x="223" y="1231" type="curve" smooth="yes"/>
      <point x="223" y="1323"/>
      <point x="268" y="1411"/>
      <point x="412" y="1411" type="curve" smooth="yes"/>
      <point x="442" y="1411" type="line"/>
    </contour>
    <contour>
      <point x="207" y="51" type="line"/>
      <point x="498" y="1411" type="line"/>
      <point x="596" y="1411" type="line" smooth="yes"/>
      <point x="784" y="1411"/>
      <point x="883" y="1321"/>
      <point x="883" y="1042" type="curve" smooth="yes"/>
      <point x="883" y="662"/>
      <point x="731" y="51"/>
      <point x="309" y="51" type="curve" smooth="yes"/>
    </contour>
  </outline>
</glyph>
<glyph name="uni0191" format="2">
  <advance width="920"/>
  <unicode hex="0191"/>
  <anchor x="102" y="0" name="bottom"/>
  <anchor x="774" y="1462" name="top"/>
  <anchor x="1073" y="1462" name="topright"/>
  <outline>
    <contour>
      <point x="133" y="-23" type="curve" smooth="yes"/>
      <point x="272" y="-23"/>
      <point x="352" y="72"/>
      <point x="391" y="254" type="curve" smooth="yes"/>
      <point x="496" y="743" type="line"/>
      <point x="881" y="743" type="line"/>
      <point x="891" y="795" type="line"/>
      <point x="506" y="795" type="line"/>
      <point x="639" y="1411" type="line"/>
      <point x="1049" y="1411" type="line"/>
      <point x="1059" y="1462" type="line"/>
      <point x="596" y="1462" type="line"/>
      <point x="340" y="256" type="line" smooth="yes"/>
      <point x="307" y="100"/>
      <point x="240" y="29"/>
      <point x="133" y="29" type="curve" smooth="yes"/>
      <point x="12" y="29"/>
      <point x="-53" y="115"/>
      <point x="-53" y="246" type="curve" smooth="yes"/>
      <point x="-53" y="295"/>
      <point x="-43" y="336"/>
      <point x="-33" y="358" type="curve"/>
      <point x="-80" y="375" type="line"/>
      <point x="-92" y="344"/>
      <point x="-104" y="305"/>
      <point x="-104" y="246" type="curve" smooth="yes"/>
      <point x="-104" y="94"/>
      <point x="-33" y="-23"/>
    </contour>
  </outline>
</glyph>
<glyph name="uni0193" format="2">
  <advance width="926"/>
  <unicode hex="0193"/>
  <anchor x="348" y="0" name="bottom"/>
  <anchor x="659" y="1462" name="top"/>
  <outline>
    <contour>
      <point x="436" y="-20" type="curve" smooth="yes"/>
      <point x="539" y="-20"/>
      <point x="614" y="-2"/>
      <point x="686" y="25" type="curve"/>
      <point x="834" y="721" type="line"/>
      <point x="578" y="721" type="line"/>
      <point x="565" y="670" type="line"/>
      <point x="768" y="670" type="line"/>
      <point x="641" y="66" type="line"/>
      <point x="582" y="43"/>
      <point x="518" y="31"/>
      <point x="444" y="31" type="curve" smooth="yes"/>
      <point x="238" y="31"/>
      <point x="129" y="154"/>
      <point x="129" y="446" type="curve" smooth="yes"/>
      <point x="129" y="926"/>
      <point x="340" y="1434"/>
      <point x="715" y="1434" type="curve" smooth="yes"/>
      <point x="813" y="1434"/>
      <point x="899" y="1397"/>
      <point x="958" y="1348" type="curve"/>
      <point x="1016" y="1610" type="line" smooth="yes"/>
      <point x="1030" y="1679"/>
      <point x="1055" y="1714"/>
      <point x="1116" y="1714" type="curve" smooth="yes"/>
      <point x="1149" y="1714"/>
      <point x="1171" y="1708"/>
      <point x="1194" y="1698" type="curve"/>
      <point x="1194" y="1751" type="line"/>
      <point x="1174" y="1759"/>
      <point x="1149" y="1765"/>
      <point x="1114" y="1765" type="curve" smooth="yes"/>
      <point x="1024" y="1765"/>
      <point x="985" y="1698"/>
      <point x="967" y="1622" type="curve" smooth="yes"/>
      <point x="924" y="1436" type="line"/>
      <point x="872" y="1464"/>
      <point x="805" y="1485"/>
      <point x="715" y="1485" type="curve" smooth="yes"/>
      <point x="301" y="1485"/>
      <point x="74" y="954"/>
      <point x="74" y="440" type="curve" smooth="yes"/>
      <point x="74" y="129"/>
      <point x="199" y="-20"/>
    </contour>
  </outline>
</glyph>
<glyph name="uni0195" format="2">
  <advance width="1159"/>
  <unicode hex="0195"/>
  <anchor x="465" y="0" name="bottom"/>
  <anchor x="694" y="1077" name="top"/>
  <outline>
    <contour>
      <point x="688" y="-20" type="curve" smooth="yes"/>
      <point x="883" y="-20"/>
      <point x="930" y="121"/>
      <point x="979" y="344" type="curve" smooth="yes"/>
      <point x="1137" y="1077" type="line"/>
      <point x="1083" y="1077" type="line"/>
      <point x="926" y="346" type="line" smooth="yes"/>
      <point x="881" y="139"/>
      <point x="844" y="29"/>
      <point x="690" y="29" type="curve" smooth="yes"/>
      <point x="600" y="29"/>
      <point x="541" y="80"/>
      <point x="541" y="182" type="curve" smooth="yes"/>
      <point x="541" y="250"/>
      <point x="561" y="342"/>
      <point x="582" y="442" type="curve" smooth="yes"/>
      <point x="633" y="682" type="line" smooth="yes"/>
      <point x="651" y="768"/>
      <point x="672" y="868"/>
      <point x="672" y="932" type="curve" smooth="yes"/>
      <point x="672" y="1042"/>
      <point x="604" y="1098"/>
      <point x="504" y="1098" type="curve" smooth="yes"/>
      <point x="397" y="1098"/>
      <point x="307" y="1030"/>
      <point x="260" y="918" type="curve"/>
      <point x="256" y="918" type="line"/>
      <point x="268" y="969"/>
      <point x="281" y="1020"/>
      <point x="291" y="1071" type="curve" smooth="yes"/>
      <point x="397" y="1556" type="line"/>
      <point x="344" y="1556" type="line"/>
      <point x="14" y="0" type="line"/>
      <point x="68" y="0" type="line"/>
      <point x="193" y="588" type="line" smooth="yes"/>
      <point x="256" y="893"/>
      <point x="344" y="1047"/>
      <point x="498" y="1047" type="curve" smooth="yes"/>
      <point x="571" y="1047"/>
      <point x="618" y="1008"/>
      <point x="618" y="928" type="curve" smooth="yes"/>
      <point x="618" y="858"/>
      <point x="598" y="768"/>
      <point x="582" y="692" type="curve" smooth="yes"/>
      <point x="528" y="442" type="line" smooth="yes"/>
      <point x="506" y="336"/>
      <point x="487" y="252"/>
      <point x="487" y="178" type="curve" smooth="yes"/>
      <point x="487" y="51"/>
      <point x="559" y="-20"/>
    </contour>
  </outline>
</glyph>
<glyph name="uni019A" format="2">
  <advance width="315"/>
  <unicode hex="019A"/>
  <anchor x="43" y="0" name="bottom"/>
  <anchor x="375" y="1556" name="top"/>
  <outline>
    <contour>
      <point x="10" y="0" type="line"/>
      <point x="63" y="0" type="line"/>
      <point x="227" y="768" type="line"/>
      <point x="360" y="768" type="line"/>
      <point x="371" y="819" type="line"/>
      <point x="238" y="819" type="line"/>
      <point x="395" y="1556" type="line"/>
      <point x="342" y="1556" type="line"/>
      <point x="184" y="819" type="line"/>
      <point x="63" y="819" type="line"/>
      <point x="51" y="768" type="line"/>
      <point x="174" y="768" type="line"/>
    </contour>
  </outline>
</glyph>
<glyph name="uni019B" format="2">
  <advance width="575"/>
  <unicode hex="019B"/>
  <anchor x="174" y="0" name="bottom"/>
  <anchor x="508" y="1569" name="top"/>
  <outline>
    <contour>
      <point x="457" y="-20" type="curve" smooth="yes"/>
      <point x="475" y="-20"/>
      <point x="500" y="-14"/>
      <point x="508" y="-10" type="curve"/>
      <point x="508" y="39" type="line"/>
      <point x="498" y="35"/>
      <point x="479" y="31"/>
      <point x="459" y="31" type="curve" smooth="yes"/>
      <point x="416" y="31"/>
      <point x="399" y="66"/>
      <point x="401" y="160" type="curve" smooth="yes"/>
      <point x="424" y="1341" type="line"/>
      <point x="573" y="1366" type="line"/>
      <point x="565" y="1411" type="line"/>
      <point x="424" y="1389" type="line"/>
      <point x="424" y="1524"/>
      <point x="377" y="1569"/>
      <point x="297" y="1569" type="curve" smooth="yes"/>
      <point x="264" y="1569"/>
      <point x="250" y="1563"/>
      <point x="238" y="1559" type="curve"/>
      <point x="238" y="1507" type="line"/>
      <point x="250" y="1513"/>
      <point x="268" y="1518"/>
      <point x="289" y="1518" type="curve" smooth="yes"/>
      <point x="352" y="1518"/>
      <point x="373" y="1483"/>
      <point x="371" y="1380" type="curve"/>
      <point x="227" y="1358" type="line"/>
      <point x="233" y="1311" type="line"/>
      <point x="371" y="1333" type="line"/>
      <point x="365" y="1100" type="line"/>
      <point x="-102" y="0" type="line"/>
      <point x="-47" y="0" type="line"/>
      <point x="307" y="838" type="line" smooth="yes"/>
      <point x="330" y="889"/>
      <point x="350" y="938"/>
      <point x="367" y="985" type="curve"/>
      <point x="362" y="920"/>
      <point x="362" y="883"/>
      <point x="360" y="811" type="curve" smooth="yes"/>
      <point x="348" y="147" type="line" smooth="yes"/>
      <point x="346" y="18"/>
      <point x="387" y="-20"/>
    </contour>
  </outline>
</glyph>
<glyph name="uni019D" format="2">
  <advance width="944"/>
  <unicode hex="019D"/>
  <anchor x="289" y="-326" name="bottom"/>
  <anchor x="670" y="1462" name="top"/>
  <outline>
    <contour>
      <point x="-125" y="-326" type="curve" smooth="yes"/>
      <point x="-35" y="-326"/>
      <point x="6" y="-260"/>
      <point x="23" y="-184" type="curve" smooth="yes"/>
      <point x="297" y="1120" type="line" smooth="yes"/>
      <point x="322" y="1235"/>
      <point x="336" y="1303"/>
      <point x="346" y="1358" type="curve"/>
      <point x="350" y="1358" type="line"/>
      <point x="596" y="0" type="line"/>
      <point x="662" y="0" type="line"/>
      <point x="973" y="1462" type="line"/>
      <point x="918" y="1462" type="line"/>
      <point x="686" y="373" type="line" smooth="yes"/>
      <point x="668" y="289"/>
      <point x="651" y="205"/>
      <point x="635" y="121" type="curve"/>
      <point x="631" y="121" type="line"/>
      <point x="383" y="1462" type="line"/>
      <point x="315" y="1462" type="line"/>
      <point x="-29" y="-172" type="line" smooth="yes"/>
      <point x="-43" y="-242"/>
      <point x="-66" y="-274"/>
      <point x="-127" y="-274" type="curve" smooth="yes"/>
      <point x="-160" y="-274"/>
      <point x="-182" y="-268"/>
      <point x="-205" y="-258" type="curve"/>
      <point x="-205" y="-311" type="line"/>
      <point x="-184" y="-319"/>
      <point x="-160" y="-326"/>
    </contour>
  </outline>
</glyph>
<glyph name="ohorn" format="2">
  <advance width="735"/>
  <unicode hex="01A1"/>
  <anchor x="254" y="0" name="bottom"/>
  <anchor x="483" y="1077" name="top"/>
  <outline>
    <contour>
      <point x="268" y="-20" type="curve" smooth="yes"/>
      <point x="549" y="-20"/>
      <point x="678" y="481"/>
      <point x="678" y="795" type="curve" smooth="yes"/>
      <point x="678" y="827"/>
      <point x="676" y="858"/>
      <point x="672" y="887" type="curve"/>
      <point x="801" y="915"/>
      <point x="868" y="1018"/>
      <point x="903" y="1219" type="curve"/>
      <point x="895" y="1233" type="line"/>
      <point x="856" y="1233" type="line"/>
      <point x="819" y="1038"/>
      <point x="764" y="954"/>
      <point x="666" y="930" type="curve"/>
      <point x="637" y="1044"/>
      <point x="571" y="1098"/>
      <point x="475" y="1098" type="curve" smooth="yes"/>
      <point x="162" y="1098"/>
      <point x="57" y="528"/>
      <point x="57" y="281" type="curve" smooth="yes"/>
      <point x="57" y="68"/>
      <point x="139" y="-20"/>
    </contour>
    <contour>
      <point x="270" y="31" type="curve" smooth="yes"/>
      <point x="168" y="31"/>
      <point x="113" y="113"/>
      <point x="113" y="281" type="curve" smooth="yes"/>
      <point x="113" y="506"/>
      <point x="221" y="1047"/>
      <point x="471" y="1047" type="curve" smooth="yes"/>
      <point x="571" y="1047"/>
      <point x="623" y="963"/>
      <point x="623" y="795" type="curve" smooth="yes"/>
      <point x="623" y="526"/>
      <point x="512" y="31"/>
    </contour>
  </outline>
</glyph>
<glyph name="uni01A2" format="2">
  <advance width="1319"/>
  <unicode hex="01A2"/>
  <anchor x="545" y="0" name="bottom"/>
  <anchor x="856" y="1462" name="top"/>
  <outline>
    <contour>
      <point x="328" y="-20" type="curve" smooth="yes"/>
      <point x="719" y="-20"/>
      <point x="868" y="739"/>
      <point x="868" y="1110" type="curve" smooth="yes"/>
      <point x="868" y="1180"/>
      <point x="862" y="1239"/>
      <point x="850" y="1288" type="curve"/>
      <point x="909" y="1366"/>
      <point x="985" y="1432"/>
      <point x="1081" y="1432" type="curve" smooth="yes"/>
      <point x="1176" y="1432"/>
      <point x="1214" y="1384"/>
      <point x="1214" y="1305" type="curve" smooth="yes"/>
      <point x="1214" y="1262"/>
      <point x="1206" y="1210"/>
      <point x="1198" y="1171" type="curve" smooth="yes"/>
      <point x="950" y="0" type="line"/>
      <point x="1004" y="0" type="line"/>
      <point x="1251" y="1174" type="line" smooth="yes"/>
      <point x="1262" y="1219"/>
      <point x="1268" y="1262"/>
      <point x="1268" y="1309" type="curve" smooth="yes"/>
      <point x="1268" y="1421"/>
      <point x="1196" y="1483"/>
      <point x="1085" y="1483" type="curve" smooth="yes"/>
      <point x="981" y="1483"/>
      <point x="897" y="1419"/>
      <point x="831" y="1343" type="curve"/>
      <point x="791" y="1440"/>
      <point x="717" y="1483"/>
      <point x="614" y="1483" type="curve" smooth="yes"/>
      <point x="233" y="1483"/>
      <point x="70" y="758"/>
      <point x="70" y="381" type="curve" smooth="yes"/>
      <point x="70" y="106"/>
      <point x="160" y="-20"/>
    </contour>
    <contour>
      <point x="334" y="31" type="curve" smooth="yes"/>
      <point x="199" y="31"/>
      <point x="125" y="135"/>
      <point x="125" y="385" type="curve" smooth="yes"/>
      <point x="125" y="711"/>
      <point x="276" y="1432"/>
      <point x="610" y="1432" type="curve" smooth="yes"/>
      <point x="750" y="1432"/>
      <point x="813" y="1337"/>
      <point x="813" y="1106" type="curve" smooth="yes"/>
      <point x="813" y="756"/>
      <point x="666" y="31"/>
    </contour>
  </outline>
</glyph>
<glyph name="uni01A3" format="2">
  <advance width="1116"/>
  <unicode hex="01A3"/>
  <anchor x="150" y="-492" name="bottom"/>
  <anchor x="483" y="1077" name="top"/>
  <outline>
    <contour>
      <point x="745" y="-492" type="line"/>
      <point x="799" y="-492" type="line"/>
      <point x="1047" y="674" type="line" smooth="yes"/>
      <point x="1065" y="758"/>
      <point x="1087" y="868"/>
      <point x="1087" y="932" type="curve" smooth="yes"/>
      <point x="1087" y="1042"/>
      <point x="1020" y="1098"/>
      <point x="920" y="1098" type="curve" smooth="yes"/>
      <point x="817" y="1098"/>
      <point x="725" y="1030"/>
      <point x="670" y="907" type="curve"/>
      <point x="645" y="1038"/>
      <point x="578" y="1098"/>
      <point x="475" y="1098" type="curve" smooth="yes"/>
      <point x="162" y="1098"/>
      <point x="57" y="528"/>
      <point x="57" y="281" type="curve" smooth="yes"/>
      <point x="57" y="68"/>
      <point x="139" y="-20"/>
      <point x="268" y="-20" type="curve" smooth="yes"/>
      <point x="549" y="-20"/>
      <point x="678" y="481"/>
      <point x="678" y="795" type="curve" smooth="yes"/>
      <point x="678" y="809"/>
      <point x="678" y="821"/>
      <point x="678" y="836" type="curve"/>
      <point x="735" y="963"/>
      <point x="809" y="1047"/>
      <point x="913" y="1047" type="curve" smooth="yes"/>
      <point x="987" y="1047"/>
      <point x="1034" y="1008"/>
      <point x="1034" y="928" type="curve" smooth="yes"/>
      <point x="1034" y="858"/>
      <point x="1014" y="774"/>
      <point x="997" y="694" type="curve" smooth="yes"/>
    </contour>
    <contour>
      <point x="270" y="31" type="curve" smooth="yes"/>
      <point x="168" y="31"/>
      <point x="113" y="113"/>
      <point x="113" y="281" type="curve" smooth="yes"/>
      <point x="113" y="506"/>
      <point x="221" y="1047"/>
      <point x="471" y="1047" type="curve" smooth="yes"/>
      <point x="571" y="1047"/>
      <point x="623" y="963"/>
      <point x="623" y="795" type="curve" smooth="yes"/>
      <point x="623" y="526"/>
      <point x="512" y="31"/>
    </contour>
  </outline>
</glyph>
<glyph name="uni01A4" format="2">
  <advance width="866"/>
  <unicode hex="01A4"/>
  <anchor x="319" y="0" name="bottom"/>
  <anchor x="631" y="1462" name="top"/>
  <outline>
    <contour>
      <point x="152" y="0" type="line"/>
      <point x="205" y="0" type="line"/>
      <point x="338" y="627" type="line"/>
      <point x="436" y="627" type="line" smooth="yes"/>
      <point x="729" y="627"/>
      <point x="895" y="850"/>
      <point x="895" y="1163" type="curve" smooth="yes"/>
      <point x="895" y="1354"/>
      <point x="797" y="1462"/>
      <point x="594" y="1462" type="curve" smooth="yes"/>
      <point x="420" y="1462" type="line" smooth="yes"/>
      <point x="240" y="1462"/>
      <point x="170" y="1348"/>
      <point x="170" y="1231" type="curve" smooth="yes"/>
      <point x="170" y="1192"/>
      <point x="176" y="1167"/>
      <point x="182" y="1147" type="curve"/>
      <point x="238" y="1147" type="line"/>
      <point x="231" y="1167"/>
      <point x="223" y="1194"/>
      <point x="223" y="1231" type="curve" smooth="yes"/>
      <point x="223" y="1323"/>
      <point x="268" y="1411"/>
      <point x="412" y="1411" type="curve" smooth="yes"/>
      <point x="451" y="1411" type="line"/>
    </contour>
    <contour>
      <point x="348" y="678" type="line"/>
      <point x="506" y="1411" type="line"/>
      <point x="588" y="1411" type="line" smooth="yes"/>
      <point x="772" y="1411"/>
      <point x="838" y="1315"/>
      <point x="838" y="1161" type="curve" smooth="yes"/>
      <point x="838" y="893"/>
      <point x="715" y="678"/>
      <point x="432" y="678" type="curve" smooth="yes"/>
    </contour>
  </outline>
</glyph>
<glyph name="uni01A6" format="2">
  <advance width="750"/>
  <unicode hex="01A6"/>
  <anchor x="217" y="-205" name="bottom"/>
  <anchor x="571" y="1462" name="top"/>
  <outline>
    <contour>
      <point x="444" y="-205" type="line"/>
      <point x="500" y="-205" type="line"/>
      <point x="383" y="461" type="line"/>
      <point x="596" y="502"/>
      <point x="702" y="723"/>
      <point x="702" y="961" type="curve" smooth="yes"/>
      <point x="702" y="1159"/>
      <point x="590" y="1257"/>
      <point x="426" y="1257" type="curve" smooth="yes"/>
      <point x="326" y="1257" type="line"/>
      <point x="369" y="1462" type="line"/>
      <point x="315" y="1462" type="line"/>
      <point x="6" y="0" type="line"/>
      <point x="59" y="0" type="line"/>
      <point x="156" y="453" type="line"/>
      <point x="330" y="453" type="line"/>
    </contour>
    <contour>
      <point x="168" y="504" type="line"/>
      <point x="315" y="1206" type="line"/>
      <point x="408" y="1206" type="line" smooth="yes"/>
      <point x="565" y="1206"/>
      <point x="647" y="1130"/>
      <point x="647" y="954" type="curve" smooth="yes"/>
      <point x="647" y="756"/>
      <point x="557" y="504"/>
      <point x="313" y="504" type="curve" smooth="yes"/>
    </contour>
  </outline>
</glyph>
<glyph name="uni01AB" format="2">
  <advance width="371"/>
  <unicode hex="01AB"/>
  <anchor x="2" y="-326" name="bottom"/>
  <anchor x="356" y="1341" name="top"/>
  <outline>
    <contour>
      <point x="33" y="-326" type="curve" smooth="yes"/>
      <point x="123" y="-326"/>
      <point x="164" y="-258"/>
      <point x="180" y="-182" type="curve" smooth="yes"/>
      <point x="231" y="43" type="line"/>
      <point x="213" y="37"/>
      <point x="190" y="31"/>
      <point x="166" y="31" type="curve" smooth="yes"/>
      <point x="104" y="31"/>
      <point x="84" y="61"/>
      <point x="84" y="115" type="curve" smooth="yes"/>
      <point x="84" y="152"/>
      <point x="94" y="207"/>
      <point x="109" y="279" type="curve" smooth="yes"/>
      <point x="268" y="1026" type="line"/>
      <point x="399" y="1026" type="line"/>
      <point x="410" y="1077" type="line"/>
      <point x="279" y="1077" type="line"/>
      <point x="334" y="1341" type="line"/>
      <point x="291" y="1341" type="line"/>
      <point x="223" y="1079" type="line"/>
      <point x="129" y="1073" type="line"/>
      <point x="119" y="1026" type="line"/>
      <point x="215" y="1026" type="line"/>
      <point x="55" y="283" type="line" smooth="yes"/>
      <point x="41" y="217"/>
      <point x="31" y="152"/>
      <point x="31" y="109" type="curve" smooth="yes"/>
      <point x="31" y="25"/>
      <point x="78" y="-20"/>
      <point x="164" y="-20" type="curve"/>
      <point x="131" y="-170" type="line" smooth="yes"/>
      <point x="115" y="-240"/>
      <point x="92" y="-274"/>
      <point x="31" y="-274" type="curve" smooth="yes"/>
      <point x="-2" y="-274"/>
      <point x="-25" y="-268"/>
      <point x="-47" y="-258" type="curve"/>
      <point x="-47" y="-311" type="line"/>
      <point x="-27" y="-319"/>
      <point x="-2" y="-326"/>
    </contour>
  </outline>
</glyph>
<glyph name="uni01AE" format="2">
  <advance width="602"/>
  <unicode hex="01AE"/>
  <anchor x="104" y="-385" name="bottom"/>
  <anchor x="498" y="1462" name="top"/>
  <outline>
    <contour>
      <point x="197" y="-385" type="curve" smooth="yes"/>
      <point x="227" y="-385"/>
      <point x="252" y="-379"/>
      <point x="270" y="-373" type="curve"/>
      <point x="270" y="-322" type="line"/>
      <point x="248" y="-330"/>
      <point x="227" y="-334"/>
      <point x="199" y="-334" type="curve" smooth="yes"/>
      <point x="158" y="-334"/>
      <point x="135" y="-313"/>
      <point x="135" y="-268" type="curve" smooth="yes"/>
      <point x="135" y="-240"/>
      <point x="141" y="-205"/>
      <point x="154" y="-152" type="curve" smooth="yes"/>
      <point x="487" y="1411" type="line"/>
      <point x="750" y="1411" type="line"/>
      <point x="760" y="1462" type="line"/>
      <point x="184" y="1462" type="line"/>
      <point x="174" y="1411" type="line"/>
      <point x="434" y="1411" type="line"/>
      <point x="100" y="-152" type="line" smooth="yes"/>
      <point x="88" y="-205"/>
      <point x="82" y="-244"/>
      <point x="82" y="-272" type="curve" smooth="yes"/>
      <point x="82" y="-346"/>
      <point x="125" y="-385"/>
    </contour>
  </outline>
</glyph>
<glyph name="uni01B1" format="2">
  <advance width="936"/>
  <unicode hex="01B1"/>
  <anchor x="354" y="0" name="bottom"/>
  <anchor x="666" y="1462" name="top"/>
  <outline>
    <contour>
      <point x="350" y="-20" type="curve" smooth="yes"/>
      <point x="762" y="-20"/>
      <point x="885" y="604"/>
      <point x="885" y="954" type="curve" smooth="yes"/>
      <point x="885" y="1178"/>
      <point x="829" y="1331"/>
      <point x="768" y="1411" type="curve"/>
      <point x="1026" y="1411" type="line"/>
      <point x="1036" y="1462" type="line"/>
      <point x="723" y="1462" type="line"/>
      <point x="711" y="1413" type="line"/>
      <point x="793" y="1305"/>
      <point x="829" y="1159"/>
      <point x="829" y="950" type="curve" smooth="yes"/>
      <point x="829" y="647"/>
      <point x="725" y="31"/>
      <point x="354" y="31" type="curve" smooth="yes"/>
      <point x="205" y="31"/>
      <point x="137" y="133"/>
      <point x="137" y="356" type="curve" smooth="yes"/>
      <point x="137" y="801"/>
      <point x="315" y="1264"/>
      <point x="559" y="1413" type="curve"/>
      <point x="569" y="1462" type="line"/>
      <point x="231" y="1462" type="line"/>
      <point x="219" y="1411" type="line"/>
      <point x="487" y="1411" type="line"/>
      <point x="266" y="1262"/>
      <point x="82" y="834"/>
      <point x="82" y="344" type="curve" smooth="yes"/>
      <point x="82" y="96"/>
      <point x="164" y="-20"/>
    </contour>
  </outline>
</glyph>
<glyph name="uni01B3" format="2">
  <advance width="668"/>
  <unicode hex="01B3"/>
  <anchor x="158" y="0" name="bottom"/>
  <anchor x="469" y="1462" name="top"/>
  <outline>
    <contour>
      <point x="129" y="0" type="line"/>
      <point x="182" y="0" type="line"/>
      <point x="303" y="569" type="line"/>
      <point x="709" y="1362" type="line" smooth="yes"/>
      <point x="731" y="1407"/>
      <point x="745" y="1432"/>
      <point x="780" y="1432" type="curve" smooth="yes"/>
      <point x="803" y="1432"/>
      <point x="813" y="1425"/>
      <point x="821" y="1421" type="curve"/>
      <point x="821" y="1475" type="line"/>
      <point x="811" y="1479"/>
      <point x="797" y="1483"/>
      <point x="772" y="1483" type="curve" smooth="yes"/>
      <point x="713" y="1483"/>
      <point x="686" y="1440"/>
      <point x="662" y="1389" type="curve" smooth="yes"/>
      <point x="291" y="653" type="line"/>
      <point x="221" y="1462" type="line"/>
      <point x="168" y="1462" type="line"/>
      <point x="250" y="569" type="line"/>
    </contour>
  </outline>
</glyph>
<glyph name="uni01B5" format="2">
  <advance width="520"/>
  <unicode hex="01B5"/>
  <anchor x="145" y="0" name="bottom"/>
  <anchor x="457" y="1462" name="top"/>
  <outline>
    <contour>
      <point x="-86" y="0" type="line"/>
      <point x="449" y="0" type="line"/>
      <point x="459" y="51" type="line"/>
      <point x="-12" y="51" type="line"/>
      <point x="367" y="741" type="line"/>
      <point x="528" y="741" type="line"/>
      <point x="539" y="793" type="line"/>
      <point x="395" y="793" type="line"/>
      <point x="735" y="1411" type="line"/>
      <point x="745" y="1462" type="line"/>
      <point x="250" y="1462" type="line"/>
      <point x="238" y="1409" type="line"/>
      <point x="674" y="1409" type="line"/>
      <point x="334" y="793" type="line"/>
      <point x="154" y="793" type="line"/>
      <point x="143" y="741" type="line"/>
      <point x="305" y="741" type="line"/>
      <point x="-76" y="49" type="line"/>
    </contour>
  </outline>
</glyph>
<glyph name="uni01B8" format="2">
  <advance width="618"/>
  <unicode hex="01B8"/>
  <anchor x="195" y="0" name="bottom"/>
  <anchor x="506" y="1462" name="top"/>
  <outline>
    <contour>
      <point x="266" y="-20" type="curve" smooth="yes"/>
      <point x="350" y="-20"/>
      <point x="412" y="2"/>
      <point x="459" y="31" type="curve"/>
      <point x="459" y="86" type="line"/>
      <point x="406" y="53"/>
      <point x="348" y="31"/>
      <point x="272" y="31" type="curve" smooth="yes"/>
      <point x="133" y="31"/>
      <point x="57" y="123"/>
      <point x="57" y="279" type="curve" smooth="yes"/>
      <point x="57" y="492"/>
      <point x="164" y="741"/>
      <point x="442" y="741" type="curve" smooth="yes"/>
      <point x="506" y="741" type="line"/>
      <point x="516" y="793" type="line"/>
      <point x="272" y="1411" type="line"/>
      <point x="725" y="1411" type="line"/>
      <point x="733" y="1462" type="line"/>
      <point x="225" y="1462" type="line"/>
      <point x="217" y="1411" type="line"/>
      <point x="459" y="795" type="line"/>
      <point x="117" y="795"/>
      <point x="2" y="498"/>
      <point x="2" y="279" type="curve" smooth="yes"/>
      <point x="2" y="102"/>
      <point x="86" y="-20"/>
    </contour>
  </outline>
</glyph>
<glyph name="uni01C0" format="2">
  <advance width="496"/>
  <unicode hex="01C0"/>
  <anchor x="133" y="0" name="bottom"/>
  <anchor x="463" y="1552" name="top"/>
  <outline>
    <contour>
      <point x="106" y="0" type="line"/>
      <point x="160" y="0" type="line"/>
      <point x="489" y="1552" type="line"/>
      <point x="436" y="1552" type="line"/>
    </contour>
  </outline>
</glyph>
<glyph name="uni01C2" format="2">
  <advance width="811"/>
  <unicode hex="01C2"/>
  <anchor x="295" y="0" name="bottom"/>
  <anchor x="625" y="1552" name="top"/>
  <outline>
    <contour>
      <point x="268" y="0" type="line"/>
      <point x="322" y="0" type="line"/>
      <point x="446" y="592" type="line"/>
      <point x="670" y="592" type="line"/>
      <point x="682" y="645" type="line"/>
      <point x="459" y="645" type="line"/>
      <point x="516" y="920" type="line"/>
      <point x="739" y="920" type="line"/>
      <point x="752" y="973" type="line"/>
      <point x="528" y="973" type="line"/>
      <point x="651" y="1552" type="line"/>
      <point x="598" y="1552" type="line"/>
      <point x="475" y="973" type="line"/>
      <point x="248" y="973" type="line"/>
      <point x="236" y="920" type="line"/>
      <point x="463" y="920" type="line"/>
      <point x="406" y="645" type="line"/>
      <point x="178" y="645" type="line"/>
      <point x="166" y="592" type="line"/>
      <point x="393" y="592" type="line"/>
    </contour>
  </outline>
</glyph>
<glyph name="aringacute" format="2">
  <advance width="784"/>
  <unicode hex="01FB"/>
  <anchor x="279" y="0" name="bottom"/>
  <anchor x="690" y="1931" name="top"/>
  <outline>
    <contour>
      <point x="270" y="-20" type="curve" smooth="yes"/>
      <point x="346" y="-20"/>
      <point x="432" y="37"/>
      <point x="510" y="160" type="curve"/>
      <point x="514" y="160" type="line"/>
      <point x="489" y="0" type="line"/>
      <point x="530" y="0" type="line"/>
      <point x="758" y="1077" type="line"/>
      <point x="717" y="1077" type="line"/>
      <point x="680" y="948" type="line"/>
      <point x="674" y="948" type="line"/>
      <point x="649" y="1047"/>
      <point x="594" y="1098"/>
      <point x="504" y="1098" type="curve" smooth="yes"/>
      <point x="199" y="1098"/>
      <point x="63" y="563"/>
      <point x="63" y="252" type="curve" smooth="yes"/>
      <point x="63" y="68"/>
      <point x="127" y="-20"/>
    </contour>
    <contour>
      <point x="252" y="33" type="curve" smooth="yes"/>
      <point x="150" y="33"/>
      <point x="117" y="100"/>
      <point x="117" y="231" type="curve" smooth="yes"/>
      <point x="117" y="559"/>
      <point x="252" y="1044"/>
      <point x="487" y="1044" type="curve" smooth="yes"/>
      <point x="578" y="1044"/>
      <point x="635" y="969"/>
      <point x="635" y="852" type="curve" smooth="yes"/>
      <point x="635" y="721"/>
      <point x="614" y="592"/>
      <point x="578" y="459" type="curve" smooth="yes"/>
      <point x="514" y="238"/>
      <point x="420" y="33"/>
    </contour>
    <contour>
      <point x="528" y="1188" type="curve" smooth="yes"/>
      <point x="639" y="1188"/>
      <point x="709" y="1255"/>
      <point x="709" y="1366" type="curve" smooth="yes"/>
      <point x="709" y="1466"/>
      <point x="635" y="1536"/>
      <point x="528" y="1536" type="curve" smooth="yes"/>
      <point x="416" y="1536"/>
      <point x="350" y="1466"/>
      <point x="350" y="1362" type="curve" smooth="yes"/>
      <point x="350" y="1251"/>
      <point x="422" y="1188"/>
    </contour>
    <contour>
      <point x="530" y="1237" type="curve" smooth="yes"/>
      <point x="446" y="1237"/>
      <point x="406" y="1278"/>
      <point x="406" y="1362" type="curve" smooth="yes"/>
      <point x="406" y="1438"/>
      <point x="453" y="1489"/>
      <point x="530" y="1489" type="curve" smooth="yes"/>
      <point x="606" y="1489"/>
      <point x="653" y="1438"/>
      <point x="653" y="1362" type="curve" smooth="yes"/>
      <point x="653" y="1286"/>
      <point x="602" y="1237"/>
    </contour>
    <contour>
      <point x="541" y="1618" type="line"/>
      <point x="551" y="1618" type="line"/>
      <point x="678" y="1714"/>
      <point x="788" y="1833"/>
      <point x="846" y="1913" type="curve"/>
      <point x="844" y="1931" type="line"/>
      <point x="750" y="1931" type="line"/>
      <point x="686" y="1812"/>
      <point x="606" y="1718"/>
      <point x="541" y="1634" type="curve"/>
    </contour>
  </outline>
</glyph>
<glyph name="uni021C" format="2">
  <advance width="844"/>
  <unicode hex="021C"/>
  <anchor x="240" y="-252" name="bottom"/>
  <anchor x="575" y="1462" name="top"/>
  <outline>
    <contour>
      <point x="-135" y="-369" type="line"/>
      <point x="344" y="-223"/>
      <point x="707" y="-8"/>
      <point x="707" y="434" type="curve" smooth="yes"/>
      <point x="707" y="584"/>
      <point x="639" y="682"/>
      <point x="559" y="739" type="curve"/>
      <point x="758" y="836"/>
      <point x="856" y="1006"/>
      <point x="856" y="1212" type="curve" smooth="yes"/>
      <point x="856" y="1399"/>
      <point x="748" y="1483"/>
      <point x="602" y="1483" type="curve" smooth="yes"/>
      <point x="467" y="1483"/>
      <point x="356" y="1423"/>
      <point x="236" y="1327" type="curve"/>
      <point x="266" y="1288" type="line"/>
      <point x="371" y="1372"/>
      <point x="473" y="1432"/>
      <point x="598" y="1432" type="curve" smooth="yes"/>
      <point x="702" y="1432"/>
      <point x="801" y="1382"/>
      <point x="801" y="1212" type="curve" smooth="yes"/>
      <point x="801" y="907"/>
      <point x="598" y="774"/>
      <point x="264" y="678" type="curve"/>
      <point x="266" y="629" type="line"/>
      <point x="356" y="655"/>
      <point x="438" y="682"/>
      <point x="510" y="715" type="curve"/>
      <point x="600" y="647"/>
      <point x="651" y="561"/>
      <point x="651" y="434" type="curve" smooth="yes"/>
      <point x="651" y="37"/>
      <point x="326" y="-170"/>
      <point x="-123" y="-311" type="curve"/>
    </contour>
  </outline>
</glyph>
<glyph name="uni0220" format="2">
  <advance width="872"/>
  <unicode hex="0220"/>
  <anchor x="217" y="-492" name="bottom"/>
  <anchor x="633" y="1462" name="top"/>
  <outline>
    <contour>
      <point x="432" y="-492" type="line"/>
      <point x="485" y="-492" type="line"/>
      <point x="809" y="1026" type="line" smooth="yes"/>
      <point x="827" y="1110"/>
      <point x="846" y="1212"/>
      <point x="846" y="1276" type="curve" smooth="yes"/>
      <point x="846" y="1399"/>
      <point x="774" y="1483"/>
      <point x="637" y="1483" type="curve" smooth="yes"/>
      <point x="489" y="1483"/>
      <point x="383" y="1391"/>
      <point x="334" y="1282" type="curve"/>
      <point x="330" y="1282" type="line"/>
      <point x="362" y="1462" type="line"/>
      <point x="319" y="1462" type="line"/>
      <point x="12" y="0" type="line"/>
      <point x="66" y="0" type="line"/>
      <point x="270" y="973" type="line" smooth="yes"/>
      <point x="334" y="1278"/>
      <point x="449" y="1432"/>
      <point x="631" y="1432" type="curve" smooth="yes"/>
      <point x="741" y="1432"/>
      <point x="793" y="1368"/>
      <point x="793" y="1272" type="curve" smooth="yes"/>
      <point x="793" y="1202"/>
      <point x="776" y="1126"/>
      <point x="760" y="1047" type="curve" smooth="yes"/>
    </contour>
  </outline>
</glyph>
<glyph name="uni0235" format="2">
  <advance width="1024"/>
  <unicode hex="0235"/>
  <anchor x="397" y="0" name="bottom"/>
  <anchor x="627" y="1077" name="top"/>
  <outline>
    <contour>
      <point x="393" y="-90" type="line"/>
      <point x="422" y="-18"/>
      <point x="459" y="63"/>
      <point x="492" y="111" type="curve"/>
      <point x="508" y="51"/>
      <point x="561" y="-18"/>
      <point x="700" y="-18" type="curve" smooth="yes"/>
      <point x="840" y="-18"/>
      <point x="936" y="76"/>
      <point x="936" y="186" type="curve" smooth="yes"/>
      <point x="936" y="289"/>
      <point x="864" y="350"/>
      <point x="758" y="350" type="curve" smooth="yes"/>
      <point x="649" y="350"/>
      <point x="573" y="295"/>
      <point x="539" y="250" type="curve"/>
      <point x="629" y="674" type="line" smooth="yes"/>
      <point x="647" y="756"/>
      <point x="670" y="868"/>
      <point x="670" y="932" type="curve" smooth="yes"/>
      <point x="670" y="1042"/>
      <point x="602" y="1098"/>
      <point x="502" y="1098" type="curve" smooth="yes"/>
      <point x="395" y="1098"/>
      <point x="305" y="1030"/>
      <point x="258" y="918" type="curve"/>
      <point x="254" y="918" type="line"/>
      <point x="283" y="1077" type="line"/>
      <point x="240" y="1077" type="line"/>
      <point x="12" y="0" type="line"/>
      <point x="66" y="0" type="line"/>
      <point x="190" y="588" type="line" smooth="yes"/>
      <point x="254" y="893"/>
      <point x="342" y="1047"/>
      <point x="496" y="1047" type="curve" smooth="yes"/>
      <point x="569" y="1047"/>
      <point x="616" y="1008"/>
      <point x="616" y="928" type="curve" smooth="yes"/>
      <point x="616" y="858"/>
      <point x="596" y="774"/>
      <point x="580" y="694" type="curve" smooth="yes"/>
      <point x="496" y="299" type="line" smooth="yes"/>
      <point x="485" y="252"/>
      <point x="479" y="201"/>
      <point x="479" y="182" type="curve"/>
      <point x="436" y="123"/>
      <point x="379" y="12"/>
      <point x="346" y="-61" type="curve"/>
    </contour>
    <contour>
      <point x="702" y="33" type="curve" smooth="yes"/>
      <point x="606" y="31"/>
      <point x="532" y="72"/>
      <point x="532" y="172" type="curve"/>
      <point x="588" y="256"/>
      <point x="668" y="299"/>
      <point x="754" y="299" type="curve" smooth="yes"/>
      <point x="836" y="299"/>
      <point x="881" y="248"/>
      <point x="881" y="182" type="curve" smooth="yes"/>
      <point x="881" y="102"/>
      <point x="817" y="35"/>
    </contour>
  </outline>
</glyph>
<glyph name="uni0236" format="2">
  <advance width="588"/>
  <unicode hex="0236"/>
  <anchor x="180" y="0" name="bottom"/>
  <anchor x="465" y="1341" name="top"/>
  <outline>
    <contour>
      <point x="-43" y="-90" type="line"/>
      <point x="-14" y="-18"/>
      <point x="23" y="63"/>
      <point x="55" y="111" type="curve"/>
      <point x="72" y="51"/>
      <point x="125" y="-18"/>
      <point x="264" y="-18" type="curve" smooth="yes"/>
      <point x="403" y="-18"/>
      <point x="500" y="76"/>
      <point x="500" y="186" type="curve" smooth="yes"/>
      <point x="500" y="289"/>
      <point x="428" y="350"/>
      <point x="322" y="350" type="curve" smooth="yes"/>
      <point x="213" y="350"/>
      <point x="137" y="295"/>
      <point x="102" y="250" type="curve"/>
      <point x="270" y="1026" type="line"/>
      <point x="401" y="1026" type="line"/>
      <point x="412" y="1077" type="line"/>
      <point x="281" y="1077" type="line"/>
      <point x="336" y="1341" type="line"/>
      <point x="293" y="1341" type="line"/>
      <point x="225" y="1079" type="line"/>
      <point x="131" y="1073" type="line"/>
      <point x="121" y="1026" type="line"/>
      <point x="217" y="1026" type="line"/>
      <point x="59" y="293" type="line" smooth="yes"/>
      <point x="49" y="246"/>
      <point x="43" y="201"/>
      <point x="43" y="182" type="curve"/>
      <point x="0" y="123"/>
      <point x="-57" y="12"/>
      <point x="-90" y="-61" type="curve"/>
    </contour>
    <contour>
      <point x="266" y="33" type="curve" smooth="yes"/>
      <point x="170" y="31"/>
      <point x="96" y="72"/>
      <point x="96" y="172" type="curve"/>
      <point x="152" y="256"/>
      <point x="231" y="299"/>
      <point x="317" y="299" type="curve" smooth="yes"/>
      <point x="399" y="299"/>
      <point x="444" y="248"/>
      <point x="444" y="182" type="curve" smooth="yes"/>
      <point x="444" y="102"/>
      <point x="381" y="35"/>
    </contour>
  </outline>
</glyph>
<glyph name="uni0238" format="2">
  <advance width="1231"/>
  <unicode hex="0238"/>
  <anchor x="502" y="0" name="bottom"/>
  <anchor x="834" y="1556" name="top"/>
  <outline>
    <contour>
      <point x="258" y="-20" type="curve" smooth="yes"/>
      <point x="371" y="-20"/>
      <point x="465" y="53"/>
      <point x="551" y="258" type="curve"/>
      <point x="557" y="57"/>
      <point x="633" y="-20"/>
      <point x="752" y="-20" type="curve" smooth="yes"/>
      <point x="1040" y="-20"/>
      <point x="1171" y="518"/>
      <point x="1171" y="795" type="curve" smooth="yes"/>
      <point x="1171" y="999"/>
      <point x="1100" y="1098"/>
      <point x="973" y="1098" type="curve" smooth="yes"/>
      <point x="854" y="1098"/>
      <point x="770" y="1006"/>
      <point x="717" y="893" type="curve"/>
      <point x="713" y="893" type="line"/>
      <point x="719" y="918"/>
      <point x="729" y="954"/>
      <point x="737" y="995" type="curve" smooth="yes"/>
      <point x="856" y="1556" type="line"/>
      <point x="803" y="1556" type="line"/>
      <point x="694" y="1047" type="line" smooth="yes"/>
      <point x="684" y="1001"/>
      <point x="676" y="954"/>
      <point x="670" y="918" type="curve"/>
      <point x="666" y="918" type="line"/>
      <point x="653" y="1022"/>
      <point x="596" y="1098"/>
      <point x="489" y="1098" type="curve" smooth="yes"/>
      <point x="205" y="1098"/>
      <point x="59" y="602"/>
      <point x="59" y="283" type="curve" smooth="yes"/>
      <point x="59" y="86"/>
      <point x="131" y="-20"/>
    </contour>
    <contour>
      <point x="264" y="31" type="curve" smooth="yes"/>
      <point x="176" y="31"/>
      <point x="115" y="104"/>
      <point x="115" y="287" type="curve" smooth="yes"/>
      <point x="115" y="573"/>
      <point x="248" y="1047"/>
      <point x="487" y="1047" type="curve" smooth="yes"/>
      <point x="578" y="1047"/>
      <point x="631" y="969"/>
      <point x="631" y="852" type="curve" smooth="yes"/>
      <point x="631" y="705"/>
      <point x="539" y="31"/>
    </contour>
    <contour>
      <point x="754" y="31" type="curve" smooth="yes"/>
      <point x="653" y="31"/>
      <point x="600" y="115"/>
      <point x="600" y="258" type="curve" smooth="yes"/>
      <point x="600" y="399"/>
      <point x="698" y="1047"/>
      <point x="967" y="1047" type="curve" smooth="yes"/>
      <point x="1055" y="1047"/>
      <point x="1116" y="981"/>
      <point x="1116" y="791" type="curve" smooth="yes"/>
      <point x="1116" y="547"/>
      <point x="997" y="31"/>
    </contour>
  </outline>
</glyph>
<glyph name="uni023D" format="2">
  <advance width="606"/>
  <unicode hex="023D"/>
  <anchor x="188" y="0" name="bottom"/>
  <anchor x="500" y="1462" name="top"/>
  <outline>
    <contour>
      <point x="4" y="0" type="line"/>
      <point x="442" y="0" type="line"/>
      <point x="453" y="51" type="line"/>
      <point x="68" y="51" type="line"/>
      <point x="215" y="741" type="line"/>
      <point x="403" y="741" type="line"/>
      <point x="414" y="793" type="line"/>
      <point x="225" y="793" type="line"/>
      <point x="369" y="1462" type="line"/>
      <point x="315" y="1462" type="line"/>
      <point x="172" y="793" type="line"/>
      <point x="86" y="793" type="line"/>
      <point x="76" y="741" type="line"/>
      <point x="162" y="741" type="line"/>
    </contour>
  </outline>
</glyph>
<glyph name="uni0241" format="2">
  <advance width="612"/>
  <unicode hex="0241"/>
  <anchor x="193" y="0" name="bottom"/>
  <anchor x="504" y="1462" name="top"/>
  <outline>
    <contour>
      <point x="20" y="0" type="line"/>
      <point x="74" y="0" type="line"/>
      <point x="193" y="623" type="line"/>
      <point x="504" y="709"/>
      <point x="633" y="950"/>
      <point x="633" y="1212" type="curve" smooth="yes"/>
      <point x="633" y="1354"/>
      <point x="561" y="1483"/>
      <point x="381" y="1483" type="curve" smooth="yes"/>
      <point x="262" y="1483"/>
      <point x="190" y="1438"/>
      <point x="135" y="1395" type="curve"/>
      <point x="164" y="1358" type="line"/>
      <point x="219" y="1401"/>
      <point x="281" y="1432"/>
      <point x="377" y="1432" type="curve" smooth="yes"/>
      <point x="510" y="1432"/>
      <point x="578" y="1343"/>
      <point x="578" y="1204" type="curve" smooth="yes"/>
      <point x="578" y="948"/>
      <point x="449" y="739"/>
      <point x="145" y="659" type="curve"/>
    </contour>
  </outline>
</glyph>
<glyph name="uni0247" format="2">
  <advance width="668"/>
  <unicode hex="0247"/>
  <anchor x="156" y="-297" name="bottom"/>
  <anchor x="520" y="1413" name="top"/>
  <outline>
    <contour>
      <point x="63" y="-297" type="line"/>
      <point x="117" y="-297" type="line"/>
      <point x="205" y="-8" type="line"/>
      <point x="229" y="-16"/>
      <point x="256" y="-20"/>
      <point x="287" y="-20" type="curve" smooth="yes"/>
      <point x="367" y="-20"/>
      <point x="426" y="0"/>
      <point x="469" y="25" type="curve"/>
      <point x="469" y="84" type="line"/>
      <point x="418" y="53"/>
      <point x="360" y="31"/>
      <point x="297" y="31" type="curve" smooth="yes"/>
      <point x="268" y="31"/>
      <point x="242" y="35"/>
      <point x="221" y="43" type="curve"/>
      <point x="371" y="543" type="line"/>
      <point x="565" y="592"/>
      <point x="633" y="774"/>
      <point x="633" y="915" type="curve" smooth="yes"/>
      <point x="633" y="1014"/>
      <point x="596" y="1067"/>
      <point x="539" y="1087" type="curve"/>
      <point x="637" y="1413" type="line"/>
      <point x="584" y="1413" type="line"/>
      <point x="487" y="1098" type="line"/>
      <point x="481" y="1098"/>
      <point x="477" y="1098"/>
      <point x="471" y="1098" type="curve" smooth="yes"/>
      <point x="250" y="1098"/>
      <point x="55" y="727"/>
      <point x="55" y="291" type="curve" smooth="yes"/>
      <point x="55" y="150"/>
      <point x="90" y="59"/>
      <point x="158" y="14" type="curve"/>
    </contour>
    <contour>
      <point x="176" y="72" type="line"/>
      <point x="131" y="113"/>
      <point x="111" y="188"/>
      <point x="111" y="301" type="curve" smooth="yes"/>
      <point x="111" y="381"/>
      <point x="117" y="451"/>
      <point x="129" y="514" type="curve"/>
      <point x="315" y="535" type="line"/>
    </contour>
    <contour>
      <point x="137" y="565" type="line"/>
      <point x="193" y="848"/>
      <point x="332" y="1047"/>
      <point x="473" y="1047" type="curve"/>
      <point x="332" y="588" type="line"/>
      <point x="281" y="578"/>
      <point x="211" y="571"/>
      <point x="162" y="567" type="curve" smooth="yes"/>
    </contour>
    <contour>
      <point x="391" y="606" type="curve"/>
      <point x="522" y="1034" type="line"/>
      <point x="559" y="1016"/>
      <point x="578" y="973"/>
      <point x="578" y="913" type="curve" smooth="yes"/>
      <point x="578" y="803"/>
      <point x="532" y="653"/>
    </contour>
  </outline>
</glyph>
<glyph name="uni024A" format="2">
  <advance width="950"/>
  <unicode hex="024A"/>
  <anchor x="256" y="-492" name="bottom"/>
  <anchor x="672" y="1462" name="top"/>
  <outline>
    <contour>
      <point x="645" y="-492" type="curve" smooth="yes"/>
      <point x="676" y="-492"/>
      <point x="700" y="-485"/>
      <point x="719" y="-479" type="curve"/>
      <point x="719" y="-428" type="line"/>
      <point x="696" y="-436"/>
      <point x="676" y="-440"/>
      <point x="647" y="-440" type="curve" smooth="yes"/>
      <point x="606" y="-440"/>
      <point x="584" y="-420"/>
      <point x="584" y="-375" type="curve" smooth="yes"/>
      <point x="584" y="-346"/>
      <point x="590" y="-311"/>
      <point x="602" y="-258" type="curve" smooth="yes"/>
      <point x="967" y="1462" type="line"/>
      <point x="924" y="1462" type="line"/>
      <point x="874" y="1272" type="line"/>
      <point x="870" y="1272" type="line"/>
      <point x="848" y="1399"/>
      <point x="774" y="1483"/>
      <point x="635" y="1483" type="curve" smooth="yes"/>
      <point x="217" y="1483"/>
      <point x="76" y="735"/>
      <point x="76" y="397" type="curve" smooth="yes"/>
      <point x="76" y="104"/>
      <point x="170" y="-20"/>
      <point x="348" y="-20" type="curve" smooth="yes"/>
      <point x="498" y="-20"/>
      <point x="592" y="86"/>
      <point x="643" y="184" type="curve"/>
      <point x="647" y="184" type="line"/>
      <point x="633" y="129"/>
      <point x="618" y="74"/>
      <point x="604" y="0" type="curve" smooth="yes"/>
      <point x="549" y="-258" type="line" smooth="yes"/>
      <point x="537" y="-311"/>
      <point x="530" y="-350"/>
      <point x="530" y="-379" type="curve" smooth="yes"/>
      <point x="530" y="-453"/>
      <point x="573" y="-492"/>
    </contour>
    <contour>
      <point x="354" y="31" type="curve" smooth="yes"/>
      <point x="217" y="31"/>
      <point x="131" y="125"/>
      <point x="131" y="401" type="curve" smooth="yes"/>
      <point x="131" y="692"/>
      <point x="258" y="1432"/>
      <point x="631" y="1432" type="curve" smooth="yes"/>
      <point x="774" y="1432"/>
      <point x="831" y="1327"/>
      <point x="831" y="1182" type="curve" smooth="yes"/>
      <point x="831" y="1096"/>
      <point x="817" y="1012"/>
      <point x="803" y="944" type="curve" smooth="yes"/>
      <point x="698" y="449" type="line" smooth="yes"/>
      <point x="664" y="283"/>
      <point x="565" y="31"/>
    </contour>
  </outline>
</glyph>
<glyph name="uni024C" format="2">
  <advance width="750"/>
  <unicode hex="024C"/>
  <anchor x="260" y="0" name="bottom"/>
  <anchor x="571" y="1462" name="top"/>
  <outline>
    <contour>
      <point x="6" y="0" type="line"/>
      <point x="59" y="0" type="line"/>
      <point x="199" y="657" type="line"/>
      <point x="373" y="657" type="line"/>
      <point x="487" y="0" type="line"/>
      <point x="543" y="0" type="line"/>
      <point x="426" y="666" type="line"/>
      <point x="639" y="707"/>
      <point x="745" y="928"/>
      <point x="745" y="1165" type="curve" smooth="yes"/>
      <point x="745" y="1364"/>
      <point x="633" y="1462"/>
      <point x="469" y="1462" type="curve" smooth="yes"/>
      <point x="315" y="1462" type="line"/>
      <point x="156" y="709" type="line"/>
      <point x="39" y="709" type="line"/>
      <point x="29" y="657" type="line"/>
      <point x="145" y="657" type="line"/>
    </contour>
    <contour>
      <point x="211" y="709" type="line"/>
      <point x="360" y="1411" type="line"/>
      <point x="451" y="1411" type="line" smooth="yes"/>
      <point x="608" y="1411"/>
      <point x="690" y="1335"/>
      <point x="690" y="1159" type="curve" smooth="yes"/>
      <point x="690" y="961"/>
      <point x="600" y="709"/>
      <point x="356" y="709" type="curve" smooth="yes"/>
    </contour>
  </outline>
</glyph>
<glyph name="uni0256" format="2">
  <advance width="784"/>
  <unicode hex="0256"/>
  <anchor x="174" y="-489" name="bottom"/>
  <anchor x="606" y="1544" name="top"/>
  <anchor x="952" y="1556" name="topright"/>
  <outline>
    <contour>
      <point x="520" y="-489" type="curve" smooth="yes"/>
      <point x="551" y="-489"/>
      <point x="575" y="-483"/>
      <point x="594" y="-477" type="curve"/>
      <point x="594" y="-426" type="line"/>
      <point x="571" y="-434"/>
      <point x="551" y="-438"/>
      <point x="522" y="-438" type="curve" smooth="yes"/>
      <point x="481" y="-438"/>
      <point x="459" y="-418"/>
      <point x="459" y="-373" type="curve" smooth="yes"/>
      <point x="459" y="-344"/>
      <point x="465" y="-309"/>
      <point x="477" y="-256" type="curve" smooth="yes"/>
      <point x="856" y="1544" type="line"/>
      <point x="803" y="1544" type="line"/>
      <point x="717" y="1143" type="line" smooth="yes"/>
      <point x="700" y="1069"/>
      <point x="684" y="985"/>
      <point x="674" y="924" type="curve"/>
      <point x="670" y="924" type="line"/>
      <point x="657" y="1022"/>
      <point x="600" y="1098"/>
      <point x="492" y="1098" type="curve" smooth="yes"/>
      <point x="207" y="1098"/>
      <point x="61" y="602"/>
      <point x="61" y="283" type="curve" smooth="yes"/>
      <point x="61" y="86"/>
      <point x="133" y="-20"/>
      <point x="260" y="-20" type="curve" smooth="yes"/>
      <point x="375" y="-20"/>
      <point x="453" y="61"/>
      <point x="516" y="186" type="curve"/>
      <point x="520" y="186" type="line"/>
      <point x="514" y="160"/>
      <point x="506" y="135"/>
      <point x="496" y="82" type="curve" smooth="yes"/>
      <point x="424" y="-256" type="line" smooth="yes"/>
      <point x="412" y="-309"/>
      <point x="406" y="-348"/>
      <point x="406" y="-377" type="curve" smooth="yes"/>
      <point x="406" y="-451"/>
      <point x="449" y="-489"/>
    </contour>
    <contour>
      <point x="266" y="31" type="curve" smooth="yes"/>
      <point x="178" y="31"/>
      <point x="117" y="104"/>
      <point x="117" y="287" type="curve" smooth="yes"/>
      <point x="117" y="573"/>
      <point x="250" y="1047"/>
      <point x="489" y="1047" type="curve" smooth="yes"/>
      <point x="580" y="1047"/>
      <point x="633" y="975"/>
      <point x="633" y="852" type="curve" smooth="yes"/>
      <point x="633" y="725"/>
      <point x="537" y="31"/>
    </contour>
  </outline>
</glyph>
<glyph name="uni0257" format="2">
  <advance width="776"/>
  <unicode hex="0257"/>
  <anchor x="274" y="0" name="bottom"/>
  <anchor x="608" y="1565" name="top"/>
  <outline>
    <contour>
      <point x="258" y="-20" type="curve" smooth="yes"/>
      <point x="375" y="-20"/>
      <point x="451" y="61"/>
      <point x="514" y="190" type="curve"/>
      <point x="518" y="190" type="line"/>
      <point x="485" y="0" type="line"/>
      <point x="528" y="0" type="line"/>
      <point x="817" y="1372" type="line" smooth="yes"/>
      <point x="838" y="1468"/>
      <point x="872" y="1513"/>
      <point x="961" y="1513" type="curve" smooth="yes"/>
      <point x="989" y="1513"/>
      <point x="1014" y="1507"/>
      <point x="1030" y="1501" type="curve"/>
      <point x="1030" y="1554" type="line"/>
      <point x="1014" y="1561"/>
      <point x="989" y="1565"/>
      <point x="961" y="1565" type="curve" smooth="yes"/>
      <point x="836" y="1565"/>
      <point x="788" y="1491"/>
      <point x="764" y="1374" type="curve" smooth="yes"/>
      <point x="715" y="1143" type="line" smooth="yes"/>
      <point x="698" y="1069"/>
      <point x="684" y="989"/>
      <point x="672" y="924" type="curve"/>
      <point x="666" y="924" type="line"/>
      <point x="651" y="1022"/>
      <point x="596" y="1098"/>
      <point x="489" y="1098" type="curve" smooth="yes"/>
      <point x="205" y="1098"/>
      <point x="59" y="602"/>
      <point x="59" y="283" type="curve" smooth="yes"/>
      <point x="59" y="86"/>
      <point x="131" y="-20"/>
    </contour>
    <contour>
      <point x="264" y="31" type="curve" smooth="yes"/>
      <point x="176" y="31"/>
      <point x="115" y="104"/>
      <point x="115" y="287" type="curve" smooth="yes"/>
      <point x="115" y="573"/>
      <point x="248" y="1047"/>
      <point x="487" y="1047" type="curve" smooth="yes"/>
      <point x="578" y="1047"/>
      <point x="631" y="969"/>
      <point x="631" y="852" type="curve" smooth="yes"/>
      <point x="631" y="705"/>
      <point x="535" y="31"/>
    </contour>
  </outline>
</glyph>
<glyph name="uni0258" format="2">
  <advance width="682"/>
  <unicode hex="0258"/>
  <anchor x="227" y="0" name="bottom"/>
  <anchor x="457" y="1077" name="top"/>
  <outline>
    <contour>
      <point x="170" y="-20" type="curve" smooth="yes"/>
      <point x="500" y="-20"/>
      <point x="606" y="393"/>
      <point x="606" y="674" type="curve" smooth="yes"/>
      <point x="606" y="965"/>
      <point x="528" y="1098"/>
      <point x="377" y="1098" type="curve" smooth="yes"/>
      <point x="219" y="1098"/>
      <point x="147" y="971"/>
      <point x="147" y="811" type="curve" smooth="yes"/>
      <point x="147" y="657"/>
      <point x="240" y="510"/>
      <point x="504" y="510" type="curve" smooth="yes"/>
      <point x="539" y="510" type="line"/>
      <point x="500" y="227"/>
      <point x="381" y="31"/>
      <point x="172" y="31" type="curve" smooth="yes"/>
      <point x="111" y="31"/>
      <point x="47" y="55"/>
      <point x="10" y="84" type="curve"/>
      <point x="10" y="20" type="line"/>
      <point x="45" y="-2"/>
      <point x="98" y="-20"/>
    </contour>
    <contour>
      <point x="545" y="561" type="curve"/>
      <point x="514" y="561" type="line" smooth="yes"/>
      <point x="270" y="561"/>
      <point x="203" y="686"/>
      <point x="203" y="817" type="curve" smooth="yes"/>
      <point x="203" y="944"/>
      <point x="258" y="1047"/>
      <point x="369" y="1047" type="curve" smooth="yes"/>
      <point x="500" y="1047"/>
      <point x="551" y="926"/>
      <point x="551" y="668" type="curve" smooth="yes"/>
      <point x="551" y="625"/>
      <point x="547" y="586"/>
    </contour>
  </outline>
</glyph>
<glyph name="eopenreversedhook" format="2">
  <advance width="729"/>
  <unicode hex="025D"/>
  <anchor x="106" y="-23" name="bottom"/>
  <anchor x="297" y="1098" name="top"/>
  <outline>
    <contour>
      <point x="684" y="618" type="curve" smooth="yes"/>
      <point x="725" y="618"/>
      <point x="764" y="635"/>
      <point x="797" y="655" type="curve"/>
      <point x="778" y="698" type="line"/>
      <point x="752" y="684"/>
      <point x="725" y="670"/>
      <point x="690" y="670" type="curve" smooth="yes"/>
      <point x="629" y="670"/>
      <point x="598" y="717"/>
      <point x="582" y="879" type="curve" smooth="yes"/>
      <point x="573" y="956" type="line"/>
      <point x="436" y="891" type="line"/>
      <point x="457" y="846" type="line"/>
      <point x="530" y="883" type="line"/>
      <point x="549" y="696"/>
      <point x="588" y="618"/>
    </contour>
    <component base="afii10073"/>
  </outline>
</glyph>
<glyph name="uni025E" format="2">
  <advance width="762"/>
  <unicode hex="025E"/>
  <anchor x="266" y="0" name="bottom"/>
  <anchor x="496" y="1077" name="top"/>
  <outline>
    <contour>
      <point x="322" y="-20" type="curve" smooth="yes"/>
      <point x="500" y="-20"/>
      <point x="614" y="150"/>
      <point x="614" y="334" type="curve" smooth="yes"/>
      <point x="614" y="444"/>
      <point x="569" y="526"/>
      <point x="473" y="553" type="curve"/>
      <point x="473" y="557" type="line"/>
      <point x="639" y="582"/>
      <point x="721" y="741"/>
      <point x="721" y="893" type="curve" smooth="yes"/>
      <point x="721" y="1022"/>
      <point x="653" y="1098"/>
      <point x="520" y="1098" type="curve" smooth="yes"/>
      <point x="184" y="1098"/>
      <point x="61" y="616"/>
      <point x="61" y="322" type="curve" smooth="yes"/>
      <point x="61" y="84"/>
      <point x="152" y="-20"/>
    </contour>
    <contour>
      <point x="324" y="31" type="curve" smooth="yes"/>
      <point x="186" y="31"/>
      <point x="117" y="115"/>
      <point x="117" y="328" type="curve" smooth="yes"/>
      <point x="117" y="664"/>
      <point x="262" y="1047"/>
      <point x="514" y="1047" type="curve" smooth="yes"/>
      <point x="616" y="1047"/>
      <point x="666" y="987"/>
      <point x="666" y="891" type="curve" smooth="yes"/>
      <point x="666" y="741"/>
      <point x="592" y="584"/>
      <point x="358" y="584" type="curve" smooth="yes"/>
      <point x="254" y="584" type="line"/>
      <point x="244" y="532" type="line"/>
      <point x="350" y="532" type="line" smooth="yes"/>
      <point x="502" y="532"/>
      <point x="559" y="457"/>
      <point x="559" y="330" type="curve" smooth="yes"/>
      <point x="559" y="184"/>
      <point x="477" y="31"/>
    </contour>
  </outline>
</glyph>
<glyph name="uni025F" format="2">
  <advance width="317"/>
  <unicode hex="025F"/>
  <anchor x="-59" y="-492" name="bottom"/>
  <anchor x="274" y="1077" name="top"/>
  <anchor x="383" y="1077" name="topright"/>
  <outline>
    <contour>
      <point x="-193" y="-492" type="curve" smooth="yes"/>
      <point x="-27" y="-492"/>
      <point x="2" y="-291"/>
      <point x="41" y="-109" type="curve" smooth="yes"/>
      <point x="180" y="543" type="line"/>
      <point x="311" y="543" type="line"/>
      <point x="324" y="594" type="line"/>
      <point x="190" y="594" type="line"/>
      <point x="293" y="1077" type="line"/>
      <point x="242" y="1077" type="line"/>
      <point x="139" y="594" type="line"/>
      <point x="14" y="594" type="line"/>
      <point x="4" y="543" type="line"/>
      <point x="127" y="543" type="line"/>
      <point x="-10" y="-106" type="line" smooth="yes"/>
      <point x="-61" y="-367"/>
      <point x="-86" y="-438"/>
      <point x="-188" y="-438" type="curve" smooth="yes"/>
      <point x="-219" y="-438"/>
      <point x="-244" y="-434"/>
      <point x="-268" y="-426" type="curve"/>
      <point x="-268" y="-483" type="line"/>
      <point x="-250" y="-487"/>
      <point x="-223" y="-492"/>
    </contour>
  </outline>
</glyph>
<glyph name="uni0262" format="2">
  <advance width="635"/>
  <unicode hex="0262"/>
  <anchor x="203" y="0" name="bottom"/>
  <anchor x="432" y="1077" name="top"/>
  <anchor x="702" y="1077" name="topright"/>
  <outline>
    <contour>
      <point x="303" y="-20" type="curve" smooth="yes"/>
      <point x="354" y="-20"/>
      <point x="393" y="-6"/>
      <point x="436" y="10" type="curve"/>
      <point x="547" y="557" type="line"/>
      <point x="326" y="557" type="line"/>
      <point x="315" y="504" type="line"/>
      <point x="481" y="504" type="line"/>
      <point x="389" y="51" type="line"/>
      <point x="367" y="41"/>
      <point x="328" y="37"/>
      <point x="309" y="37" type="curve" smooth="yes"/>
      <point x="180" y="37"/>
      <point x="115" y="115"/>
      <point x="115" y="270" type="curve" smooth="yes"/>
      <point x="115" y="602"/>
      <point x="254" y="1044"/>
      <point x="522" y="1044" type="curve" smooth="yes"/>
      <point x="561" y="1044"/>
      <point x="596" y="1036"/>
      <point x="633" y="1022" type="curve"/>
      <point x="655" y="1075" type="line"/>
      <point x="623" y="1090"/>
      <point x="584" y="1098"/>
      <point x="532" y="1098" type="curve" smooth="yes"/>
      <point x="205" y="1098"/>
      <point x="61" y="614"/>
      <point x="61" y="281" type="curve" smooth="yes"/>
      <point x="61" y="84"/>
      <point x="147" y="-20"/>
    </contour>
  </outline>
</glyph>
<glyph name="uni0263" format="2">
  <advance width="524"/>
  <unicode hex="0263"/>
  <anchor x="43" y="-494" name="bottom"/>
  <anchor x="377" y="1077" name="top"/>
  <outline>
    <contour>
      <point x="57" y="-494" type="curve" smooth="yes"/>
      <point x="160" y="-494"/>
      <point x="211" y="-397"/>
      <point x="211" y="-211" type="curve" smooth="yes"/>
      <point x="211" y="-115"/>
      <point x="201" y="14"/>
      <point x="197" y="109" type="curve"/>
      <point x="623" y="1077" type="line"/>
      <point x="565" y="1077" type="line"/>
      <point x="252" y="352" type="line" smooth="yes"/>
      <point x="240" y="322"/>
      <point x="211" y="258"/>
      <point x="193" y="205" type="curve"/>
      <point x="188" y="205" type="line"/>
      <point x="190" y="256"/>
      <point x="188" y="311"/>
      <point x="186" y="367" type="curve" smooth="yes"/>
      <point x="166" y="1077" type="line"/>
      <point x="115" y="1077" type="line"/>
      <point x="145" y="133" type="line"/>
      <point x="12" y="-111"/>
      <point x="-51" y="-227"/>
      <point x="-51" y="-356" type="curve" smooth="yes"/>
      <point x="-51" y="-440"/>
      <point x="-16" y="-494"/>
    </contour>
    <contour>
      <point x="66" y="-442" type="curve" smooth="yes"/>
      <point x="20" y="-442"/>
      <point x="4" y="-406"/>
      <point x="4" y="-348" type="curve" smooth="yes"/>
      <point x="4" y="-236"/>
      <point x="66" y="-137"/>
      <point x="152" y="45" type="curve"/>
      <point x="154" y="-49"/>
      <point x="158" y="-109"/>
      <point x="158" y="-211" type="curve" smooth="yes"/>
      <point x="158" y="-346"/>
      <point x="129" y="-442"/>
    </contour>
  </outline>
</glyph>
<glyph name="uni0268" format="2">
  <advance width="317"/>
  <unicode hex="0268"/>
  <anchor x="45" y="0" name="bottom"/>
  <anchor x="356" y="1458" name="top"/>
  <outline>
    <contour>
      <point x="12" y="0" type="line"/>
      <point x="66" y="0" type="line"/>
      <point x="180" y="543" type="line"/>
      <point x="305" y="543" type="line"/>
      <point x="315" y="594" type="line"/>
      <point x="193" y="594" type="line"/>
      <point x="295" y="1077" type="line"/>
      <point x="242" y="1077" type="line"/>
      <point x="139" y="594" type="line"/>
      <point x="16" y="594" type="line"/>
      <point x="6" y="543" type="line"/>
      <point x="127" y="543" type="line"/>
    </contour>
    <contour>
      <point x="324" y="1317" type="curve" smooth="yes"/>
      <point x="365" y="1317"/>
      <point x="383" y="1372"/>
      <point x="383" y="1407" type="curve" smooth="yes"/>
      <point x="383" y="1442"/>
      <point x="369" y="1458"/>
      <point x="346" y="1458" type="curve" smooth="yes"/>
      <point x="305" y="1458"/>
      <point x="287" y="1405"/>
      <point x="287" y="1366" type="curve" smooth="yes"/>
      <point x="287" y="1335"/>
      <point x="301" y="1317"/>
    </contour>
  </outline>
</glyph>
<glyph name="uni026D" format="2">
  <advance width="315"/>
  <unicode hex="026D"/>
  <anchor x="-61" y="-492" name="bottom"/>
  <anchor x="375" y="1556" name="top"/>
  <outline>
    <contour>
      <point x="51" y="-492" type="curve" smooth="yes"/>
      <point x="84" y="-492"/>
      <point x="113" y="-483"/>
      <point x="131" y="-477" type="curve"/>
      <point x="131" y="-426" type="line"/>
      <point x="109" y="-434"/>
      <point x="84" y="-440"/>
      <point x="57" y="-440" type="curve" smooth="yes"/>
      <point x="16" y="-440"/>
      <point x="-4" y="-420"/>
      <point x="-4" y="-377" type="curve" smooth="yes"/>
      <point x="-4" y="-348"/>
      <point x="0" y="-324"/>
      <point x="10" y="-279" type="curve" smooth="yes"/>
      <point x="401" y="1556" type="line"/>
      <point x="348" y="1556" type="line"/>
      <point x="-43" y="-279" type="line" smooth="yes"/>
      <point x="-51" y="-319"/>
      <point x="-57" y="-350"/>
      <point x="-57" y="-383" type="curve" smooth="yes"/>
      <point x="-57" y="-453"/>
      <point x="-20" y="-492"/>
    </contour>
  </outline>
</glyph>
<glyph name="uni026E" format="2">
  <advance width="700"/>
  <unicode hex="026E"/>
  <anchor x="131" y="-492" name="bottom"/>
  <anchor x="567" y="1556" name="top"/>
  <outline>
    <contour>
      <point x="172" y="-492" type="curve" smooth="yes"/>
      <point x="451" y="-492"/>
      <point x="553" y="-154"/>
      <point x="553" y="94" type="curve" smooth="yes"/>
      <point x="553" y="297"/>
      <point x="469" y="406"/>
      <point x="303" y="416" type="curve"/>
      <point x="733" y="1024" type="line"/>
      <point x="743" y="1077" type="line"/>
      <point x="293" y="1077" type="line"/>
      <point x="395" y="1556" type="line"/>
      <point x="342" y="1556" type="line"/>
      <point x="10" y="0" type="line"/>
      <point x="63" y="0" type="line"/>
      <point x="283" y="1026" type="line"/>
      <point x="676" y="1026" type="line"/>
      <point x="240" y="408" type="line"/>
      <point x="231" y="365" type="line"/>
      <point x="279" y="365" type="line" smooth="yes"/>
      <point x="428" y="365"/>
      <point x="498" y="272"/>
      <point x="498" y="90" type="curve" smooth="yes"/>
      <point x="498" y="-133"/>
      <point x="412" y="-440"/>
      <point x="176" y="-440" type="curve" smooth="yes"/>
      <point x="100" y="-440"/>
      <point x="45" y="-418"/>
      <point x="0" y="-381" type="curve"/>
      <point x="0" y="-446" type="line"/>
      <point x="33" y="-469"/>
      <point x="92" y="-492"/>
    </contour>
  </outline>
</glyph>
<glyph name="uni0271" format="2">
  <advance width="1116"/>
  <unicode hex="0271"/>
  <anchor x="340" y="-492" name="bottom"/>
  <anchor x="674" y="1077" name="top"/>
  <anchor x="1190" y="1077" name="topright"/>
  <outline>
    <contour>
      <point x="602" y="-492" type="curve" smooth="yes"/>
      <point x="743" y="-492"/>
      <point x="786" y="-385"/>
      <point x="809" y="-274" type="curve" smooth="yes"/>
      <point x="1036" y="788" type="line" smooth="yes"/>
      <point x="1044" y="827"/>
      <point x="1055" y="891"/>
      <point x="1055" y="928" type="curve" smooth="yes"/>
      <point x="1055" y="1044"/>
      <point x="973" y="1098"/>
      <point x="877" y="1098" type="curve" smooth="yes"/>
      <point x="772" y="1098"/>
      <point x="696" y="1042"/>
      <point x="653" y="952" type="curve"/>
      <point x="649" y="952" type="line"/>
      <point x="643" y="1044"/>
      <point x="586" y="1098"/>
      <point x="485" y="1098" type="curve" smooth="yes"/>
      <point x="389" y="1098"/>
      <point x="311" y="1038"/>
      <point x="262" y="932" type="curve"/>
      <point x="258" y="932" type="line"/>
      <point x="285" y="1077" type="line"/>
      <point x="240" y="1077" type="line"/>
      <point x="12" y="0" type="line"/>
      <point x="66" y="0" type="line"/>
      <point x="193" y="596" type="line" smooth="yes"/>
      <point x="246" y="846"/>
      <point x="309" y="1047"/>
      <point x="481" y="1047" type="curve" smooth="yes"/>
      <point x="561" y="1047"/>
      <point x="604" y="1001"/>
      <point x="604" y="924" type="curve" smooth="yes"/>
      <point x="604" y="899"/>
      <point x="602" y="864"/>
      <point x="594" y="829" type="curve" smooth="yes"/>
      <point x="414" y="0" type="line"/>
      <point x="467" y="0" type="line"/>
      <point x="637" y="776" type="line" smooth="yes"/>
      <point x="670" y="922"/>
      <point x="731" y="1047"/>
      <point x="868" y="1047" type="curve" smooth="yes"/>
      <point x="946" y="1047"/>
      <point x="1001" y="1006"/>
      <point x="1001" y="922" type="curve" smooth="yes"/>
      <point x="1001" y="889"/>
      <point x="995" y="848"/>
      <point x="983" y="791" type="curve" smooth="yes"/>
      <point x="756" y="-274" type="line" smooth="yes"/>
      <point x="733" y="-383"/>
      <point x="694" y="-440"/>
      <point x="602" y="-440" type="curve" smooth="yes"/>
      <point x="571" y="-440"/>
      <point x="553" y="-436"/>
      <point x="532" y="-428" type="curve"/>
      <point x="532" y="-483" type="line"/>
      <point x="547" y="-487"/>
      <point x="571" y="-492"/>
    </contour>
  </outline>
</glyph>
<glyph name="uni0273" format="2">
  <advance width="731"/>
  <unicode hex="0273"/>
  <anchor x="147" y="-489" name="bottom"/>
  <anchor x="481" y="1077" name="top"/>
  <anchor x="805" y="1077" name="topright"/>
  <outline>
    <contour>
      <point x="473" y="-489" type="curve" smooth="yes"/>
      <point x="504" y="-489"/>
      <point x="528" y="-483"/>
      <point x="547" y="-477" type="curve"/>
      <point x="547" y="-426" type="line"/>
      <point x="524" y="-434"/>
      <point x="504" y="-438"/>
      <point x="475" y="-438" type="curve" smooth="yes"/>
      <point x="434" y="-438"/>
      <point x="412" y="-418"/>
      <point x="412" y="-373" type="curve" smooth="yes"/>
      <point x="412" y="-344"/>
      <point x="418" y="-309"/>
      <point x="430" y="-256" type="curve" smooth="yes"/>
      <point x="629" y="674" type="line" smooth="yes"/>
      <point x="647" y="758"/>
      <point x="670" y="868"/>
      <point x="670" y="932" type="curve" smooth="yes"/>
      <point x="670" y="1042"/>
      <point x="602" y="1098"/>
      <point x="502" y="1098" type="curve" smooth="yes"/>
      <point x="395" y="1098"/>
      <point x="305" y="1030"/>
      <point x="258" y="918" type="curve"/>
      <point x="254" y="918" type="line"/>
      <point x="283" y="1077" type="line"/>
      <point x="240" y="1077" type="line"/>
      <point x="12" y="0" type="line"/>
      <point x="66" y="0" type="line"/>
      <point x="190" y="588" type="line" smooth="yes"/>
      <point x="254" y="893"/>
      <point x="342" y="1047"/>
      <point x="496" y="1047" type="curve" smooth="yes"/>
      <point x="569" y="1047"/>
      <point x="616" y="1008"/>
      <point x="616" y="928" type="curve" smooth="yes"/>
      <point x="616" y="858"/>
      <point x="596" y="774"/>
      <point x="580" y="694" type="curve" smooth="yes"/>
      <point x="377" y="-256" type="line" smooth="yes"/>
      <point x="365" y="-309"/>
      <point x="358" y="-348"/>
      <point x="358" y="-377" type="curve" smooth="yes"/>
      <point x="358" y="-451"/>
      <point x="401" y="-489"/>
    </contour>
  </outline>
</glyph>
<glyph name="uni027A" format="2">
  <advance width="463"/>
  <unicode hex="027A"/>
  <anchor x="117" y="0" name="bottom"/>
  <anchor x="444" y="1544" name="top"/>
  <outline>
    <contour>
      <point x="-51" y="-20" type="curve" smooth="yes"/>
      <point x="57" y="-20"/>
      <point x="139" y="57"/>
      <point x="193" y="182" type="curve"/>
      <point x="197" y="182" type="line"/>
      <point x="162" y="0" type="line"/>
      <point x="205" y="0" type="line"/>
      <point x="528" y="1544" type="line"/>
      <point x="475" y="1544" type="line"/>
      <point x="256" y="500" type="line" smooth="yes"/>
      <point x="213" y="297"/>
      <point x="135" y="31"/>
      <point x="-51" y="31" type="curve" smooth="yes"/>
      <point x="-76" y="31"/>
      <point x="-96" y="35"/>
      <point x="-111" y="41" type="curve"/>
      <point x="-123" y="-8" type="line"/>
      <point x="-109" y="-14"/>
      <point x="-84" y="-20"/>
    </contour>
  </outline>
</glyph>
<glyph name="uni027B" format="2">
  <advance width="463"/>
  <unicode hex="027B"/>
  <anchor x="12" y="-489" name="bottom"/>
  <anchor x="346" y="1077" name="top"/>
  <outline>
    <contour>
      <point x="195" y="-489" type="curve" smooth="yes"/>
      <point x="225" y="-489"/>
      <point x="250" y="-483"/>
      <point x="268" y="-477" type="curve"/>
      <point x="268" y="-426" type="line"/>
      <point x="246" y="-434"/>
      <point x="225" y="-438"/>
      <point x="197" y="-438" type="curve" smooth="yes"/>
      <point x="156" y="-438"/>
      <point x="133" y="-418"/>
      <point x="133" y="-373" type="curve" smooth="yes"/>
      <point x="133" y="-344"/>
      <point x="141" y="-309"/>
      <point x="152" y="-256" type="curve" smooth="yes"/>
      <point x="432" y="1077" type="line"/>
      <point x="379" y="1077" type="line"/>
      <point x="256" y="500" type="line" smooth="yes"/>
      <point x="213" y="297"/>
      <point x="135" y="31"/>
      <point x="-51" y="31" type="curve" smooth="yes"/>
      <point x="-76" y="31"/>
      <point x="-96" y="35"/>
      <point x="-111" y="41" type="curve"/>
      <point x="-123" y="-8" type="line"/>
      <point x="-109" y="-14"/>
      <point x="-84" y="-20"/>
      <point x="-51" y="-20" type="curve" smooth="yes"/>
      <point x="57" y="-20"/>
      <point x="135" y="53"/>
      <point x="188" y="170" type="curve"/>
      <point x="193" y="170" type="line"/>
      <point x="186" y="141"/>
      <point x="174" y="106"/>
      <point x="164" y="53" type="curve" smooth="yes"/>
      <point x="98" y="-256" type="line" smooth="yes"/>
      <point x="86" y="-309"/>
      <point x="80" y="-348"/>
      <point x="80" y="-377" type="curve" smooth="yes"/>
      <point x="80" y="-451"/>
      <point x="123" y="-489"/>
    </contour>
  </outline>
</glyph>
<glyph name="uni027D" format="2">
  <advance width="477"/>
  <unicode hex="027D"/>
  <anchor x="20" y="-489" name="bottom"/>
  <anchor x="354" y="1077" name="top"/>
  <outline>
    <contour>
      <point x="55" y="-489" type="curve" smooth="yes"/>
      <point x="86" y="-489"/>
      <point x="111" y="-483"/>
      <point x="129" y="-477" type="curve"/>
      <point x="129" y="-426" type="line"/>
      <point x="106" y="-434"/>
      <point x="86" y="-438"/>
      <point x="57" y="-438" type="curve" smooth="yes"/>
      <point x="16" y="-438"/>
      <point x="-6" y="-418"/>
      <point x="-6" y="-373" type="curve" smooth="yes"/>
      <point x="-6" y="-344"/>
      <point x="0" y="-309"/>
      <point x="12" y="-256" type="curve" smooth="yes"/>
      <point x="188" y="578" type="line" smooth="yes"/>
      <point x="231" y="780"/>
      <point x="309" y="1047"/>
      <point x="496" y="1047" type="curve" smooth="yes"/>
      <point x="520" y="1047"/>
      <point x="541" y="1042"/>
      <point x="555" y="1036" type="curve"/>
      <point x="567" y="1085" type="line"/>
      <point x="553" y="1092"/>
      <point x="528" y="1098"/>
      <point x="496" y="1098" type="curve" smooth="yes"/>
      <point x="387" y="1098"/>
      <point x="305" y="1020"/>
      <point x="252" y="895" type="curve"/>
      <point x="248" y="895" type="line"/>
      <point x="283" y="1077" type="line"/>
      <point x="240" y="1077" type="line"/>
      <point x="-41" y="-256" type="line" smooth="yes"/>
      <point x="-53" y="-309"/>
      <point x="-59" y="-348"/>
      <point x="-59" y="-377" type="curve" smooth="yes"/>
      <point x="-59" y="-451"/>
      <point x="-16" y="-489"/>
    </contour>
  </outline>
</glyph>
<glyph name="uni027E" format="2">
  <advance width="457"/>
  <unicode hex="027E"/>
  <anchor x="115" y="0" name="bottom"/>
  <anchor x="344" y="1077" name="top"/>
  <outline>
    <contour>
      <point x="8" y="0" type="line"/>
      <point x="61" y="0" type="line"/>
      <point x="244" y="854" type="line" smooth="yes"/>
      <point x="272" y="989"/>
      <point x="328" y="1047"/>
      <point x="432" y="1047" type="curve" smooth="yes"/>
      <point x="479" y="1047"/>
      <point x="514" y="1034"/>
      <point x="532" y="1024" type="curve"/>
      <point x="545" y="1075" type="line"/>
      <point x="526" y="1085"/>
      <point x="485" y="1098"/>
      <point x="436" y="1098" type="curve" smooth="yes"/>
      <point x="297" y="1098"/>
      <point x="225" y="1026"/>
      <point x="193" y="866" type="curve" smooth="yes"/>
    </contour>
  </outline>
</glyph>
<glyph name="rfishhookreversed" format="2">
  <advance width="356"/>
  <unicode hex="027F"/>
  <anchor x="-41" y="-492" name="bottom"/>
  <anchor x="293" y="1077" name="top"/>
  <outline>
    <contour>
      <point x="-53" y="-492" type="line"/>
      <point x="0" y="-492" type="line"/>
      <point x="293" y="885" type="line" smooth="yes"/>
      <point x="301" y="926"/>
      <point x="307" y="956"/>
      <point x="307" y="989" type="curve" smooth="yes"/>
      <point x="307" y="1059"/>
      <point x="270" y="1098"/>
      <point x="199" y="1098" type="curve" smooth="yes"/>
      <point x="166" y="1098"/>
      <point x="137" y="1090"/>
      <point x="119" y="1083" type="curve"/>
      <point x="119" y="1032" type="line"/>
      <point x="141" y="1040"/>
      <point x="166" y="1047"/>
      <point x="193" y="1047" type="curve" smooth="yes"/>
      <point x="233" y="1047"/>
      <point x="254" y="1026"/>
      <point x="254" y="983" type="curve" smooth="yes"/>
      <point x="254" y="954"/>
      <point x="250" y="930"/>
      <point x="240" y="885" type="curve" smooth="yes"/>
    </contour>
  </outline>
</glyph>
<glyph name="uni0280" format="2">
  <advance width="659"/>
  <unicode hex="0280"/>
  <anchor x="215" y="0" name="bottom"/>
  <anchor x="444" y="1077" name="top"/>
  <outline>
    <contour>
      <point x="14" y="0" type="line"/>
      <point x="68" y="0" type="line"/>
      <point x="168" y="473" type="line"/>
      <point x="332" y="473" type="line"/>
      <point x="446" y="0" type="line"/>
      <point x="500" y="0" type="line"/>
      <point x="385" y="477" type="line"/>
      <point x="516" y="500"/>
      <point x="635" y="612"/>
      <point x="635" y="842" type="curve" smooth="yes"/>
      <point x="635" y="993"/>
      <point x="555" y="1077"/>
      <point x="416" y="1077" type="curve" smooth="yes"/>
      <point x="244" y="1077" type="line"/>
    </contour>
    <contour>
      <point x="180" y="524" type="line"/>
      <point x="287" y="1026" type="line"/>
      <point x="406" y="1026" type="line" smooth="yes"/>
      <point x="524" y="1026"/>
      <point x="580" y="958"/>
      <point x="580" y="836" type="curve" smooth="yes"/>
      <point x="580" y="659"/>
      <point x="500" y="524"/>
      <point x="336" y="524" type="curve" smooth="yes"/>
    </contour>
  </outline>
</glyph>
<glyph name="uni0282" format="2">
  <advance width="561"/>
  <unicode hex="0282"/>
  <anchor x="84" y="-381" name="bottom"/>
  <anchor x="395" y="1077" name="top"/>
  <outline>
    <contour>
      <point x="14" y="-381" type="curve" smooth="yes"/>
      <point x="45" y="-381"/>
      <point x="70" y="-375"/>
      <point x="88" y="-369" type="curve"/>
      <point x="88" y="-317" type="line"/>
      <point x="66" y="-326"/>
      <point x="45" y="-330"/>
      <point x="16" y="-330" type="curve" smooth="yes"/>
      <point x="-25" y="-330"/>
      <point x="-47" y="-309"/>
      <point x="-47" y="-264" type="curve" smooth="yes"/>
      <point x="-47" y="-236"/>
      <point x="-41" y="-201"/>
      <point x="-29" y="-147" type="curve" smooth="yes"/>
      <point x="4" y="6" type="line"/>
      <point x="41" y="-8"/>
      <point x="92" y="-20"/>
      <point x="156" y="-20" type="curve" smooth="yes"/>
      <point x="326" y="-20"/>
      <point x="428" y="82"/>
      <point x="428" y="276" type="curve" smooth="yes"/>
      <point x="428" y="403"/>
      <point x="373" y="467"/>
      <point x="281" y="582" type="curve" smooth="yes"/>
      <point x="209" y="670"/>
      <point x="172" y="739"/>
      <point x="172" y="836" type="curve" smooth="yes"/>
      <point x="172" y="963"/>
      <point x="250" y="1047"/>
      <point x="377" y="1047" type="curve" smooth="yes"/>
      <point x="461" y="1047"/>
      <point x="512" y="1018"/>
      <point x="547" y="993" type="curve"/>
      <point x="580" y="1040" type="line"/>
      <point x="537" y="1067"/>
      <point x="477" y="1098"/>
      <point x="381" y="1098" type="curve" smooth="yes"/>
      <point x="215" y="1098"/>
      <point x="117" y="981"/>
      <point x="117" y="831" type="curve" smooth="yes"/>
      <point x="117" y="705"/>
      <point x="176" y="625"/>
      <point x="244" y="541" type="curve" smooth="yes"/>
      <point x="330" y="434"/>
      <point x="373" y="377"/>
      <point x="373" y="274" type="curve" smooth="yes"/>
      <point x="373" y="119"/>
      <point x="305" y="31"/>
      <point x="156" y="31" type="curve" smooth="yes"/>
      <point x="74" y="31"/>
      <point x="8" y="53"/>
      <point x="-33" y="82" type="curve"/>
      <point x="-82" y="-147" type="line" smooth="yes"/>
      <point x="-94" y="-201"/>
      <point x="-100" y="-240"/>
      <point x="-100" y="-268" type="curve" smooth="yes"/>
      <point x="-100" y="-342"/>
      <point x="-57" y="-381"/>
    </contour>
  </outline>
</glyph>
<glyph name="uni0283" format="2">
  <advance width="315"/>
  <unicode hex="0283"/>
  <anchor x="-61" y="-492" name="bottom"/>
  <anchor x="377" y="1565" name="top"/>
  <outline>
    <contour>
      <point x="-217" y="-492" type="curve" smooth="yes"/>
      <point x="-61" y="-492"/>
      <point x="-18" y="-387"/>
      <point x="25" y="-186" type="curve" smooth="yes"/>
      <point x="350" y="1339" type="line" smooth="yes"/>
      <point x="377" y="1464"/>
      <point x="414" y="1513"/>
      <point x="502" y="1513" type="curve" smooth="yes"/>
      <point x="530" y="1513"/>
      <point x="555" y="1507"/>
      <point x="571" y="1501" type="curve"/>
      <point x="571" y="1554" type="line"/>
      <point x="555" y="1561"/>
      <point x="530" y="1565"/>
      <point x="502" y="1565" type="curve" smooth="yes"/>
      <point x="377" y="1565"/>
      <point x="330" y="1489"/>
      <point x="299" y="1350" type="curve" smooth="yes"/>
      <point x="-29" y="-184" type="line" smooth="yes"/>
      <point x="-68" y="-367"/>
      <point x="-106" y="-440"/>
      <point x="-217" y="-440" type="curve" smooth="yes"/>
      <point x="-248" y="-440"/>
      <point x="-266" y="-436"/>
      <point x="-287" y="-428" type="curve"/>
      <point x="-287" y="-483" type="line"/>
      <point x="-272" y="-487"/>
      <point x="-248" y="-492"/>
    </contour>
  </outline>
</glyph>
<glyph name="uni0288" format="2">
  <advance width="348"/>
  <unicode hex="0288"/>
  <anchor x="-45" y="-492" name="bottom"/>
  <anchor x="344" y="1341" name="top"/>
  <anchor x="485" y="1341" name="topright"/>
  <outline>
    <contour>
      <point x="47" y="-492" type="curve" smooth="yes"/>
      <point x="82" y="-492"/>
      <point x="106" y="-485"/>
      <point x="129" y="-477" type="curve"/>
      <point x="129" y="-428" type="line"/>
      <point x="111" y="-434"/>
      <point x="88" y="-440"/>
      <point x="55" y="-440" type="curve" smooth="yes"/>
      <point x="4" y="-440"/>
      <point x="-18" y="-410"/>
      <point x="-18" y="-356" type="curve" smooth="yes"/>
      <point x="-18" y="-319"/>
      <point x="-10" y="-264"/>
      <point x="6" y="-193" type="curve" smooth="yes"/>
      <point x="268" y="1026" type="line"/>
      <point x="399" y="1026" type="line"/>
      <point x="410" y="1077" type="line"/>
      <point x="279" y="1077" type="line"/>
      <point x="334" y="1341" type="line"/>
      <point x="291" y="1341" type="line"/>
      <point x="223" y="1079" type="line"/>
      <point x="129" y="1073" type="line"/>
      <point x="119" y="1026" type="line"/>
      <point x="215" y="1026" type="line"/>
      <point x="-47" y="-188" type="line" smooth="yes"/>
      <point x="-61" y="-254"/>
      <point x="-72" y="-319"/>
      <point x="-72" y="-362" type="curve" smooth="yes"/>
      <point x="-72" y="-446"/>
      <point x="-27" y="-492"/>
    </contour>
  </outline>
</glyph>
<glyph name="uni028A" format="2">
  <advance width="735"/>
  <unicode hex="028A"/>
  <anchor x="254" y="0" name="bottom"/>
  <anchor x="483" y="1077" name="top"/>
  <outline>
    <contour>
      <point x="260" y="-18" type="curve" smooth="yes"/>
      <point x="543" y="-18"/>
      <point x="666" y="391"/>
      <point x="666" y="729" type="curve" smooth="yes"/>
      <point x="666" y="879"/>
      <point x="629" y="979"/>
      <point x="571" y="1030" type="curve"/>
      <point x="764" y="1030" type="line"/>
      <point x="772" y="1079" type="line"/>
      <point x="512" y="1079" type="line"/>
      <point x="504" y="1032" type="line"/>
      <point x="567" y="993"/>
      <point x="610" y="901"/>
      <point x="610" y="733" type="curve" smooth="yes"/>
      <point x="610" y="436"/>
      <point x="500" y="33"/>
      <point x="264" y="33" type="curve" smooth="yes"/>
      <point x="162" y="33"/>
      <point x="106" y="102"/>
      <point x="106" y="276" type="curve" smooth="yes"/>
      <point x="106" y="637"/>
      <point x="229" y="975"/>
      <point x="420" y="1034" type="curve"/>
      <point x="428" y="1079" type="line"/>
      <point x="166" y="1079" type="line"/>
      <point x="156" y="1030" type="line"/>
      <point x="330" y="1030" type="line"/>
      <point x="186" y="963"/>
      <point x="51" y="670"/>
      <point x="51" y="276" type="curve" smooth="yes"/>
      <point x="51" y="74"/>
      <point x="125" y="-18"/>
    </contour>
  </outline>
</glyph>
<glyph name="uni028B" format="2">
  <advance width="743"/>
  <unicode hex="028B"/>
  <anchor x="258" y="0" name="bottom"/>
  <anchor x="487" y="1077" name="top"/>
  <outline>
    <contour>
      <point x="264" y="-20" type="curve" smooth="yes"/>
      <point x="444" y="-20"/>
      <point x="502" y="106"/>
      <point x="549" y="326" type="curve" smooth="yes"/>
      <point x="668" y="872" type="line" smooth="yes"/>
      <point x="676" y="909"/>
      <point x="682" y="942"/>
      <point x="682" y="973" type="curve" smooth="yes"/>
      <point x="682" y="1053"/>
      <point x="637" y="1098"/>
      <point x="559" y="1098" type="curve" smooth="yes"/>
      <point x="518" y="1098"/>
      <point x="483" y="1085"/>
      <point x="463" y="1077" type="curve"/>
      <point x="469" y="1026" type="line"/>
      <point x="489" y="1038"/>
      <point x="520" y="1047"/>
      <point x="553" y="1047" type="curve" smooth="yes"/>
      <point x="600" y="1047"/>
      <point x="629" y="1016"/>
      <point x="629" y="969" type="curve" smooth="yes"/>
      <point x="629" y="936"/>
      <point x="621" y="905"/>
      <point x="614" y="872" type="curve" smooth="yes"/>
      <point x="496" y="328" type="line" smooth="yes"/>
      <point x="451" y="121"/>
      <point x="403" y="31"/>
      <point x="268" y="31" type="curve" smooth="yes"/>
      <point x="172" y="31"/>
      <point x="119" y="86"/>
      <point x="119" y="193" type="curve" smooth="yes"/>
      <point x="119" y="250"/>
      <point x="127" y="303"/>
      <point x="137" y="352" type="curve" smooth="yes"/>
      <point x="289" y="1077" type="line"/>
      <point x="236" y="1077" type="line"/>
      <point x="84" y="356" type="line" smooth="yes"/>
      <point x="70" y="287"/>
      <point x="63" y="236"/>
      <point x="63" y="190" type="curve" smooth="yes"/>
      <point x="63" y="51"/>
      <point x="137" y="-20"/>
    </contour>
  </outline>
</glyph>
<glyph name="uni0290" format="2">
  <advance width="471"/>
  <unicode hex="0290"/>
  <anchor x="39" y="-389" name="bottom"/>
  <anchor x="350" y="1077" name="top"/>
  <outline>
    <contour>
      <point x="322" y="-389" type="curve" smooth="yes"/>
      <point x="352" y="-389"/>
      <point x="377" y="-383"/>
      <point x="395" y="-377" type="curve"/>
      <point x="395" y="-326" type="line"/>
      <point x="373" y="-334"/>
      <point x="352" y="-338"/>
      <point x="324" y="-338" type="curve" smooth="yes"/>
      <point x="283" y="-338"/>
      <point x="260" y="-317"/>
      <point x="260" y="-272" type="curve" smooth="yes"/>
      <point x="260" y="-244"/>
      <point x="266" y="-209"/>
      <point x="279" y="-156" type="curve" smooth="yes"/>
      <point x="324" y="51" type="line"/>
      <point x="-2" y="51" type="line"/>
      <point x="526" y="1028" type="line"/>
      <point x="537" y="1077" type="line"/>
      <point x="190" y="1077" type="line"/>
      <point x="180" y="1026" type="line"/>
      <point x="471" y="1026" type="line"/>
      <point x="-57" y="49" type="line"/>
      <point x="-68" y="0" type="line"/>
      <point x="258" y="0" type="line"/>
      <point x="225" y="-156" type="line" smooth="yes"/>
      <point x="213" y="-209"/>
      <point x="207" y="-248"/>
      <point x="207" y="-276" type="curve" smooth="yes"/>
      <point x="207" y="-350"/>
      <point x="250" y="-389"/>
    </contour>
  </outline>
</glyph>
<glyph name="cstretched" format="2">
  <advance width="600"/>
  <unicode hex="0297"/>
  <anchor x="82" y="-492" name="bottom"/>
  <anchor x="416" y="1077" name="top"/>
  <outline>
    <contour>
      <point x="254" y="-492" type="curve" smooth="yes"/>
      <point x="305" y="-492"/>
      <point x="350" y="-479"/>
      <point x="387" y="-463" type="curve"/>
      <point x="387" y="-410" type="line"/>
      <point x="346" y="-428"/>
      <point x="307" y="-440"/>
      <point x="260" y="-440" type="curve" smooth="yes"/>
      <point x="152" y="-440"/>
      <point x="57" y="-373"/>
      <point x="57" y="-53" type="curve" smooth="yes"/>
      <point x="57" y="434"/>
      <point x="217" y="1047"/>
      <point x="535" y="1047" type="curve" smooth="yes"/>
      <point x="571" y="1047"/>
      <point x="606" y="1040"/>
      <point x="641" y="1024" type="curve"/>
      <point x="659" y="1075" type="line"/>
      <point x="629" y="1090"/>
      <point x="586" y="1098"/>
      <point x="539" y="1098" type="curve" smooth="yes"/>
      <point x="170" y="1098"/>
      <point x="4" y="471"/>
      <point x="4" y="-57" type="curve" smooth="yes"/>
      <point x="4" y="-403"/>
      <point x="119" y="-492"/>
    </contour>
  </outline>
</glyph>
<glyph name="eopenclosed" format="2">
  <advance width="762"/>
  <unicode hex="029A"/>
  <anchor x="266" y="0" name="bottom"/>
  <anchor x="496" y="1077" name="top"/>
  <outline>
    <contour>
      <point x="254" y="-20" type="curve" smooth="yes"/>
      <point x="592" y="-20"/>
      <point x="705" y="430"/>
      <point x="705" y="756" type="curve" smooth="yes"/>
      <point x="705" y="991"/>
      <point x="616" y="1098"/>
      <point x="457" y="1098" type="curve" smooth="yes"/>
      <point x="258" y="1098"/>
      <point x="158" y="928"/>
      <point x="158" y="780" type="curve" smooth="yes"/>
      <point x="158" y="678"/>
      <point x="203" y="600"/>
      <point x="293" y="571" type="curve"/>
      <point x="293" y="567" type="line"/>
      <point x="135" y="543"/>
      <point x="35" y="403"/>
      <point x="35" y="229" type="curve" smooth="yes"/>
      <point x="35" y="63"/>
      <point x="121" y="-20"/>
    </contour>
    <contour>
      <point x="258" y="31" type="curve" smooth="yes"/>
      <point x="156" y="31"/>
      <point x="90" y="92"/>
      <point x="90" y="231" type="curve" smooth="yes"/>
      <point x="90" y="385"/>
      <point x="168" y="539"/>
      <point x="408" y="539" type="curve" smooth="yes"/>
      <point x="512" y="539" type="line"/>
      <point x="522" y="590" type="line"/>
      <point x="426" y="590" type="line" smooth="yes"/>
      <point x="274" y="590"/>
      <point x="213" y="666"/>
      <point x="213" y="784" type="curve" smooth="yes"/>
      <point x="213" y="901"/>
      <point x="289" y="1047"/>
      <point x="455" y="1047" type="curve" smooth="yes"/>
      <point x="582" y="1047"/>
      <point x="649" y="963"/>
      <point x="649" y="750" type="curve" smooth="yes"/>
      <point x="649" y="438"/>
      <point x="545" y="31"/>
    </contour>
  </outline>
</glyph>
<glyph name="uni029D" format="2">
  <advance width="330"/>
  <unicode hex="029D"/>
  <anchor x="-53" y="-492" name="bottom"/>
  <anchor x="362" y="1458" name="top"/>
  <outline>
    <contour>
      <point x="-152" y="-492" type="curve" smooth="yes"/>
      <point x="-39" y="-492"/>
      <point x="-8" y="-408"/>
      <point x="27" y="-252" type="curve"/>
      <point x="145" y="-252" type="line"/>
      <point x="158" y="-201" type="line"/>
      <point x="37" y="-201" type="line"/>
      <point x="307" y="1077" type="line"/>
      <point x="254" y="1077" type="line"/>
      <point x="-16" y="-201" type="line"/>
      <point x="-72" y="-201" type="line" smooth="yes"/>
      <point x="-211" y="-201"/>
      <point x="-270" y="-268"/>
      <point x="-270" y="-371" type="curve" smooth="yes"/>
      <point x="-270" y="-446"/>
      <point x="-221" y="-492"/>
    </contour>
    <contour>
      <point x="-150" y="-440" type="curve" smooth="yes"/>
      <point x="-188" y="-440"/>
      <point x="-215" y="-418"/>
      <point x="-215" y="-367" type="curve" smooth="yes"/>
      <point x="-215" y="-295"/>
      <point x="-178" y="-252"/>
      <point x="-74" y="-252" type="curve" smooth="yes"/>
      <point x="-27" y="-252" type="line"/>
      <point x="-55" y="-379"/>
      <point x="-72" y="-440"/>
    </contour>
    <contour>
      <point x="336" y="1317" type="curve" smooth="yes"/>
      <point x="377" y="1317"/>
      <point x="395" y="1372"/>
      <point x="395" y="1407" type="curve" smooth="yes"/>
      <point x="395" y="1442"/>
      <point x="381" y="1458"/>
      <point x="358" y="1458" type="curve" smooth="yes"/>
      <point x="317" y="1458"/>
      <point x="299" y="1405"/>
      <point x="299" y="1366" type="curve" smooth="yes"/>
      <point x="299" y="1335"/>
      <point x="313" y="1317"/>
    </contour>
  </outline>
</glyph>
<glyph name="dzlig" format="2">
  <advance width="1059"/>
  <unicode hex="02A3"/>
  <anchor x="416" y="0" name="bottom"/>
  <anchor x="748" y="1556" name="top"/>
  <outline>
    <contour>
      <point x="258" y="-20" type="curve" smooth="yes"/>
      <point x="375" y="-20"/>
      <point x="451" y="61"/>
      <point x="514" y="190" type="curve"/>
      <point x="518" y="190" type="line"/>
      <point x="485" y="0" type="line"/>
      <point x="901" y="0" type="line"/>
      <point x="911" y="51" type="line"/>
      <point x="586" y="51" type="line"/>
      <point x="1114" y="1028" type="line"/>
      <point x="1124" y="1077" type="line"/>
      <point x="756" y="1077" type="line"/>
      <point x="856" y="1556" type="line"/>
      <point x="803" y="1556" type="line"/>
      <point x="715" y="1143" type="line" smooth="yes"/>
      <point x="698" y="1069"/>
      <point x="684" y="989"/>
      <point x="672" y="924" type="curve"/>
      <point x="666" y="924" type="line"/>
      <point x="651" y="1022"/>
      <point x="596" y="1098"/>
      <point x="489" y="1098" type="curve" smooth="yes"/>
      <point x="205" y="1098"/>
      <point x="59" y="602"/>
      <point x="59" y="283" type="curve" smooth="yes"/>
      <point x="59" y="86"/>
      <point x="131" y="-20"/>
    </contour>
    <contour>
      <point x="264" y="31" type="curve" smooth="yes"/>
      <point x="176" y="31"/>
      <point x="115" y="104"/>
      <point x="115" y="287" type="curve" smooth="yes"/>
      <point x="115" y="573"/>
      <point x="248" y="1047"/>
      <point x="487" y="1047" type="curve" smooth="yes"/>
      <point x="578" y="1047"/>
      <point x="631" y="969"/>
      <point x="631" y="852" type="curve" smooth="yes"/>
      <point x="631" y="705"/>
      <point x="535" y="31"/>
    </contour>
    <contour>
      <point x="545" y="74" type="line"/>
      <point x="743" y="1026" type="line"/>
      <point x="1059" y="1026" type="line"/>
    </contour>
  </outline>
</glyph>
<glyph name="tcligcurl" format="2">
  <advance width="854"/>
  <unicode hex="02A8"/>
  <anchor x="313" y="0" name="bottom"/>
  <anchor x="598" y="1341" name="top"/>
  <outline>
    <contour>
      <point x="158" y="-20" type="curve" smooth="yes"/>
      <point x="248" y="-20"/>
      <point x="303" y="23"/>
      <point x="377" y="109" type="curve"/>
      <point x="410" y="29"/>
      <point x="471" y="-18"/>
      <point x="573" y="-18" type="curve" smooth="yes"/>
      <point x="713" y="-18"/>
      <point x="801" y="76"/>
      <point x="801" y="186" type="curve" smooth="yes"/>
      <point x="801" y="289"/>
      <point x="737" y="350"/>
      <point x="641" y="350" type="curve" smooth="yes"/>
      <point x="526" y="350"/>
      <point x="446" y="266"/>
      <point x="403" y="213" type="curve"/>
      <point x="401" y="231"/>
      <point x="399" y="262"/>
      <point x="399" y="305" type="curve" smooth="yes"/>
      <point x="399" y="616"/>
      <point x="535" y="1047"/>
      <point x="772" y="1047" type="curve" smooth="yes"/>
      <point x="809" y="1047"/>
      <point x="844" y="1040"/>
      <point x="877" y="1024" type="curve"/>
      <point x="895" y="1075" type="line"/>
      <point x="864" y="1090"/>
      <point x="819" y="1098"/>
      <point x="772" y="1098" type="curve" smooth="yes"/>
      <point x="483" y="1098"/>
      <point x="346" y="621"/>
      <point x="346" y="301" type="curve" smooth="yes"/>
      <point x="346" y="250"/>
      <point x="350" y="203"/>
      <point x="360" y="162" type="curve"/>
      <point x="283" y="68"/>
      <point x="233" y="31"/>
      <point x="166" y="31" type="curve" smooth="yes"/>
      <point x="106" y="31"/>
      <point x="84" y="61"/>
      <point x="84" y="115" type="curve" smooth="yes"/>
      <point x="84" y="152"/>
      <point x="94" y="207"/>
      <point x="109" y="279" type="curve" smooth="yes"/>
      <point x="268" y="1026" type="line"/>
      <point x="399" y="1026" type="line"/>
      <point x="410" y="1077" type="line"/>
      <point x="279" y="1077" type="line"/>
      <point x="334" y="1341" type="line"/>
      <point x="291" y="1341" type="line"/>
      <point x="223" y="1079" type="line"/>
      <point x="129" y="1073" type="line"/>
      <point x="119" y="1026" type="line"/>
      <point x="215" y="1026" type="line"/>
      <point x="55" y="283" type="line" smooth="yes"/>
      <point x="41" y="217"/>
      <point x="31" y="152"/>
      <point x="31" y="109" type="curve" smooth="yes"/>
      <point x="31" y="25"/>
      <point x="76" y="-20"/>
    </contour>
    <contour>
      <point x="575" y="33" type="curve" smooth="yes"/>
      <point x="483" y="33"/>
      <point x="432" y="80"/>
      <point x="416" y="154" type="curve"/>
      <point x="467" y="217"/>
      <point x="539" y="299"/>
      <point x="637" y="299" type="curve" smooth="yes"/>
      <point x="709" y="299"/>
      <point x="745" y="248"/>
      <point x="745" y="182" type="curve" smooth="yes"/>
      <point x="745" y="102"/>
      <point x="690" y="33"/>
    </contour>
  </outline>
</glyph>
<glyph name="uni02AE" format="2">
  <advance width="774"/>
  <unicode hex="02AE"/>
  <anchor x="170" y="-479" name="bottom"/>
  <anchor x="502" y="1077" name="top"/>
  <outline>
    <contour>
      <point x="336" y="-479" type="line"/>
      <point x="389" y="-479" type="line"/>
      <point x="719" y="1077" type="line"/>
      <point x="666" y="1077" type="line"/>
      <point x="541" y="489" type="line" smooth="yes"/>
      <point x="477" y="184"/>
      <point x="389" y="31"/>
      <point x="236" y="31" type="curve" smooth="yes"/>
      <point x="162" y="31"/>
      <point x="115" y="70"/>
      <point x="115" y="150" type="curve" smooth="yes"/>
      <point x="115" y="219"/>
      <point x="135" y="303"/>
      <point x="152" y="383" type="curve" smooth="yes"/>
      <point x="258" y="885" type="line" smooth="yes"/>
      <point x="266" y="926"/>
      <point x="272" y="956"/>
      <point x="272" y="989" type="curve" smooth="yes"/>
      <point x="272" y="1059"/>
      <point x="236" y="1098"/>
      <point x="164" y="1098" type="curve" smooth="yes"/>
      <point x="131" y="1098"/>
      <point x="102" y="1090"/>
      <point x="84" y="1083" type="curve"/>
      <point x="84" y="1032" type="line"/>
      <point x="106" y="1040"/>
      <point x="131" y="1047"/>
      <point x="158" y="1047" type="curve" smooth="yes"/>
      <point x="199" y="1047"/>
      <point x="219" y="1026"/>
      <point x="219" y="983" type="curve" smooth="yes"/>
      <point x="219" y="954"/>
      <point x="215" y="930"/>
      <point x="205" y="885" type="curve" smooth="yes"/>
      <point x="102" y="403" type="line" smooth="yes"/>
      <point x="84" y="319"/>
      <point x="61" y="209"/>
      <point x="61" y="145" type="curve" smooth="yes"/>
      <point x="61" y="35"/>
      <point x="129" y="-20"/>
      <point x="229" y="-20" type="curve" smooth="yes"/>
      <point x="336" y="-20"/>
      <point x="426" y="47"/>
      <point x="473" y="160" type="curve"/>
      <point x="477" y="160" type="line"/>
      <point x="465" y="109"/>
      <point x="453" y="57"/>
      <point x="442" y="6" type="curve" smooth="yes"/>
    </contour>
  </outline>
</glyph>
<glyph name="uni02BE" format="2">
  <advance width="330"/>
  <unicode hex="02BE"/>
  <outline>
    <contour>
      <point x="203" y="1178" type="line"/>
      <point x="334" y="1178"/>
      <point x="451" y="1268"/>
      <point x="451" y="1421" type="curve" smooth="yes"/>
      <point x="451" y="1542"/>
      <point x="365" y="1599"/>
      <point x="289" y="1599" type="curve"/>
      <point x="276" y="1552" type="line"/>
      <point x="358" y="1552"/>
      <point x="401" y="1509"/>
      <point x="401" y="1423" type="curve" smooth="yes"/>
      <point x="401" y="1290"/>
      <point x="315" y="1225"/>
      <point x="211" y="1225" type="curve"/>
    </contour>
  </outline>
</glyph>
<glyph name="uni02BF" format="2">
  <advance width="332"/>
  <unicode hex="02BF"/>
  <outline>
    <contour>
      <point x="403" y="1176" type="curve"/>
      <point x="416" y="1223" type="line"/>
      <point x="334" y="1223"/>
      <point x="291" y="1266"/>
      <point x="291" y="1354" type="curve" smooth="yes"/>
      <point x="291" y="1485"/>
      <point x="377" y="1552"/>
      <point x="481" y="1552" type="curve"/>
      <point x="489" y="1597" type="line"/>
      <point x="358" y="1597"/>
      <point x="242" y="1507"/>
      <point x="242" y="1354" type="curve" smooth="yes"/>
      <point x="242" y="1235"/>
      <point x="328" y="1176"/>
    </contour>
  </outline>
</glyph>
<glyph name="uni02C0" format="2">
  <advance width="395"/>
  <unicode hex="02C0"/>
  <outline>
    <contour>
      <point x="246" y="1096" type="line"/>
      <point x="295" y="1096" type="line"/>
      <point x="313" y="1186" type="line"/>
      <point x="453" y="1210"/>
      <point x="539" y="1284"/>
      <point x="539" y="1409" type="curve" smooth="yes"/>
      <point x="539" y="1499"/>
      <point x="487" y="1569"/>
      <point x="369" y="1569" type="curve" smooth="yes"/>
      <point x="301" y="1569"/>
      <point x="252" y="1544"/>
      <point x="215" y="1518" type="curve"/>
      <point x="221" y="1462" type="line"/>
      <point x="262" y="1495"/>
      <point x="305" y="1518"/>
      <point x="369" y="1518" type="curve" smooth="yes"/>
      <point x="451" y="1518"/>
      <point x="487" y="1468"/>
      <point x="487" y="1405" type="curve" smooth="yes"/>
      <point x="487" y="1294"/>
      <point x="391" y="1239"/>
      <point x="272" y="1229" type="curve"/>
    </contour>
  </outline>
</glyph>
<glyph name="macron" format="2">
  <advance width="602"/>
  <unicode hex="02C9"/>
  <outline>
    <contour>
      <point x="233" y="1253" type="line"/>
      <point x="670" y="1253" type="line"/>
      <point x="682" y="1305" type="line"/>
      <point x="244" y="1305" type="line"/>
    </contour>
  </outline>
</glyph>
<glyph name="uni02CC" format="2">
  <advance width="219"/>
  <unicode hex="02CC"/>
  <outline>
    <contour>
      <point x="-123" y="-422" type="line"/>
      <point x="-70" y="-422" type="line"/>
      <point x="47" y="115" type="line"/>
      <point x="-6" y="115" type="line"/>
    </contour>
  </outline>
</glyph>
<glyph name="uni02D0" format="2">
  <advance width="483"/>
  <unicode hex="02D0"/>
  <outline>
    <contour>
      <point x="289" y="840" type="line"/>
      <point x="457" y="1077" type="line"/>
      <point x="221" y="1077" type="line"/>
    </contour>
    <contour>
      <point x="20" y="0" type="line"/>
      <point x="254" y="0" type="line"/>
      <point x="186" y="236" type="line"/>
    </contour>
  </outline>
</glyph>
<glyph name="uni02D7" format="2">
  <advance width="510"/>
  <unicode hex="02D7"/>
  <outline>
    <contour>
      <point x="129" y="659" type="line"/>
      <point x="115" y="580" type="line"/>
      <point x="416" y="580" type="line"/>
      <point x="430" y="659" type="line"/>
    </contour>
  </outline>
</glyph>
<glyph name="breve" format="2">
  <advance width="569"/>
  <unicode hex="02D8"/>
  <outline>
    <contour>
      <point x="461" y="1245" type="curve" smooth="yes"/>
      <point x="602" y="1245"/>
      <point x="662" y="1317"/>
      <point x="682" y="1454" type="curve"/>
      <point x="639" y="1454" type="line"/>
      <point x="621" y="1335"/>
      <point x="571" y="1294"/>
      <point x="461" y="1294" type="curve" smooth="yes"/>
      <point x="344" y="1294"/>
      <point x="317" y="1356"/>
      <point x="317" y="1454" type="curve"/>
      <point x="276" y="1454" type="line"/>
      <point x="276" y="1448"/>
      <point x="276" y="1440"/>
      <point x="276" y="1425" type="curve" smooth="yes"/>
      <point x="276" y="1329"/>
      <point x="317" y="1245"/>
    </contour>
  </outline>
</glyph>
<glyph name="dotaccent" format="2">
  <advance width="256"/>
  <unicode hex="02D9"/>
  <outline>
    <contour>
      <point x="297" y="1317" type="curve" smooth="yes"/>
      <point x="338" y="1317"/>
      <point x="356" y="1372"/>
      <point x="356" y="1407" type="curve" smooth="yes"/>
      <point x="356" y="1442"/>
      <point x="342" y="1458"/>
      <point x="319" y="1458" type="curve" smooth="yes"/>
      <point x="279" y="1458"/>
      <point x="260" y="1405"/>
      <point x="260" y="1366" type="curve" smooth="yes"/>
      <point x="260" y="1335"/>
      <point x="274" y="1317"/>
    </contour>
  </outline>
</glyph>
<glyph name="uni02EF" format="2">
  <advance width="547"/>
  <unicode hex="02EF"/>
  <outline>
    <contour>
      <point x="49" y="-426" type="line"/>
      <point x="86" y="-426" type="line"/>
      <point x="334" y="-74" type="line"/>
      <point x="270" y="-74" type="line"/>
      <point x="80" y="-348" type="line"/>
      <point x="6" y="-74" type="line"/>
      <point x="-49" y="-74" type="line"/>
    </contour>
  </outline>
</glyph>
<glyph name="uni02F2" format="2">
  <advance width="455"/>
  <unicode hex="02F2"/>
  <outline>
    <contour>
      <point x="-125" y="-438" type="line"/>
      <point x="205" y="-248" type="line"/>
      <point x="215" y="-197" type="line"/>
      <point x="-31" y="-6" type="line"/>
      <point x="-45" y="-76" type="line"/>
      <point x="137" y="-217" type="line"/>
      <point x="-104" y="-356" type="line"/>
    </contour>
  </outline>
</glyph>
<glyph name="uni02FF" format="2">
  <advance width="717"/>
  <unicode hex="02FF"/>
  <outline>
    <contour>
      <point x="219" y="-426" type="line"/>
      <point x="219" y="-344" type="line"/>
      <point x="45" y="-203" type="line"/>
      <point x="477" y="-203" type="line"/>
      <point x="477" y="-133" type="line"/>
      <point x="45" y="-133" type="line"/>
      <point x="219" y="6" type="line"/>
      <point x="219" y="88" type="line"/>
      <point x="-63" y="-143" type="line"/>
      <point x="-63" y="-193" type="line"/>
    </contour>
  </outline>
</glyph>
<glyph name="breveinvertedcomb" format="2">
  <unicode hex="0311"/>
  <anchor x="94" y="1077" name="_top"/>
  <anchor x="170" y="1438" name="top"/>
  <outline>
    <contour>
      <point x="-51" y="1255" type="curve"/>
      <point x="-8" y="1255" type="line"/>
      <point x="8" y="1346"/>
      <point x="59" y="1389"/>
      <point x="170" y="1389" type="curve" smooth="yes"/>
      <point x="287" y="1389"/>
      <point x="313" y="1329"/>
      <point x="313" y="1255" type="curve"/>
      <point x="354" y="1255" type="line"/>
      <point x="354" y="1262"/>
      <point x="354" y="1270"/>
      <point x="354" y="1284" type="curve" smooth="yes"/>
      <point x="354" y="1356"/>
      <point x="313" y="1438"/>
      <point x="170" y="1438" type="curve" smooth="yes"/>
      <point x="29" y="1438"/>
      <point x="-33" y="1364"/>
    </contour>
  </outline>
</glyph>
<glyph name="horncomb" format="2">
  <unicode hex="031B"/>
  <anchor x="174" y="1214" name="_topright"/>
  <outline>
    <contour>
      <point x="16" y="1163" type="line"/>
      <point x="197" y="1204"/>
      <point x="281" y="1333"/>
      <point x="326" y="1532" type="curve"/>
      <point x="319" y="1554" type="line"/>
      <point x="270" y="1554" type="line"/>
      <point x="223" y="1331"/>
      <point x="147" y="1239"/>
      <point x="25" y="1214" type="curve"/>
    </contour>
  </outline>
</glyph>
<glyph name="plusbelowcomb" format="2">
  <unicode hex="031F"/>
  <anchor x="-115" y="0" name="_bottom"/>
  <anchor x="-199" y="-403" name="bottom"/>
  <outline>
    <contour>
      <point x="-242" y="-403" type="line"/>
      <point x="-158" y="-403" type="line"/>
      <point x="-131" y="-281" type="line"/>
      <point x="-39" y="-281" type="line"/>
      <point x="-23" y="-201" type="line"/>
      <point x="-117" y="-201" type="line"/>
      <point x="-90" y="-78" type="line"/>
      <point x="-174" y="-78" type="line"/>
      <point x="-201" y="-201" type="line"/>
      <point x="-293" y="-201" type="line"/>
      <point x="-307" y="-281" type="line"/>
      <point x="-215" y="-281" type="line"/>
    </contour>
  </outline>
</glyph>
<glyph name="hookpalatalizedbelowcomb" format="2">
  <unicode hex="0321"/>
  <anchor x="-221" y="0" name="_bottom"/>
  <anchor x="-299" y="-369" name="bottom"/>
  <outline>
    <contour>
      <point x="-330" y="-369" type="curve" smooth="yes"/>
      <point x="-242" y="-369"/>
      <point x="-182" y="-313"/>
      <point x="-158" y="-205" type="curve" smooth="yes"/>
      <point x="-98" y="59" type="line"/>
      <point x="-152" y="59" type="line"/>
      <point x="-209" y="-195" type="line" smooth="yes"/>
      <point x="-231" y="-293"/>
      <point x="-274" y="-317"/>
      <point x="-328" y="-317" type="curve" smooth="yes"/>
      <point x="-354" y="-317"/>
      <point x="-379" y="-313"/>
      <point x="-410" y="-301" type="curve"/>
      <point x="-410" y="-354" type="line"/>
      <point x="-385" y="-365"/>
      <point x="-358" y="-369"/>
    </contour>
  </outline>
</glyph>
<glyph name="hookretroflexbelowcomb" format="2">
  <unicode hex="0322"/>
  <anchor x="-27" y="0" name="_bottom"/>
  <anchor x="-104" y="-369" name="bottom"/>
  <outline>
    <contour>
      <point x="-51" y="-369" type="curve" smooth="yes"/>
      <point x="-16" y="-369"/>
      <point x="18" y="-360"/>
      <point x="41" y="-352" type="curve"/>
      <point x="41" y="-301" type="line"/>
      <point x="18" y="-311"/>
      <point x="-12" y="-317"/>
      <point x="-45" y="-317" type="curve" smooth="yes"/>
      <point x="-86" y="-317"/>
      <point x="-106" y="-295"/>
      <point x="-106" y="-258" type="curve" smooth="yes"/>
      <point x="-106" y="-229"/>
      <point x="-100" y="-195"/>
      <point x="-96" y="-170" type="curve" smooth="yes"/>
      <point x="-51" y="57" type="line"/>
      <point x="-104" y="57" type="line"/>
      <point x="-150" y="-170" type="line" smooth="yes"/>
      <point x="-156" y="-199"/>
      <point x="-160" y="-229"/>
      <point x="-160" y="-262" type="curve" smooth="yes"/>
      <point x="-160" y="-330"/>
      <point x="-117" y="-369"/>
    </contour>
  </outline>
</glyph>
<glyph name="commaaccentcomb" format="2">
  <unicode hex="0326"/>
  <anchor x="434" y="0" name="_bottom"/>
  <anchor x="338" y="-453" name="bottom"/>
  <outline>
    <contour>
      <point x="256" y="-453" type="line"/>
      <point x="276" y="-453" type="line"/>
      <point x="352" y="-381"/>
      <point x="455" y="-233"/>
      <point x="489" y="-147" type="curve"/>
      <point x="489" y="-125" type="line"/>
      <point x="436" y="-125" type="line"/>
      <point x="406" y="-217"/>
      <point x="313" y="-367"/>
      <point x="256" y="-422" type="curve"/>
    </contour>
  </outline>
</glyph>
<glyph name="strokelongoverlaycomb" format="2">
  <unicode hex="0336"/>
  <anchor x="6" y="571" name="_center"/>
  <outline>
    <contour>
      <point x="-641" y="545" type="line"/>
      <point x="643" y="545" type="line"/>
      <point x="651" y="596" type="line"/>
      <point x="-631" y="596" type="line"/>
    </contour>
  </outline>
</glyph>
<glyph name="seagullbelowcomb" format="2">
  <unicode hex="033C"/>
  <anchor x="-137" y="0" name="_bottom"/>
  <anchor x="-209" y="-332" name="bottom"/>
  <outline>
    <contour>
      <point x="-430" y="-332" type="curve"/>
      <point x="-377" y="-332" type="line"/>
      <point x="-358" y="-242"/>
      <point x="-326" y="-186"/>
      <point x="-270" y="-186" type="curve" smooth="yes"/>
      <point x="-199" y="-186"/>
      <point x="-205" y="-258"/>
      <point x="-219" y="-332" type="curve"/>
      <point x="-162" y="-332" type="line"/>
      <point x="-141" y="-240"/>
      <point x="-111" y="-186"/>
      <point x="-55" y="-186" type="curve" smooth="yes"/>
      <point x="10" y="-186"/>
      <point x="8" y="-258"/>
      <point x="-6" y="-332" type="curve"/>
      <point x="47" y="-332" type="line"/>
      <point x="51" y="-299"/>
      <point x="55" y="-264"/>
      <point x="55" y="-242" type="curve" smooth="yes"/>
      <point x="55" y="-178"/>
      <point x="18" y="-135"/>
      <point x="-43" y="-135" type="curve" smooth="yes"/>
      <point x="-94" y="-135"/>
      <point x="-137" y="-154"/>
      <point x="-172" y="-221" type="curve"/>
      <point x="-178" y="-170"/>
      <point x="-209" y="-135"/>
      <point x="-266" y="-135" type="curve" smooth="yes"/>
      <point x="-350" y="-135"/>
      <point x="-401" y="-195"/>
    </contour>
  </outline>
</glyph>
<glyph name="tildeverticalcomb" format="2">
  <unicode hex="033E"/>
  <anchor x="115" y="1077" name="_top"/>
  <anchor x="262" y="1774" name="top"/>
  <outline>
    <contour>
      <point x="61" y="1180" type="line"/>
      <point x="164" y="1194"/>
      <point x="236" y="1253"/>
      <point x="258" y="1360" type="curve" smooth="yes"/>
      <point x="283" y="1479"/>
      <point x="193" y="1522"/>
      <point x="209" y="1604" type="curve" smooth="yes"/>
      <point x="221" y="1667"/>
      <point x="246" y="1694"/>
      <point x="322" y="1706" type="curve"/>
      <point x="338" y="1774" type="line"/>
      <point x="229" y="1759"/>
      <point x="162" y="1702"/>
      <point x="141" y="1602" type="curve"/>
      <point x="117" y="1485"/>
      <point x="209" y="1446"/>
      <point x="190" y="1354" type="curve" smooth="yes"/>
      <point x="180" y="1296"/>
      <point x="154" y="1255"/>
      <point x="74" y="1241" type="curve"/>
    </contour>
  </outline>
</glyph>
<glyph name="arrowupbelowcomb" format="2">
  <unicode hex="034E"/>
  <anchor x="-115" y="0" name="_bottom"/>
  <anchor x="-209" y="-442" name="bottom"/>
  <outline>
    <contour>
      <point x="-231" y="-442" type="line"/>
      <point x="-186" y="-442" type="line"/>
      <point x="-150" y="-262" type="line"/>
      <point x="-86" y="-262" type="line"/>
      <point x="-133" y="-88" type="line"/>
      <point x="-256" y="-262" type="line"/>
      <point x="-195" y="-262" type="line"/>
    </contour>
  </outline>
</glyph>
<glyph name="fermatacomb" format="2">
  <unicode hex="0352"/>
  <anchor x="115" y="1077" name="_top"/>
  <anchor x="229" y="1620" name="top"/>
  <outline>
    <contour>
      <point x="6" y="1407" type="curve"/>
      <point x="59" y="1407" type="line"/>
      <point x="80" y="1518"/>
      <point x="133" y="1561"/>
      <point x="201" y="1561" type="curve" smooth="yes"/>
      <point x="272" y="1561"/>
      <point x="322" y="1528"/>
      <point x="322" y="1407" type="curve"/>
      <point x="371" y="1407" type="line"/>
      <point x="381" y="1522"/>
      <point x="330" y="1620"/>
      <point x="209" y="1620" type="curve" smooth="yes"/>
      <point x="90" y="1620"/>
      <point x="27" y="1538"/>
    </contour>
    <contour>
      <point x="152" y="1239" type="curve" smooth="yes"/>
      <point x="193" y="1239"/>
      <point x="225" y="1286"/>
      <point x="225" y="1341" type="curve" smooth="yes"/>
      <point x="225" y="1378"/>
      <point x="211" y="1397"/>
      <point x="184" y="1397" type="curve" smooth="yes"/>
      <point x="143" y="1397"/>
      <point x="113" y="1346"/>
      <point x="113" y="1288" type="curve" smooth="yes"/>
      <point x="113" y="1255"/>
      <point x="127" y="1239"/>
    </contour>
  </outline>
</glyph>
<glyph name="asteriskbelowcomb" format="2">
  <unicode hex="0359"/>
  <anchor x="-115" y="0" name="_bottom"/>
  <anchor x="-209" y="-449" name="bottom"/>
  <outline>
    <contour>
      <point x="-225" y="-449" type="line"/>
      <point x="-172" y="-336" type="line"/>
      <point x="-125" y="-449" type="line"/>
      <point x="-29" y="-379" type="line"/>
      <point x="-127" y="-303" type="line"/>
      <point x="0" y="-287" type="line"/>
      <point x="-37" y="-182" type="line"/>
      <point x="-143" y="-248" type="line"/>
      <point x="-121" y="-127" type="line"/>
      <point x="-227" y="-127" type="line"/>
      <point x="-205" y="-248" type="line"/>
      <point x="-309" y="-182" type="line"/>
      <point x="-350" y="-287" type="line"/>
      <point x="-219" y="-303" type="line"/>
      <point x="-317" y="-379" type="line"/>
    </contour>
  </outline>
</glyph>
<glyph name="doubleringbelowcomb" format="2">
  <unicode hex="035A"/>
  <anchor x="-119" y="0" name="_bottom"/>
  <anchor x="-221" y="-483" name="bottom"/>
  <outline>
    <contour>
      <point x="-354" y="-483" type="curve" smooth="yes"/>
      <point x="-264" y="-483"/>
      <point x="-207" y="-444"/>
      <point x="-178" y="-375" type="curve"/>
      <point x="-150" y="-444"/>
      <point x="-92" y="-483"/>
      <point x="-4" y="-483" type="curve" smooth="yes"/>
      <point x="123" y="-483"/>
      <point x="201" y="-401"/>
      <point x="201" y="-276" type="curve" smooth="yes"/>
      <point x="201" y="-158"/>
      <point x="119" y="-74"/>
      <point x="-4" y="-74" type="curve" smooth="yes"/>
      <point x="-88" y="-74"/>
      <point x="-150" y="-115"/>
      <point x="-178" y="-178" type="curve"/>
      <point x="-207" y="-115"/>
      <point x="-268" y="-74"/>
      <point x="-354" y="-74" type="curve" smooth="yes"/>
      <point x="-477" y="-74"/>
      <point x="-557" y="-158"/>
      <point x="-557" y="-276" type="curve" smooth="yes"/>
      <point x="-557" y="-399"/>
      <point x="-479" y="-483"/>
    </contour>
    <contour>
      <point x="-352" y="-434" type="curve" smooth="yes"/>
      <point x="-444" y="-434"/>
      <point x="-506" y="-373"/>
      <point x="-506" y="-276" type="curve" smooth="yes"/>
      <point x="-506" y="-184"/>
      <point x="-442" y="-123"/>
      <point x="-352" y="-123" type="curve" smooth="yes"/>
      <point x="-264" y="-123"/>
      <point x="-201" y="-186"/>
      <point x="-201" y="-276" type="curve" smooth="yes"/>
      <point x="-201" y="-373"/>
      <point x="-260" y="-434"/>
    </contour>
    <contour>
      <point x="-2" y="-434" type="curve" smooth="yes"/>
      <point x="-94" y="-434"/>
      <point x="-154" y="-373"/>
      <point x="-154" y="-276" type="curve" smooth="yes"/>
      <point x="-154" y="-184"/>
      <point x="-92" y="-123"/>
      <point x="-2" y="-123" type="curve" smooth="yes"/>
      <point x="86" y="-123"/>
      <point x="150" y="-186"/>
      <point x="150" y="-276" type="curve" smooth="yes"/>
      <point x="150" y="-373"/>
      <point x="90" y="-434"/>
    </contour>
  </outline>
</glyph>
<glyph name="breveinverteddoublecomb" format="2">
  <unicode hex="0361"/>
  <anchor x="-256" y="1184" name="_top"/>
  <anchor x="227" y="1694" name="top"/>
  <outline>
    <contour>
      <point x="-307" y="1331" type="curve"/>
      <point x="-256" y="1331" type="line"/>
      <point x="-166" y="1559"/>
      <point x="35" y="1638"/>
      <point x="244" y="1638" type="curve" smooth="yes"/>
      <point x="514" y="1638"/>
      <point x="618" y="1497"/>
      <point x="635" y="1331" type="curve"/>
      <point x="684" y="1331" type="line"/>
      <point x="668" y="1542"/>
      <point x="537" y="1694"/>
      <point x="250" y="1694" type="curve" smooth="yes"/>
      <point x="12" y="1694"/>
      <point x="-203" y="1606"/>
    </contour>
  </outline>
</glyph>
<glyph name="tonos" format="2">
  <advance width="1112"/>
  <unicode hex="0384"/>
  <anchor x="594" y="1077" name="_top"/>
  <outline>
    <contour>
      <point x="537" y="1241" type="line"/>
      <point x="563" y="1241" type="line"/>
      <point x="610" y="1305"/>
      <point x="764" y="1536"/>
      <point x="797" y="1597" type="curve"/>
      <point x="801" y="1618" type="line"/>
      <point x="723" y="1618" type="line"/>
      <point x="684" y="1518"/>
      <point x="596" y="1354"/>
      <point x="541" y="1260" type="curve"/>
    </contour>
  </outline>
</glyph>
<glyph name="Gamma" format="2">
  <advance width="553"/>
  <unicode hex="0393"/>
  <anchor x="162" y="0" name="bottom"/>
  <anchor x="473" y="1462" name="top"/>
  <outline>
    <contour>
      <point x="4" y="0" type="line"/>
      <point x="57" y="0" type="line"/>
      <point x="358" y="1411" type="line"/>
      <point x="717" y="1411" type="line"/>
      <point x="727" y="1462" type="line"/>
      <point x="315" y="1462" type="line"/>
    </contour>
  </outline>
</glyph>
<glyph name="Lambda" format="2">
  <advance width="670"/>
  <unicode hex="039B"/>
  <anchor x="221" y="0" name="bottom"/>
  <anchor x="532" y="1462" name="top"/>
  <outline>
    <contour>
      <point x="-143" y="0" type="line"/>
      <point x="-86" y="0" type="line"/>
      <point x="432" y="1225" type="line" smooth="yes"/>
      <point x="463" y="1298"/>
      <point x="483" y="1348"/>
      <point x="506" y="1409" type="curve"/>
      <point x="502" y="1348"/>
      <point x="502" y="1296"/>
      <point x="502" y="1237" type="curve" smooth="yes"/>
      <point x="498" y="0" type="line"/>
      <point x="551" y="0" type="line"/>
      <point x="551" y="1462" type="line"/>
      <point x="479" y="1462" type="line"/>
    </contour>
  </outline>
</glyph>
<glyph name="Pi" format="2">
  <advance width="887"/>
  <unicode hex="03A0"/>
  <anchor x="330" y="0" name="bottom"/>
  <anchor x="641" y="1462" name="top"/>
  <outline>
    <contour>
      <point x="4" y="0" type="line"/>
      <point x="57" y="0" type="line"/>
      <point x="358" y="1411" type="line"/>
      <point x="866" y="1411" type="line"/>
      <point x="565" y="0" type="line"/>
      <point x="618" y="0" type="line"/>
      <point x="930" y="1462" type="line"/>
      <point x="315" y="1462" type="line"/>
    </contour>
  </outline>
</glyph>
<glyph name="Omega" format="2">
  <advance width="936"/>
  <unicode hex="03A9"/>
  <anchor x="354" y="0" name="bottom"/>
  <anchor x="666" y="1462" name="top"/>
  <anchor x="238" y="1462" name="topleft"/>
  <outline>
    <contour>
      <point x="-72" y="0" type="line"/>
      <point x="242" y="0" type="line"/>
      <point x="254" y="49" type="line"/>
      <point x="172" y="158"/>
      <point x="135" y="303"/>
      <point x="135" y="512" type="curve" smooth="yes"/>
      <point x="135" y="815"/>
      <point x="240" y="1432"/>
      <point x="610" y="1432" type="curve" smooth="yes"/>
      <point x="760" y="1432"/>
      <point x="827" y="1329"/>
      <point x="827" y="1106" type="curve" smooth="yes"/>
      <point x="827" y="662"/>
      <point x="649" y="199"/>
      <point x="406" y="49" type="curve"/>
      <point x="395" y="0" type="line"/>
      <point x="733" y="0" type="line"/>
      <point x="745" y="51" type="line"/>
      <point x="477" y="51" type="line"/>
      <point x="698" y="201"/>
      <point x="883" y="629"/>
      <point x="883" y="1118" type="curve" smooth="yes"/>
      <point x="883" y="1366"/>
      <point x="801" y="1483"/>
      <point x="614" y="1483" type="curve" smooth="yes"/>
      <point x="203" y="1483"/>
      <point x="80" y="858"/>
      <point x="80" y="508" type="curve" smooth="yes"/>
      <point x="80" y="285"/>
      <point x="135" y="131"/>
      <point x="197" y="51" type="curve"/>
      <point x="-61" y="51" type="line"/>
    </contour>
  </outline>
</glyph>
<glyph name="beta" format="2">
  <advance width="758"/>
  <unicode hex="03B2"/>
  <anchor x="328" y="0" name="bottom"/>
  <anchor x="598" y="1567" name="top"/>
  <anchor x="936" y="1567" name="topright"/>
  <outline>
    <contour>
      <point x="-98" y="-492" type="line"/>
      <point x="-45" y="-492" type="line"/>
      <point x="76" y="61" type="line"/>
      <point x="117" y="23"/>
      <point x="195" y="-20"/>
      <point x="283" y="-20" type="curve" smooth="yes"/>
      <point x="567" y="-20"/>
      <point x="655" y="279"/>
      <point x="655" y="514" type="curve" smooth="yes"/>
      <point x="655" y="678"/>
      <point x="584" y="793"/>
      <point x="483" y="819" type="curve"/>
      <point x="682" y="856"/>
      <point x="772" y="1083"/>
      <point x="772" y="1315" type="curve" smooth="yes"/>
      <point x="772" y="1489"/>
      <point x="682" y="1567"/>
      <point x="557" y="1567" type="curve" smooth="yes"/>
      <point x="377" y="1567"/>
      <point x="315" y="1438"/>
      <point x="276" y="1260" type="curve" smooth="yes"/>
    </contour>
    <contour>
      <point x="287" y="31" type="curve" smooth="yes"/>
      <point x="207" y="31"/>
      <point x="133" y="72"/>
      <point x="90" y="119" type="curve"/>
      <point x="330" y="1255" type="line" smooth="yes"/>
      <point x="365" y="1419"/>
      <point x="420" y="1516"/>
      <point x="553" y="1516" type="curve" smooth="yes"/>
      <point x="657" y="1516"/>
      <point x="717" y="1452"/>
      <point x="717" y="1313" type="curve" smooth="yes"/>
      <point x="717" y="1092"/>
      <point x="627" y="848"/>
      <point x="397" y="848" type="curve" smooth="yes"/>
      <point x="373" y="848" type="line"/>
      <point x="360" y="797" type="line"/>
      <point x="385" y="797" type="line" smooth="yes"/>
      <point x="514" y="797"/>
      <point x="600" y="698"/>
      <point x="600" y="508" type="curve" smooth="yes"/>
      <point x="600" y="295"/>
      <point x="524" y="31"/>
    </contour>
  </outline>
</glyph>
